<?xml version="1.0" encoding="UTF-8"?>
<svg id="Airplane" xmlns="http://www.w3.org/2000/svg" version="1.1" viewBox="0 0 512 512">
  <!-- Generator: Adobe Illustrator 29.1.0, SVG Export Plug-In . SVG Version: 2.1.0 Build 142)  -->
  <path d="M448.75,142.27c.64-21.06-7.54-41.68-22.44-56.58-14.9-14.9-35.53-23.09-56.58-22.44-21.06.64-41.15,10.06-55.11,25.83l-35,39.54-42.58-20.45c-7.97-3.83-17.52-.47-21.35,7.5-3.83,7.97-.47,17.52,7.5,21.35l34.35,16.5-37.38,42.12-98.58-77.76c-2.29-1.81-2.76-4.17-2.83-5.42-.07-1.25.11-3.65,2.17-5.72l8.98-8.98c2.24-2.24,5.66-2.82,8.51-1.45l9.27,4.45c7.96,3.82,17.52.47,21.35-7.5s.47-17.52-7.5-21.35l-9.27-4.45c-15.08-7.24-33.16-4.16-44.99,7.67l-8.98,8.98c-7.96,7.96-12.15,18.98-11.49,30.23.66,11.24,6.11,21.69,14.96,28.67l97.14,76.62-55.96,63.22-58.2-22.41c-7.37-2.84-15.7.12-19.63,6.97-3.93,6.84-2.28,15.53,3.88,20.46l45.55,36.42c-5.4,20.02-.2,42.24,15.36,57.8,11.59,11.59,26.87,17.44,42.19,17.44,5.25,0,10.51-.69,15.62-2.07l36.41,45.54c3.13,3.91,7.78,6.01,12.5,6.01,2.72,0,5.46-.69,7.96-2.12,6.84-3.93,9.8-12.26,6.97-19.62l-22.41-58.2,63.22-55.96,76.62,97.14c6.97,8.84,17.42,14.3,28.67,14.96.77.05,1.54.07,2.31.07,10.43,0,20.49-4.14,27.91-11.56l8.98-8.98c11.83-11.83,14.91-29.91,7.67-44.99l-61.16-127.35,39.54-35c15.78-13.97,25.19-34.06,25.83-55.12ZM414.24,382.1l-8.98,8.98c-2.06,2.06-4.47,2.25-5.72,2.17-1.25-.07-3.62-.54-5.42-2.83l-77.76-98.58,42.12-37.38,57.21,119.13c1.37,2.85.79,6.27-1.45,8.51ZM416.77,141.3c-.38,12.46-5.73,23.87-15.06,32.13l-32.73,28.97v-.02s-15.85,14.05-15.85,14.05l-.03.03-69.26,61.46-93.45,82.71c-10.92,9.67-27.56,9.16-37.87-1.15-10.31-10.31-10.82-26.95-1.15-37.87l82.7-93.43,61.48-69.28s0,0,0,0h0s43.01-48.59,43.01-48.59c8.26-9.33,19.67-14.68,32.13-15.06.47-.01.94-.02,1.41-.02,11.93,0,23.09,4.62,31.57,13.1s13.46,20.53,13.08,32.98Z"/>
</svg>