<?xml version="1.0" encoding="UTF-8"?>
<svg id="Ball" xmlns="http://www.w3.org/2000/svg" version="1.1" viewBox="0 0 512 512">
  <!-- Generator: Adobe Illustrator 29.1.0, SVG Export Plug-In . SVG Version: 2.1.0 Build 142)  -->
  <path d="M389.33,64H122.67c-32.35,0-58.67,26.32-58.67,58.67v266.67c0,32.35,26.32,58.67,58.67,58.67h150.09c8.84,0,16-7.16,16-16s-7.16-16-16-16h-123.25v-223.07h266.5v196.4c0,14.7-11.96,26.67-26.67,26.67h-19.38c-8.84,0-16,7.16-16,16s7.16,16,16,16h19.38c32.35,0,58.67-26.32,58.67-58.67V122.67c0-32.35-26.32-58.67-58.67-58.67ZM294.66,96h53.14l-39.79,64.93h-53.14l39.79-64.93ZM217.34,160.93h-53.14l39.79-64.93h53.14l-39.79,64.93ZM122.67,96h43.8l-39.79,64.93h-30.67v-38.26c0-14.7,11.96-26.67,26.67-26.67ZM117.5,415.49c-12.24-2.41-21.5-13.22-21.5-26.16v-196.4h21.5v222.56ZM345.54,160.93l39.79-64.93h4.01c14.7,0,26.67,11.96,26.67,26.67v38.26h-70.46Z"/>
  <path d="M396.05,276.19c0-26.5-21.56-48.06-48.06-48.06s-48.05,21.56-48.05,48.06c0,1.69.09,3.35.26,4.99-20.94,9.5-35.5,24.26-45.41,38.5-21.14-50.96-57.29-78.81-59.18-80.25-7.03-5.32-17.02-3.94-22.37,3.08-5.34,7.02-3.98,17.05,3.02,22.41.48.37,48,37.42,59.16,102.09,1.29,7.49,7.68,13.04,15.29,13.27.16,0,.32,0,.49,0,7.4,0,13.87-5.09,15.57-12.34.11-.45,10.12-41.25,47.22-57.87,8.71,8.74,20.74,14.15,34.02,14.15,26.5,0,48.06-21.56,48.06-48.05ZM348,292.25c-6.07,0-11.36-3.39-14.09-8.37-.06-.12-.12-.24-.18-.36-1.13-2.2-1.78-4.68-1.78-7.32,0-8.85,7.2-16.06,16.05-16.06s16.06,7.2,16.06,16.06-7.2,16.05-16.06,16.05Z"/>
</svg>