<?xml version="1.0" encoding="utf-8"?>
<!-- Generator: Adobe Illustrator 26.2.1, SVG Export Plug-In . SVG Version: 6.00 Build 0)  -->
<svg version="1.1" id="Layer_1" xmlns="http://www.w3.org/2000/svg" xmlns:xlink="http://www.w3.org/1999/xlink" x="0px" y="0px"
	 viewBox="0 0 512 512" style="enable-background:new 0 0 512 512;" xml:space="preserve">
<g id="Circle">
	<g>
		<path d="M256,42.7c57,0,110.6,22.2,150.8,62.5S469.3,199,469.3,256c0,117.6-95.7,213.3-213.3,213.3c-57,0-110.6-22.2-150.8-62.5
			S42.7,313,42.7,256s22.2-110.6,62.5-150.8S199,42.7,256,42.7z M256,437.3c100,0,181.3-81.3,181.3-181.3S356,74.7,256,74.7
			S74.7,156,74.7,256S156,437.3,256,437.3z"/>
	</g>
</g>
<g id="Arrow">
	<g>
		<path d="M257.4,189.1c9.1,0,17.6,3.5,24,10l72.4,72.4c6.2,6.2,6.2,16.4,0,22.6c-6.2,6.2-16.4,6.2-22.6,0l-72.4-72.4
			c-0.8-0.8-2.1-0.8-2.8,0l-75.1,75.1c-6.2,6.2-16.4,6.2-22.6,0c-6.2-6.2-6.2-16.4,0-22.6l75.1-75.1
			C239.7,192.7,248.3,189.1,257.4,189.1z"/>
	</g>
</g>
</svg>
