<?xml version="1.0" encoding="utf-8"?>
<!-- Generator: Adobe Illustrator 26.2.1, SVG Export Plug-In . SVG Version: 6.00 Build 0)  -->
<svg version="1.1" id="Layer_1" xmlns="http://www.w3.org/2000/svg" xmlns:xlink="http://www.w3.org/1999/xlink" x="0px" y="0px"
	 viewBox="0 0 512 512" style="enable-background:new 0 0 512 512;" xml:space="preserve">
<g id="Circle">
	<g>
		<path d="M469.3,256c0,57-22.2,110.6-62.5,150.8S313,469.3,256,469.3c-117.6,0-213.3-95.7-213.3-213.3c0-57,22.2-110.6,62.5-150.8
			S199,42.7,256,42.7s110.6,22.2,150.8,62.5S469.3,199,469.3,256z M74.7,256c0,100,81.3,181.3,181.3,181.3S437.3,356,437.3,256
			S356,74.7,256,74.7S74.7,156,74.7,256z"/>
	</g>
</g>
<g id="Arrow">
	<g>
		<path d="M322.9,257.4c0,9.1-3.5,17.6-10,24l-72.4,72.4c-6.2,6.2-16.4,6.2-22.6,0c-6.2-6.2-6.2-16.4,0-22.6l72.4-72.4
			c0.8-0.8,0.8-2.1,0-2.8l-75.1-75.1c-6.2-6.2-6.2-16.4,0-22.6s16.4-6.2,22.6,0l75.1,75.1C319.3,239.7,322.9,248.3,322.9,257.4z"/>
	</g>
</g>
</svg>
