<?xml version="1.0" encoding="UTF-8"?>
<svg id="Avatar" xmlns="http://www.w3.org/2000/svg" version="1.1" viewBox="0 0 512 512">
  <!-- Generator: Adobe Illustrator 29.1.0, SVG Export Plug-In . SVG Version: 2.1.0 Build 142)  -->
  <path d="M453.33,240c-8.84,0-16,7.16-16,16,0,38.92-12.33,75.01-33.28,104.58-38.97-39.56-91.91-61.92-148.05-61.92s-109.08,22.36-148.05,61.92c-20.95-29.57-33.28-65.66-33.28-104.58,0-99.99,81.35-181.33,181.33-181.33,55.62,0,107.39,25,142.04,68.6,5.5,6.92,15.56,8.07,22.48,2.57,6.92-5.5,8.07-15.56,2.57-22.48-40.76-51.28-101.66-80.69-167.09-80.69-117.63,0-213.33,95.7-213.33,213.33,0,56.98,22.19,110.56,62.48,150.85s93.87,62.48,150.85,62.48,110.56-22.19,150.85-62.48,62.48-93.87,62.48-150.85c0-8.84-7.16-16-16-16ZM128.77,385.07c33.15-34.73,78.78-54.4,127.23-54.4s94.08,19.67,127.23,54.4c-32.76,32.3-77.71,52.27-127.23,52.27s-94.48-19.97-127.23-52.27Z"/>
  <path d="M170.67,202.67c0,47.05,38.28,85.33,85.33,85.33s85.33-38.28,85.33-85.33-38.28-85.33-85.33-85.33-85.33,38.28-85.33,85.33ZM309.33,202.67c0,29.41-23.92,53.33-53.33,53.33s-53.33-23.93-53.33-53.33,23.93-53.33,53.33-53.33,53.33,23.93,53.33,53.33Z"/>
</svg>