<?xml version="1.0" encoding="UTF-8"?>
<svg id="USD" xmlns="http://www.w3.org/2000/svg" version="1.1" viewBox="0 0 512 512">
  <!-- Generator: Adobe Illustrator 29.1.0, SVG Export Plug-In . SVG Version: 2.1.0 Build 142)  -->
  <path d="M432,416H80c-8.84,0-16,7.16-16,16s7.16,16,16,16h352c8.84,0,16-7.16,16-16s-7.16-16-16-16Z"/>
  <path d="M112,245.33c-8.84,0-16,7.16-16,16v117.33c0,8.84,7.16,16,16,16s16-7.16,16-16v-117.33c0-8.84-7.16-16-16-16Z"/>
  <path d="M138.67,261.33v117.33c0,8.84,7.16,16,16,16s16-7.16,16-16v-117.33c0-8.84-7.16-16-16-16s-16,7.16-16,16Z"/>
  <path d="M357.33,245.33c-8.84,0-16,7.16-16,16v117.33c0,8.84,7.16,16,16,16s16-7.16,16-16v-117.33c0-8.84-7.16-16-16-16Z"/>
  <path d="M384,261.33v117.33c0,8.84,7.16,16,16,16s16-7.16,16-16v-117.33c0-8.84-7.16-16-16-16s-16,7.16-16,16Z"/>
  <path d="M103.44,219.28h24.44c8.84,0,16-7.16,16-16s-7.16-16-16-16h-24.44c-5.06,0-6.68-3.54-7.2-5.65-.51-2.11-.71-6,3.79-8.33l141.8-73.4c8.87-4.59,19.46-4.59,28.33,0l141.8,73.4c4.5,2.33,4.31,6.22,3.79,8.33-.51,2.11-2.13,5.65-7.2,5.65h-24.45c-8.84,0-16,7.16-16,16s7.16,16,16,16h24.45c18.52,0,33.91-12.09,38.29-30.08,4.38-17.99-3.73-35.8-20.17-44.32l-141.8-73.4c-18.08-9.36-39.67-9.36-57.75,0l-141.8,73.4c-16.45,8.51-24.55,26.32-20.17,44.32,4.38,17.99,19.77,30.08,38.29,30.08Z"/>
  <path d="M256,197.33c16.17,0,29.33,10.77,29.33,24,0,8.84,7.16,16,16,16s16-7.16,16-16c0-25.82-19.25-47.61-45.33-54.05v-23.28c0-8.84-7.16-16-16-16s-16,7.16-16,16v23.28c-26.08,6.44-45.33,28.23-45.33,54.05,0,30.88,27.51,56,61.33,56,16.17,0,29.33,10.77,29.33,24s-13.16,24-29.33,24-29.33-10.77-29.33-24c0-8.84-7.16-16-16-16s-16,7.16-16,16c0,25.83,19.25,47.61,45.33,54.05v23.28c0,8.84,7.16,16,16,16s16-7.16,16-16v-23.28c26.08-6.44,45.33-28.23,45.33-54.05,0-30.88-27.51-56-61.33-56-16.17,0-29.33-10.77-29.33-24s13.16-24,29.33-24Z"/>
</svg>