<?xml version="1.0" encoding="UTF-8"?>
<svg id="_x35_" xmlns="http://www.w3.org/2000/svg" version="1.1" viewBox="0 0 512 512">
  <!-- Generator: Adobe Illustrator 29.1.0, SVG Export Plug-In . SVG Version: 2.1.0 Build 142)  -->
  <path d="M418,186.5h-3c0-34.19-27.81-62-62-62h-109.11c-8.84,0-16,7.16-16,16s7.16,16,16,16h109.11c16.54,0,30,13.46,30,30v139c0,16.54-13.46,30-30,30H104c-16.54,0-30-13.46-30-30v-139c0-16.54,13.46-30,30-30h38.4c8.84,0,16-7.16,16-16s-7.16-16-16-16h-38.4c-34.19,0-62,27.81-62,62v139c0,34.19,27.81,62,62,62h249c34.19,0,62-27.81,62-62h3c28.12,0,51-22.88,51-51v-37c0-28.12-22.88-51-51-51ZM437,274.5c0,10.48-8.52,19-19,19h-3v-75h3c10.48,0,19,8.52,19,19v37Z"/>
  <path d="M103,194.6v122.8c0,8.84,7.16,16,16,16s16-7.16,16-16v-122.8c0-8.84-7.16-16-16-16s-16,7.16-16,16Z"/>
  <path d="M174.5,333.4c8.84,0,16-7.16,16-16v-122.8c0-8.84-7.16-16-16-16s-16,7.16-16,16v122.8c0,8.84,7.16,16,16,16Z"/>
  <path d="M230,333.4c8.84,0,16-7.16,16-16v-122.8c0-8.84-7.16-16-16-16s-16,7.16-16,16v122.8c0,8.84,7.16,16,16,16Z"/>
  <path d="M301.5,317.4v-122.8c0-8.84-7.16-16-16-16s-16,7.16-16,16v122.8c0,8.84,7.16,16,16,16s16-7.16,16-16Z"/>
  <path d="M357,317.4v-122.8c0-8.84-7.16-16-16-16s-16,7.16-16,16v122.8c0,8.84,7.16,16,16,16s16-7.16,16-16Z"/>
</svg>