<?xml version="1.0" encoding="utf-8"?>
<!-- Generator: Adobe Illustrator 26.2.1, SVG Export Plug-In . SVG Version: 6.00 Build 0)  -->
<svg version="1.1" xmlns="http://www.w3.org/2000/svg" xmlns:xlink="http://www.w3.org/1999/xlink" x="0px" y="0px"
	 viewBox="0 0 512 512" style="enable-background:new 0 0 512 512;" xml:space="preserve">
<g id="Finger_5">
	<g>
		<g>
			<path d="M256,405c-8.8,0-16-7.2-16-16s7.2-16,16-16c38.9,0,75.2-19.3,97-51.6c4.9-7.3,14.9-9.2,22.2-4.3
				c7.3,4.9,9.2,14.9,4.3,22.2C351.7,380.4,305.6,405,256,405z"/>
		</g>
	</g>
</g>
<g id="Finger_4">
	<g>
		<path d="M158.3,362.3c-7.9,0-14.8-5.9-15.8-13.9c-1.1-8.7,5-16.7,13.7-17.9c2.7-0.4,63.2-9.8,84.5-79.2c2.6-8.4,11.5-13.2,20-10.6
			c8.4,2.6,13.2,11.5,10.6,20c-14.3,46.7-43.5,71.8-65.4,84.6c-23.8,14-44.7,16.8-45.5,16.9C159.7,362.3,159,362.3,158.3,362.3z"/>
	</g>
</g>
<g id="Finger_3">
	<g>
		<path d="M291.5,338.1c-5.7,0-11.2-3.1-14.1-8.4c-4.2-7.8-1.3-17.5,6.5-21.7c19.2-10.3,31.1-30.3,31.1-52.1c0-32.6-26.5-59-59-59
			c-32.6,0-59,26.5-59,59c0,8.8-7.2,16-16,16s-16-7.2-16-16c0-50.2,40.8-91,91-91s91,40.8,91,91c0,33.6-18.4,64.3-48,80.2
			C296.6,337.5,294,338.1,291.5,338.1z"/>
	</g>
</g>
<g id="Finger_2">
	<g>
		<path d="M123,272c-8.8,0-16-7.2-16-16c0-39.5,15.3-76.8,43.2-104.9c6.2-6.3,16.4-6.3,22.6-0.1c6.3,6.2,6.3,16.4,0.1,22.6
			C151.1,195.7,139,225,139,256C139,264.8,131.9,272,123,272z"/>
	</g>
</g>
<g id="Finger_1">
	<g>
		<path d="M389,272c-8.8,0-16-7.2-16-16c0-64.5-52.5-117-117-117c-8.8,0-16-7.2-16-16s7.2-16,16-16c82.1,0,149,66.8,149,149
			C405,264.8,397.8,272,389,272z"/>
	</g>
</g>
<g id="Frame_4">
	<g>
		<path d="M181,448h-59.3C89.3,448,63,421.7,63,389.4v-59.3c0-8.8,7.2-16,16-16s16,7.2,16,16v59.3c0,14.7,12,26.7,26.7,26.7H181
			c8.8,0,16,7.2,16,16S189.8,448,181,448z"/>
	</g>
</g>
<g id="Frame_3">
	<g>
		<path d="M389.1,448h-59.3c-8.8,0-16-7.2-16-16s7.2-16,16-16h59.3c14.7,0,26.7-12,26.7-26.7v-59.3c0-8.8,7.2-16,16-16s16,7.2,16,16
			v59.3C447.8,421.7,421.4,448,389.1,448z"/>
	</g>
</g>
<g id="Frame_2">
	<g>
		<path d="M431.8,197.2c-8.8,0-16-7.2-16-16v-59.3c0-14.7-12-26.7-26.7-26.7h-59.3c-8.8,0-16-7.2-16-16s7.2-16,16-16h59.3
			c32.3,0,58.7,26.3,58.7,58.7v59.3C447.8,190,440.6,197.2,431.8,197.2z"/>
	</g>
</g>
<g id="Frame_1">
	<g>
		<path d="M79,197.2c-8.8,0-16-7.2-16-16v-59.3c0-32.3,26.3-58.7,58.7-58.7H181c8.8,0,16,7.2,16,16s-7.2,16-16,16h-59.3
			c-14.7,0-26.7,12-26.7,26.7v59.3C95,190,87.9,197.2,79,197.2z"/>
	</g>
</g>
</svg>
