<?xml version="1.0" encoding="utf-8"?>
<!-- Generator: Adobe Illustrator 26.2.1, SVG Export Plug-In . SVG Version: 6.00 Build 0)  -->
<svg version="1.1" xmlns="http://www.w3.org/2000/svg" xmlns:xlink="http://www.w3.org/1999/xlink" x="0px" y="0px"
	 viewBox="0 0 512 512" style="enable-background:new 0 0 512 512;" xml:space="preserve">
<g id="Bitcoin">
</g>
<g id="Circle">
	<g>
		<path d="M353.2,212.9c0-32.2-26.2-58.4-58.4-58.4h-22.5v-15.7c0-8.8-7.2-16-16-16s-16,7.2-16,16v15.7h-10.8
			c-0.6-0.1-1.3-0.1-2-0.1h-52.1c-8.8,0-16,7.2-16,16s7.2,16,16,16h13.2v5.9c0,8.8,7.2,16,16,16s16-7.2,16-16v-5.8h74.3
			c14.5,0,26.4,11.8,26.4,26.4c0,14.5-11.8,26.4-26.4,26.4h-74.3v-1.9c0-8.8-7.2-16-16-16s-16,7.2-16,16v3.1v30.8v54h-13.2
			c-8.8,0-16,7.2-16,16s7.2,16,16,16h13.2h39h12.8v16.4c0,8.8,7.2,16,16,16s16-7.2,16-16v-16.4h22.5c32.2,0,58.4-26.2,58.4-58.4
			c0-17-7.3-32.3-18.9-43C345.9,245.2,353.2,229.9,353.2,212.9z M294.9,325.3h-67.3h-7v-52.7h74.3c14.5,0,26.4,11.8,26.4,26.4
			C321.2,313.4,309.4,325.3,294.9,325.3z"/>
		<path d="M446.2,159.5c-4-7.9-13.7-11-21.5-7c-7.9,4-11,13.7-7,21.5c13.1,25.6,19.7,53.3,19.7,82.2c0,99.8-81.2,181-181,181
			c-99.8,0-181-81.2-181-181c0-99.8,81.2-181,181-181c20.6,0,40.7,3.4,59.9,10.2c8.3,2.9,17.5-1.5,20.4-9.8
			c2.9-8.3-1.5-17.5-9.8-20.4c-22.6-7.9-46.4-12-70.5-12c-117.5,0-213,95.6-213,213s95.6,213,213,213c117.5,0,213-95.6,213-213
			C469.4,222.2,461.6,189.6,446.2,159.5z"/>
	</g>
</g>
</svg>
