<?xml version="1.0" encoding="utf-8"?>
<!-- Generator: Adobe Illustrator 26.2.1, SVG Export Plug-In . SVG Version: 6.00 Build 0)  -->
<svg version="1.1" xmlns="http://www.w3.org/2000/svg" xmlns:xlink="http://www.w3.org/1999/xlink" x="0px" y="0px"
	 viewBox="0 0 512 512" style="enable-background:new 0 0 512 512;" xml:space="preserve">
<g id="Circle_1">
</g>
<g id="Circle_2">
</g>
<g id="Circle_3">
</g>
<g id="Circle_4">
</g>
<g id="Circle_5">
</g>
<g id="Circle_6">
</g>
<g id="Line">
</g>
<g id="Box">
	<g>
		<path d="M421.8,311.8V202.1c13-6.7,22-20.3,22-36c0-22.3-18.1-40.4-40.4-40.4c-9.7,0-18.7,3.4-25.6,9.2l-82.1-47.4
			c0.2-1.4,0.2-2.9,0.2-4.3c0-22.3-18.1-40.4-40.4-40.4S215,60.8,215,83.1c0,1.5,0.1,2.9,0.2,4.3l-81.1,46.8
			c-7-5.7-15.9-9.1-25.6-9.1c-22.3,0-40.4,18.1-40.4,40.4c0,15.2,8.4,28.5,20.9,35.4v17.7c0,8.8,7.2,16,16,16s16-7.2,16-16V204
			c16.2-5.2,28-20.5,28-38.5c0-1,0-1.9-0.1-2.9l82.1-47.4c6.8,5.2,15.3,8.2,24.4,8.2c9.2,0,17.6-3.1,24.4-8.2l83.2,48
			c-0.1,0.9-0.1,1.9-0.1,2.8c0,17.6,11.2,32.5,26.9,38.1v105.4c-15.7,5.6-26.9,20.5-26.9,38.1c0,0.6,0,1.2,0,1.7L280.7,397
			c-6.9-5.5-15.7-8.8-25.2-8.8c-9.5,0-18.3,3.3-25.2,8.8l-81.3-46.9c0.1-1,0.1-1.9,0.1-2.9c0-18-11.8-33.2-28-38.5V293
			c0-8.8-7.2-16-16-16s-16,7.2-16,16v18.9c-12.4,6.9-20.9,20.1-20.9,35.4c0,22.3,18.1,40.4,40.4,40.4c9.7,0,18.6-3.4,25.6-9.1
			l81,46.8c-0.1,1.1-0.1,2.2-0.1,3.3c0,22.3,18.1,40.4,40.4,40.4s40.4-18.1,40.4-40.4c0-1.1-0.1-2.2-0.1-3.3l81.3-46.9
			c7.1,6.1,16.3,9.8,26.4,9.8c22.3,0,40.4-18.1,40.4-40.4C443.8,332.1,434.9,318.5,421.8,311.8z"/>
		<path d="M236.4,351.6c5.9,3.4,12.4,5.1,19,5.1s13.1-1.7,19-5.1l54-31.2c11.7-6.8,19-19.4,19-32.9v-62.3c0-13.5-7.3-26.1-19-32.9
			l-54-31.2c-11.7-6.8-26.3-6.8-38,0l-54,31.2c-11.7,6.8-19,19.4-19,32.9v62.3c0,13.5,7.3,26.1,19,32.9L236.4,351.6z M198.5,292.7
			c-1.9-1.1-3-3.1-3-5.2v-47.3l44,25.6v50.6L198.5,292.7z M312.4,292.7l-41,23.7v-50.5l44-25.3v46.9
			C315.4,289.7,314.3,291.7,312.4,292.7z M252.4,188.9c0.9-0.5,2-0.8,3-0.8s2.1,0.3,3,0.8l41.3,23.8l-44.2,25.4l-44-25.6
			L252.4,188.9z"/>
	</g>
</g>
</svg>
