<?xml version="1.0" encoding="UTF-8"?>
<svg id="Arrow_2" xmlns="http://www.w3.org/2000/svg" version="1.1" viewBox="0 0 512 512">
  <!-- Generator: Adobe Illustrator 29.1.0, SVG Export Plug-In . SVG Version: 2.1.0 Build 142)  -->
  <path d="M445.54,341.71c-6.11-13.86-19.32-22.47-34.47-22.47h-183.66V80c0-8.84-7.16-16-16-16s-16,7.16-16,16v239.24h-94.52c-12.23,0-23.74,5.97-30.79,15.96-7.05,10-8.8,22.84-4.69,34.36l18.12,50.78c4.24,16.78,19.1,28.41,36.51,28.41h241.89c12.16,0,23.48-5.82,30.55-15.64l46.4-50.8c10.21-11.19,12.76-26.74,6.65-40.6ZM415.26,360.74l-47.11,51.58c-.55.6-1.05,1.24-1.5,1.92-1.05,1.58-2.82,2.52-4.72,2.52H120.05c-2.68,0-4.95-1.83-5.53-4.44-.14-.65-.33-1.28-.55-1.91l-18.41-51.59c-.86-2.41.07-4.28.71-5.17.63-.9,2.08-2.4,4.63-2.4h310.18c3.22,0,4.63,2.12,5.19,3.38.56,1.26,1.17,3.74-1,6.11Z"/>
  <path d="M277.33,293.91h104.27c15.15,0,28.69-9.05,34.49-23.05,5.8-14,2.62-29.97-8.09-40.69l-140.69-140.69c-6.25-6.25-16.38-6.25-22.63,0-6.25,6.25-6.25,16.38,0,22.63l140.69,140.69c2.19,2.19,1.67,4.58,1.16,5.81-.51,1.23-1.83,3.29-4.93,3.29h-104.27c-2.94,0-5.33-2.39-5.33-5.33v-71.19c0-8.84-7.16-16-16-16s-16,7.16-16,16v71.19c0,20.59,16.75,37.33,37.33,37.33Z"/>
  <path d="M103.45,293.91h42.37c20.59,0,37.33-16.75,37.33-37.33V101.33c0-6.2-3.58-11.85-9.2-14.48-5.61-2.64-12.25-1.79-17.02,2.17-62.34,51.75-83.29,122.99-90.23,160.84-2,10.93.92,22.08,8.03,30.61,7.12,8.54,17.58,13.43,28.71,13.43ZM98.18,255.63c5.04-27.51,18.35-74.82,52.97-115.92v116.87c0,2.94-2.39,5.33-5.33,5.33h-42.37c-2.2,0-3.53-1.2-4.13-1.92-.59-.71-1.53-2.22-1.14-4.35Z"/>
</svg>