<?xml version="1.0" encoding="UTF-8"?>
<svg id="Light" xmlns="http://www.w3.org/2000/svg" version="1.1" viewBox="0 0 512 512">
  <!-- Generator: Adobe Illustrator 29.1.0, SVG Export Plug-In . SVG Version: 2.1.0 Build 142)  -->
  <path d="M432,154.57c8.84,0,16-7.16,16-16v-15.9c0-32.35-26.32-58.67-58.67-58.67H122.67c-32.35,0-58.67,26.32-58.67,58.67v53.13c0,20.59,16.75,37.33,37.33,37.33h74.67v218.87c0,6.3,3.7,12.01,9.45,14.6,5.75,2.58,12.48,1.55,17.18-2.64l109.37-97.22,109.37,97.22c2.99,2.66,6.79,4.04,10.63,4.04,2.22,0,4.45-.46,6.55-1.4,5.75-2.58,9.45-8.29,9.45-14.6v-190.6c0-8.84-7.16-16-16-16s-16,7.16-16,16v154.97l-93.37-83c-6.06-5.39-15.2-5.39-21.26,0l-93.37,83V96h181.33c14.7,0,26.67,11.96,26.67,26.67v15.9c0,8.84,7.16,16,16,16ZM101.33,181.13c-2.94,0-5.33-2.39-5.33-5.33v-53.13c0-14.7,11.96-26.67,26.67-26.67h53.33v85.13h-74.67Z"/>
</svg>