<?xml version="1.0" encoding="UTF-8"?>
<svg id="Box" xmlns="http://www.w3.org/2000/svg" version="1.1" viewBox="0 0 512 512">
  <!-- Generator: Adobe Illustrator 29.1.0, SVG Export Plug-In . SVG Version: 2.1.0 Build 142)  -->
  <path d="M432,225.82c8.84,0,16-7.16,16-16v-87.16c0-32.35-26.32-58.67-58.67-58.67H122.67c-32.35,0-58.67,26.32-58.67,58.67v266.67c0,32.35,26.32,58.67,58.67,58.67h266.67c32.35,0,58.67-26.32,58.67-58.67v-85.63c0-8.84-7.16-16-16-16s-16,7.16-16,16v85.63c0,14.7-11.96,26.67-26.67,26.67H122.67c-14.7,0-26.67-11.96-26.67-26.67v-197.34h96v49.34c0,19.85,16.15,36,36,36h56c19.85,0,36-16.15,36-36v-49.34h96v17.83c0,8.84,7.16,16,16,16ZM96,159.99v-37.32c0-14.7,11.96-26.67,26.67-26.67h69.33v63.99h-96ZM288,241.33c0,2.21-1.79,4-4,4h-56c-2.21,0-4-1.79-4-4V96h64v145.33ZM320,159.99v-63.99h69.33c14.7,0,26.67,11.96,26.67,26.67v37.32h-96Z"/>
  <path d="M146.67,384h141.33c8.84,0,16-7.16,16-16s-7.16-16-16-16h-141.33c-8.84,0-16,7.16-16,16s7.16,16,16,16Z"/>
  <path d="M146.67,341.33h90.67c8.84,0,16-7.16,16-16s-7.16-16-16-16h-90.67c-8.84,0-16,7.16-16,16s7.16,16,16,16Z"/>
</svg>