<?xml version="1.0" encoding="UTF-8"?>
<svg id="Top" xmlns="http://www.w3.org/2000/svg" version="1.1" viewBox="0 0 512 512">
  <!-- Generator: Adobe Illustrator 29.1.0, SVG Export Plug-In . SVG Version: 2.1.0 Build 142)  -->
  <g>
    <path d="M405.33,312.11V101.33c0-32.35-26.32-58.67-58.67-58.67h-181.33c-32.35,0-58.67,26.32-58.67,58.67v21.33c0,8.84,7.16,16,16,16s16-7.16,16-16v-21.33c0-14.7,11.96-26.67,26.67-26.67h181.33c14.7,0,26.67,11.96,26.67,26.67v197.33h-234.67v-89.03c0-8.84-7.16-16-16-16s-16,7.16-16,16v102.47c-13.02,10.77-21.33,27.04-21.33,45.22v53.33c0,32.35,26.32,58.67,58.67,58.67h74.67c8.84,0,16-7.16,16-16v-64c0-2.89,2.44-5.33,5.33-5.33h32c2.89,0,5.33,2.44,5.33,5.33v64c0,8.84,7.16,16,16,16h74.67c32.35,0,58.67-26.32,58.67-58.67v-53.33c0-18.18-8.31-34.45-21.33-45.22ZM394.67,410.67c0,14.7-11.96,26.67-26.67,26.67h-58.67v-48c0-20.59-16.75-37.33-37.33-37.33h-32c-20.59,0-37.33,16.75-37.33,37.33v48h-58.67c-14.7,0-26.67-11.96-26.67-26.67v-53.33c0-14.7,11.96-26.67,26.67-26.67h224c14.7,0,26.67,11.96,26.67,26.67v53.33Z"/>
    <path d="M165.33,357.33c-8.84,0-16,7.16-16,16v32c0,8.84,7.16,16,16,16s16-7.16,16-16v-32c0-8.84-7.16-16-16-16Z"/>
    <path d="M346.67,357.33c-8.84,0-16,7.16-16,16v32c0,8.84,7.16,16,16,16s16-7.16,16-16v-32c0-8.84-7.16-16-16-16Z"/>
  </g>
  <path d="M219.68,138.67h-33.02c-8.84,0-16-7.16-16-16s7.16-16,16-16h33.02c8.84,0,16,7.16,16,16s-7.16,16-16,16Z"/>
  <path d="M326.35,138.67h-33.02c-8.84,0-16-7.16-16-16s7.16-16,16-16h33.02c8.84,0,16,7.16,16,16s-7.16,16-16,16Z"/>
  <path d="M219.68,202.67h-33.02c-8.84,0-16-7.16-16-16s7.16-16,16-16h33.02c8.84,0,16,7.16,16,16s-7.16,16-16,16Z"/>
  <path d="M326.35,202.67h-33.02c-8.84,0-16-7.16-16-16s7.16-16,16-16h33.02c8.84,0,16,7.16,16,16s-7.16,16-16,16Z"/>
  <path d="M219.68,266.67h-33.02c-8.84,0-16-7.16-16-16s7.16-16,16-16h33.02c8.84,0,16,7.16,16,16s-7.16,16-16,16Z"/>
  <path d="M326.35,266.67h-33.02c-8.84,0-16-7.16-16-16s7.16-16,16-16h33.02c8.84,0,16,7.16,16,16s-7.16,16-16,16Z"/>
</svg>