<?xml version="1.0" encoding="utf-8"?>
<!-- Generator: Adobe Illustrator 26.2.1, SVG Export Plug-In . SVG Version: 6.00 Build 0)  -->
<svg version="1.1" id="Layer_1" xmlns="http://www.w3.org/2000/svg" xmlns:xlink="http://www.w3.org/1999/xlink" x="0px" y="0px"
	 viewBox="0 0 512 512" style="enable-background:new 0 0 512 512;" xml:space="preserve">
<g>
	<g>
		<path d="M275.7,421.7h-29.6c-22.4,0-40.6-18.2-40.6-40.6v-24.2c0-3.9-2-7.4-5-9c-20.4-10.2-37.6-25.7-49.8-45
			c-12.5-19.8-19.2-42.8-19.2-66.4c0-35.3,15.1-69.1,41.4-92.7c26.3-23.6,61.6-34.9,97-31c26.9,2.9,52.7,15.1,72.5,34.3
			c6.4,6.1,6.5,16.3,0.4,22.6c-6.1,6.4-16.3,6.5-22.6,0.4c-14.8-14.3-33.8-23.3-53.8-25.5c-26.8-2.9-52.4,5.3-72.2,23
			c-19.5,17.5-30.7,42.6-30.7,68.9c0,35.3,19.6,67,51.2,82.8c13.8,6.9,22.7,21.6,22.7,37.6V381c0,4.8,3.9,8.6,8.6,8.6h29.6
			c4.8,0,8.6-3.9,8.6-8.6v-30.5c0-14.4,7.5-27.5,20-35.2c15.1-9.3,27.2-22.6,34.9-38.5c8-16.6,10.9-35.2,8.2-53.9
			c-1.2-8.7,4.9-16.8,13.6-18.1c8.7-1.2,16.8,4.9,18.1,13.6c3.5,25-0.3,50-11.1,72.3c-10.4,21.4-26.6,39.4-46.9,51.8
			c-3,1.8-4.7,4.8-4.7,7.9V381C316.4,403.4,298.1,421.7,275.7,421.7z"/>
	</g>
	<g>
		<path d="M256,90.7c-8.8,0-16-7.2-16-16V56.7c0-8.8,7.2-16,16-16c8.8,0,16,7.2,16,16v17.9C272,83.5,264.8,90.7,256,90.7z"/>
	</g>
	<g>
		<path d="M377.7,141.4c-4.1,0-8.2-1.6-11.3-4.7c-6.2-6.2-6.2-16.4,0-22.6l12.7-12.7c6.2-6.2,16.4-6.2,22.6,0
			c6.2,6.2,6.2,16.4,0,22.6L389,136.7C385.8,139.8,381.8,141.4,377.7,141.4z"/>
	</g>
	<g>
		<path d="M134.3,141.4c-4.1,0-8.2-1.6-11.3-4.7L110.3,124c-6.2-6.2-6.2-16.4,0-22.6c6.2-6.2,16.4-6.2,22.6,0l12.7,12.7
			c6.2,6.2,6.2,16.4,0,22.6C142.5,139.8,138.4,141.4,134.3,141.4z"/>
	</g>
	<g>
		<path d="M293.3,469.3h-64c-8.8,0-16-7.2-16-16s7.2-16,16-16h64c8.8,0,16,7.2,16,16S302.2,469.3,293.3,469.3z"/>
	</g>
</g>
</svg>
