<?xml version="1.0" encoding="utf-8"?>
<!-- Generator: Adobe Illustrator 26.2.1, SVG Export Plug-In . SVG Version: 6.00 Build 0)  -->
<svg version="1.1" xmlns="http://www.w3.org/2000/svg" xmlns:xlink="http://www.w3.org/1999/xlink" x="0px" y="0px"
	 viewBox="0 0 512 512" style="enable-background:new 0 0 512 512;" xml:space="preserve">
<g id="Line_7">
</g>
<g id="Line_6">
</g>
<g id="Line_5">
</g>
<g id="Line_4">
</g>
<g id="Line_3">
</g>
<g id="Line_2">
</g>
<g id="Line_1">
</g>
<g id="C">
</g>
<g id="E">
</g>
<g id="X">
	<g>
		<path d="M432.9,253.2c-8.8,0-16,7.2-16,16v135c0,8.8,7.2,16,16,16s16-7.2,16-16v-135C448.9,260.4,441.7,253.2,432.9,253.2z"/>
		<path d="M373.9,330.6c-8.8,0-16,7.2-16,16V432c0,8.8,7.2,16,16,16s16-7.2,16-16v-85.4C389.9,337.7,382.7,330.6,373.9,330.6z"/>
		<path d="M315,264.7c-8.8,0-16,7.2-16,16v107.9c0,8.8,7.2,16,16,16s16-7.2,16-16V280.7C331,271.9,323.8,264.7,315,264.7z"/>
		<path d="M256,289.6c-8.8,0-16,7.2-16,16v54.5c0,8.8,7.2,16,16,16c8.8,0,16-7.2,16-16v-54.5C272,296.7,264.8,289.6,256,289.6z"/>
		<path d="M197,245.1c-8.8,0-16,7.2-16,16v128.1c0,8.8,7.2,16,16,16s16-7.2,16-16V261.1C213,252.3,205.9,245.1,197,245.1z"/>
		<path d="M138.1,280.6c-8.8,0-16,7.2-16,16v55.8c0,8.8,7.2,16,16,16s16-7.2,16-16v-55.8C154.1,287.8,146.9,280.6,138.1,280.6z"/>
		<path d="M79.1,330.6c-8.8,0-16,7.2-16,16V432c0,8.8,7.2,16,16,16s16-7.2,16-16v-85.4C95.1,337.7,88,330.6,79.1,330.6z"/>
		<path d="M121.8,96h36.6c8.8,0,16-7.2,16-16s-7.2-16-16-16h-36.6c-32.3,0-58.7,26.3-58.7,58.7v29.6c0,32.3,26.3,58.7,58.7,58.7
			h36.6c8.8,0,16-7.2,16-16s-7.2-16-16-16h-36.6c-14.7,0-26.7-12-26.7-26.7v-29.6C95.1,108,107.1,96,121.8,96z"/>
		<path d="M311.6,194.9c0-8.8-7.2-16-16-16h-63.3v-25.5H281c8.8,0,16-7.2,16-16s-7.2-16-16-16h-48.6V96h63.3c8.8,0,16-7.2,16-16
			s-7.2-16-16-16h-79.3c-8.8,0-16,7.2-16,16v114.9c0,8.8,7.2,16,16,16h79.3C304.5,210.9,311.6,203.8,311.6,194.9z"/>
		<path d="M412.6,137.5L446,89.1c5-7.3,3.2-17.2-4.1-22.3c-7.3-5-17.2-3.2-22.3,4.1l-26.5,38.4l-26.5-38.4c-5-7.3-15-9.1-22.3-4.1
			c-7.3,5-9.1,15-4.1,22.3l33.4,48.4l-33.4,48.4c-5,7.3-3.2,17.2,4.1,22.3c2.8,1.9,5.9,2.8,9.1,2.8c5.1,0,10.1-2.4,13.2-6.9
			l26.5-38.4l26.5,38.4c3.1,4.5,8.1,6.9,13.2,6.9c3.1,0,6.3-0.9,9.1-2.8c7.3-5,9.1-15,4.1-22.3L412.6,137.5z"/>
	</g>
</g>
</svg>
