<?xml version="1.0" encoding="utf-8"?>
<!-- Generator: Adobe Illustrator 26.2.1, SVG Export Plug-In . SVG Version: 6.00 Build 0)  -->
<svg version="1.1" id="Messages" xmlns="http://www.w3.org/2000/svg" xmlns:xlink="http://www.w3.org/1999/xlink" x="0px" y="0px"
	 viewBox="0 0 512 512" style="enable-background:new 0 0 512 512;" xml:space="preserve">
<style type="text/css">
	.st0{fill:none;stroke:#000000;stroke-width:32;stroke-linecap:round;stroke-miterlimit:10;}
</style>
<g>
	<g>
		<path d="M167.4,320c-4,0-8-1.5-11.1-4.5L127.9,288h-5.2C90.3,288,64,261.7,64,229.3V122.7C64,90.3,90.3,64,122.7,64h160
			c32.3,0,58.7,26.3,58.7,58.7v106.7c0,32.3-26.3,58.7-58.7,58.7h-77.3l-26.6,27.2C175.7,318.4,171.5,320,167.4,320z M122.7,96
			C108,96,96,108,96,122.7v106.7c0,14.7,12,26.7,26.7,26.7h11.7c4.2,0,8.2,1.6,11.1,4.5l21.5,20.9l20.2-20.6c3-3.1,7.1-4.8,11.4-4.8
			h84c14.7,0,26.7-12,26.7-26.7V122.7c0-14.7-12-26.7-26.7-26.7H122.7z"/>
	</g>
	<g>
		<path d="M344.6,448c-4.2,0-8.3-1.6-11.4-4.8L306.6,416h-77.3c-31.8,0-57.8-25.5-58.6-57.1c0-0.3,0-0.5,0-0.8v-0.7
			c0-8.8,7.2-16,16-16s16,7.2,16,16c0,14.7,12,26.7,26.7,26.7h84c4.3,0,8.4,1.7,11.4,4.8l20.2,20.6l21.5-20.9c3-2.9,7-4.5,11.1-4.5
			h11.7c14.7,0,26.7-12,26.7-26.7V250.7c0-14.7-12-26.7-26.7-26.7h-11c-8.8,0-16-7.2-16-16s7.2-16,16-16h11
			c32.3,0,58.7,26.3,58.7,58.7v106.7c0,32.3-26.3,58.7-58.7,58.7h-5.2l-28.3,27.5C352.7,446.5,348.6,448,344.6,448z"/>
	</g>
</g>
<g>
	<path class="st0" d="M132,133"/>
</g>
</svg>
