<?xml version="1.0" encoding="UTF-8"?>
<svg xmlns="http://www.w3.org/2000/svg" version="1.1" viewBox="0 0 512 512">
  <!-- Generator: Adobe Illustrator 29.1.0, SVG Export Plug-In . SVG Version: 2.1.0 Build 142)  -->
  <g id="Check">
    <path d="M256,469.33c-56.98,0-110.56-22.19-150.85-62.48s-62.48-93.87-62.48-150.85c0-28.79,5.64-56.73,16.77-83.04,3.44-8.14,12.83-11.95,20.97-8.5,8.14,3.44,11.95,12.83,8.5,20.97-9.45,22.35-14.24,46.09-14.24,70.58,0,99.99,81.35,181.33,181.33,181.33s181.33-81.35,181.33-181.33-81.35-181.33-181.33-181.33c-27.55,0-53.99,6.01-78.61,17.87-7.96,3.83-17.52.49-21.36-7.47-3.84-7.96-.49-17.52,7.47-21.36,28.98-13.96,60.1-21.05,92.5-21.05,56.98,0,110.56,22.19,150.85,62.48s62.48,93.87,62.48,150.85-22.19,110.56-62.48,150.85-93.87,62.48-150.85,62.48Z"/>
  </g>
  <g id="Check_Sign">
    <path d="M234.67,313.59c-4.24,0-8.31-1.69-11.31-4.69l-40.52-40.52c-6.25-6.25-6.25-16.38,0-22.63s16.38-6.25,22.63,0l29.21,29.21,71.88-71.87c6.25-6.25,16.38-6.25,22.63,0,6.25,6.25,6.25,16.38,0,22.63l-83.19,83.19c-3,3-7.07,4.69-11.31,4.69Z"/>
  </g>
</svg>