<?xml version="1.0" encoding="UTF-8"?>
<svg id="Electricty" xmlns="http://www.w3.org/2000/svg" version="1.1" viewBox="0 0 512 512">
  <!-- Generator: Adobe Illustrator 29.1.0, SVG Export Plug-In . SVG Version: 2.1.0 Build 142)  -->
  <path d="M410.67,174.04c8.84,0,16-7.16,16-16v-14.04c0-32.35-26.32-58.67-58.67-58.67h-18.56c-6.98-24.59-29.63-42.67-56.43-42.67h-74.03c-15.69,0-30.43,6.1-41.5,17.17l-.08.08c-7.14,7.23-12.18,15.96-14.86,25.42h-18.55c-32.35,0-58.67,26.32-58.67,58.67v266.67c0,32.35,26.32,58.67,58.67,58.67h224c32.35,0,58.67-26.32,58.67-58.67v-154.52c0-8.84-7.16-16-16-16s-16,7.16-16,16v154.52c0,14.7-11.96,26.67-26.67,26.67h-224c-14.7,0-26.67-11.96-26.67-26.67V144c0-14.7,11.96-26.67,26.67-26.67h18.54c.08.29.18.58.27.87.09.31.18.62.28.92.19.6.4,1.2.61,1.79.09.25.17.49.26.74.31.83.63,1.65.97,2.47.04.09.08.18.12.26.31.72.63,1.44.97,2.14.12.26.25.51.38.76.27.54.54,1.07.82,1.6.15.28.3.56.46.83.28.51.57,1.01.87,1.51.16.26.31.52.47.78.34.55.69,1.1,1.05,1.64.12.19.24.38.37.56.49.72,1,1.44,1.52,2.14.09.12.18.23.27.35.44.58.88,1.15,1.34,1.71.18.22.37.44.55.66.38.45.77.9,1.17,1.34.21.23.41.46.62.69.4.43.81.86,1.22,1.28.2.21.41.42.61.62.49.48.98.95,1.49,1.42.14.13.27.26.41.38.65.59,1.31,1.16,1.98,1.72.14.12.29.23.44.35.53.43,1.07.86,1.61,1.27.23.18.47.35.71.52.47.35.95.69,1.44,1.02.26.18.51.35.77.52.5.33,1,.65,1.5.96.24.15.48.31.73.45.62.38,1.25.74,1.89,1.09.13.07.26.15.39.22.77.42,1.56.82,2.35,1.21.21.1.42.19.62.29.59.28,1.18.55,1.78.81.28.12.57.24.85.36.54.22,1.09.44,1.63.65.3.11.6.23.9.33.57.2,1.14.4,1.72.58.28.09.55.18.83.27.76.23,1.52.45,2.29.65.1.02.19.05.28.08.87.22,1.74.42,2.62.61.26.05.52.1.79.15.63.12,1.26.24,1.89.34.32.05.65.1.98.14.59.08,1.18.16,1.77.23.33.04.67.07,1,.11.63.06,1.26.1,1.89.14.29.02.59.04.88.06.92.04,1.85.07,2.79.07h74.03c15.69,0,30.43-6.1,41.5-17.17.03-.03.05-.05.08-.08.81-.82,1.58-1.66,2.34-2.52.23-.26.45-.52.67-.79.53-.63,1.05-1.26,1.56-1.9.22-.29.45-.57.67-.86.55-.73,1.08-1.46,1.59-2.21.13-.19.26-.37.39-.56.62-.93,1.22-1.88,1.78-2.85.14-.25.28-.5.42-.74.42-.73.82-1.48,1.21-2.23.17-.33.33-.65.49-.98.36-.74.7-1.48,1.03-2.23.13-.29.26-.57.38-.86.43-1.02.84-2.06,1.21-3.1.05-.15.1-.31.15-.47.31-.9.6-1.81.86-2.72.04-.13.09-.26.13-.4h18.53c14.7,0,26.67,11.96,26.67,26.67v14.04c0,8.84,7.16,16,16,16ZM319.48,104.51c-.71,5.88-3.35,11.37-7.64,15.73-.26.26-.53.51-.79.75-.06.05-.11.11-.17.16-4.25,3.83-9.54,6.16-15.22,6.72-.87.09-1.76.13-2.65.13h-74.03c-14.7,0-26.67-11.96-26.67-26.67,0-7.06,2.78-13.77,7.83-18.91,5.02-5,11.71-7.75,18.83-7.75h74.03c14.7,0,26.67,11.96,26.67,26.67,0,1.07-.07,2.13-.2,3.18Z"/>
  <path d="M320,202.67h-128c-8.84,0-16,7.16-16,16s7.16,16,16,16h128c8.84,0,16-7.16,16-16s-7.16-16-16-16Z"/>
  <path d="M320,282.67h-128c-8.84,0-16,7.16-16,16s7.16,16,16,16h128c8.84,0,16-7.16,16-16s-7.16-16-16-16Z"/>
  <path d="M320,362.67h-128c-8.84,0-16,7.16-16,16s7.16,16,16,16h128c8.84,0,16-7.16,16-16s-7.16-16-16-16Z"/>
</svg>