<?xml version="1.0" encoding="utf-8"?>
<!-- Generator: Adobe Illustrator 26.2.1, SVG Export Plug-In . SVG Version: 6.00 Build 0)  -->
<svg version="1.1" xmlns="http://www.w3.org/2000/svg" xmlns:xlink="http://www.w3.org/1999/xlink" x="0px" y="0px"
	 viewBox="0 0 512 512" style="enable-background:new 0 0 512 512;" xml:space="preserve">
<g id="Minute">
</g>
<g id="Hour">
	<path d="M320.6,191.4c-6.2-6.2-16.4-6.2-22.6,0l-26,26v-84c0-8.8-7.2-16-16-16c-8.8,0-16,7.2-16,16V256c0,0,0,0,0,0
		c0,0.5,0,1,0.1,1.6c0,0.2,0.1,0.5,0.1,0.7c0,0.3,0.1,0.6,0.1,0.8c0.1,0.3,0.1,0.5,0.2,0.8c0.1,0.2,0.1,0.5,0.2,0.7
		c0.1,0.3,0.2,0.5,0.3,0.8c0.1,0.2,0.2,0.5,0.3,0.7c0.1,0.2,0.2,0.5,0.3,0.7c0.1,0.2,0.2,0.5,0.3,0.7c0.1,0.2,0.3,0.4,0.4,0.7
		c0.1,0.2,0.3,0.5,0.4,0.7c0.2,0.2,0.3,0.5,0.5,0.7c0.1,0.2,0.3,0.4,0.4,0.5c0.7,0.8,1.4,1.6,2.2,2.2c0.2,0.1,0.4,0.3,0.5,0.4
		c0.2,0.2,0.5,0.4,0.7,0.5c0.2,0.1,0.4,0.3,0.7,0.4c0.2,0.1,0.4,0.3,0.7,0.4c0.2,0.1,0.5,0.2,0.7,0.3c0.2,0.1,0.5,0.2,0.7,0.3
		c0.2,0.1,0.5,0.2,0.7,0.3c0.3,0.1,0.5,0.2,0.8,0.3c0.2,0.1,0.5,0.1,0.7,0.2c0.3,0.1,0.5,0.1,0.8,0.2c0.3,0.1,0.6,0.1,0.8,0.1
		c0.2,0,0.5,0.1,0.7,0.1c0.5,0.1,1.1,0.1,1.6,0.1s1.1,0,1.6-0.1c0.2,0,0.5-0.1,0.7-0.1c0.3,0,0.6-0.1,0.8-0.1
		c0.3-0.1,0.5-0.1,0.8-0.2c0.2-0.1,0.5-0.1,0.7-0.2c0.3-0.1,0.5-0.2,0.8-0.3c0.2-0.1,0.5-0.2,0.7-0.3c0.2-0.1,0.5-0.2,0.7-0.3
		c0.2-0.1,0.5-0.2,0.7-0.3c0.2-0.1,0.5-0.3,0.7-0.4c0.2-0.1,0.4-0.3,0.7-0.4c0.3-0.2,0.5-0.4,0.7-0.5c0.2-0.1,0.4-0.3,0.5-0.4
		c0.4-0.3,0.8-0.7,1.2-1.1l53.3-53.3C326.9,207.7,326.9,197.6,320.6,191.4z"/>
</g>
<g id="Frame">
	<g>
		<path d="M256,469.3c-57,0-110.6-22.2-150.8-62.5S42.7,313,42.7,256c0-117.6,95.7-213.3,213.3-213.3c57,0,110.6,22.2,150.8,62.5
			S469.3,199,469.3,256c0,26-4.6,51.3-13.7,75.4c-3.1,8.3-12.4,12.4-20.6,9.3c-8.3-3.1-12.4-12.4-9.3-20.6
			c7.7-20.5,11.7-42,11.7-64.1C437.3,156,356,74.7,256,74.7C156,74.7,74.7,156,74.7,256c0,100,81.3,181.3,181.3,181.3
			c35.2,0,69.3-10.1,98.7-29.2c7.4-4.8,17.3-2.7,22.1,4.7c4.8,7.4,2.7,17.3-4.7,22.1C337.6,457.5,297.4,469.3,256,469.3z"/>
	</g>
</g>
</svg>
