<?xml version="1.0" encoding="utf-8"?>
<!-- Generator: Adobe Illustrator 26.2.1, SVG Export Plug-In . SVG Version: 6.00 Build 0)  -->
<svg version="1.1" id="Layer_1" xmlns="http://www.w3.org/2000/svg" xmlns:xlink="http://www.w3.org/1999/xlink" x="0px" y="0px"
	 viewBox="0 0 512 512" style="enable-background:new 0 0 512 512;" xml:space="preserve">
<path d="M278.6,256l46.3-46.3c6.2-6.2,6.2-16.4,0-22.6c-6.2-6.2-16.4-6.2-22.6,0L256,233.4l-46.3-46.3c-6.2-6.2-16.4-6.2-22.6,0
	c-6.2,6.2-6.2,16.4,0,22.6l46.3,46.3l-46.3,46.3c-6.2,6.2-6.2,16.4,0,22.6c3.1,3.1,7.2,4.7,11.3,4.7s8.2-1.6,11.3-4.7l46.3-46.3
	l46.3,46.3c3.1,3.1,7.2,4.7,11.3,4.7s8.2-1.6,11.3-4.7c6.2-6.2,6.2-16.4,0-22.6L278.6,256z"/>
<g id="Circle">
	<g>
		<path d="M256,469.3c-117.6,0-213.3-95.7-213.3-213.3c0-117.6,95.7-213.3,213.3-213.3c117.6,0,213.3,95.7,213.3,213.3
			C469.3,373.6,373.6,469.3,256,469.3z M256,74.7C156,74.7,74.7,156,74.7,256c0,100,81.3,181.3,181.3,181.3
			c100,0,181.3-81.3,181.3-181.3C437.3,156,356,74.7,256,74.7z"/>
	</g>
</g>
</svg>
