<?xml version="1.0" encoding="utf-8"?>
<!-- Generator: Adobe Illustrator 26.2.1, SVG Export Plug-In . SVG Version: 6.00 Build 0)  -->
<svg version="1.1" xmlns="http://www.w3.org/2000/svg" xmlns:xlink="http://www.w3.org/1999/xlink" x="0px" y="0px"
	 viewBox="0 0 512 512" style="enable-background:new 0 0 512 512;" xml:space="preserve">
<g id="Line_1">
</g>
<g id="Line_2">
	<path d="M278.6,256L443.2,91.4c6.2-6.2,6.2-16.4,0-22.6c-6.2-6.2-16.4-6.2-22.6,0L256,233.4L91.4,68.8c-6.2-6.2-16.4-6.2-22.6,0
		c-6.2,6.2-6.2,16.4,0,22.6L233.4,256L68.8,420.6c-6.2,6.2-6.2,16.4,0,22.6c3.1,3.1,7.2,4.7,11.3,4.7s8.2-1.6,11.3-4.7L256,278.6
		l164.6,164.6c3.1,3.1,7.2,4.7,11.3,4.7s8.2-1.6,11.3-4.7c6.2-6.2,6.2-16.4,0-22.6L278.6,256z"/>
</g>
</svg>
