<?xml version="1.0" encoding="utf-8"?>
<!-- Generator: Adobe Illustrator 26.2.1, SVG Export Plug-In . SVG Version: 6.00 Build 0)  -->
<svg version="1.1" id="Line_1" xmlns="http://www.w3.org/2000/svg" xmlns:xlink="http://www.w3.org/1999/xlink" x="0px" y="0px"
	 viewBox="0 0 512 512" style="enable-background:new 0 0 512 512;" xml:space="preserve">
<g>
	<g>
		<path d="M353.2,426.3h-28.9c-8.8,0-16-7.2-16-16s7.2-16,16-16h28.9c46.1,0,83.6-37.5,83.6-83.6c0-32.7-19.2-62.6-49-76.1
			c-4.9-2.2-8.3-6.7-9.2-12c-4.6-28.8-19.4-55.3-41.7-74.5c-22.5-19.4-51.3-30-81-30s-58.5,10.7-81,30
			c-22.3,19.2-37.1,45.6-41.7,74.5c-0.8,5.3-4.3,9.8-9.2,12c-29.8,13.5-49,43.4-49,76.1c0,46.1,37.5,83.6,83.6,83.6h28.7
			c8.8,0,16,7.2,16,16s-7.2,16-16,16h-28.7c-63.8,0-115.6-51.9-115.6-115.6c0-42.3,23.3-81.3,60.1-101.4c7.1-33.1,25-63.2,50.8-85.5
			C182.4,99.4,218.6,86,256,86s73.6,13.4,101.9,37.8c25.9,22.3,43.7,52.4,50.8,85.5c36.8,20.1,60.1,59.1,60.1,101.4
			C468.8,374.4,416.9,426.3,353.2,426.3z"/>
	</g>
</g>
</svg>
