<?xml version="1.0" encoding="UTF-8"?>
<svg id="Layer_2" xmlns="http://www.w3.org/2000/svg" version="1.1" viewBox="0 0 512 512">
  <!-- Generator: Adobe Illustrator 29.1.0, SVG Export Plug-In . SVG Version: 2.1.0 Build 142)  -->
  <path d="M410.67,213.33h-48.39c-2.6-18.07-18.17-32-36.95-32h-104.84c11.84-33.99,16.78-66.14.3-107.28-3.29-8.2-12.6-12.19-20.8-8.9-8.2,3.29-12.19,12.6-8.9,20.8,14.23,35.52,8.13,61.97-4.66,95.38h-85.09c-20.59,0-37.33,16.75-37.33,37.33v8.03c0,8.84,7.16,16,16,16s16-7.16,16-16v-8.03c0-2.94,2.39-5.33,5.33-5.33h95.9s.06,0,.09,0c.04,0,.08,0,.12,0h127.89c2.94,0,5.33,2.39,5.33,5.33v138.67c0,32.35-26.32,58.67-58.67,58.67h-117.33c-32.35,0-58.67-26.32-58.67-58.67v-48.41c0-8.84-7.16-16-16-16s-16,7.16-16,16v48.41c0,49.99,40.67,90.67,90.67,90.67h117.33c48.2,0,87.73-37.81,90.51-85.33h48.16c20.59,0,37.33-16.75,37.33-37.33v-74.67c0-20.59-16.75-37.33-37.33-37.33ZM416,325.33c0,2.94-2.39,5.33-5.33,5.33h-48v-85.33h48c2.94,0,5.33,2.39,5.33,5.33v74.67Z"/>
  <path d="M150.32,169.44c1.95.78,3.96,1.15,5.94,1.15,6.35,0,12.35-3.8,14.86-10.05,8.42-21.01,8.42-44.15,0-65.15-3.29-8.2-12.6-12.19-20.8-8.9-8.2,3.29-12.19,12.6-8.9,20.8,5.34,13.33,5.34,28.02,0,41.35-3.29,8.2.7,17.52,8.9,20.8Z"/>
  <path d="M256.98,169.44c1.95.78,3.96,1.15,5.94,1.15,6.35,0,12.35-3.8,14.86-10.05,8.42-21.01,8.42-44.15,0-65.15-3.29-8.2-12.6-12.19-20.8-8.9-8.2,3.29-12.19,12.6-8.9,20.8,5.34,13.33,5.34,28.02,0,41.35-3.29,8.2.7,17.52,8.9,20.8Z"/>
</svg>