<?xml version="1.0" encoding="UTF-8"?>
<svg xmlns="http://www.w3.org/2000/svg" version="1.1" viewBox="0 0 512 512">
  <!-- Generator: Adobe Illustrator 29.1.0, SVG Export Plug-In . SVG Version: 2.1.0 Build 142)  -->
  <g id="Cog">
    <path d="M256,469.33c-3.93,0-8.04-.14-12.21-.43-16.47-1.11-30.34-13.31-33.75-29.66l-8.1-38.91c-3.29-1.24-6.57-2.59-9.78-4.06l-33.08,21.68c-14.19,9.3-32.88,7.91-45.44-3.37-5.68-5.1-11.14-10.56-16.24-16.24-11.29-12.57-12.67-31.26-3.37-45.44l21.68-33.08c-1.46-3.21-2.82-6.48-4.06-9.78l-38.91-8.09c-16.35-3.4-28.54-17.28-29.66-33.75-.28-4.18-.43-8.29-.43-12.22s.14-8.03.43-12.22c1.12-16.47,13.31-30.34,29.66-33.75l38.91-8.1c1.24-3.3,2.59-6.57,4.06-9.78l-21.68-33.08c-9.3-14.19-7.91-32.87,3.37-45.44,5.1-5.68,10.56-11.14,16.24-16.24,12.57-11.29,31.26-12.67,45.44-3.37l33.08,21.68c3.21-1.46,6.48-2.82,9.78-4.06l8.1-38.91c3.4-16.35,17.28-28.54,33.74-29.66,4.18-.28,8.29-.43,12.22-.43s8.03.14,12.21.43c16.47,1.12,30.34,13.31,33.75,29.66l8.1,38.91c3.3,1.24,6.57,2.59,9.78,4.06l33.08-21.68c14.19-9.3,32.88-7.91,45.44,3.37,5.68,5.1,11.14,10.56,16.24,16.24,11.29,12.57,12.67,31.25,3.37,45.44l-21.68,33.08c1.46,3.21,2.82,6.48,4.06,9.78l38.91,8.1c16.35,3.4,28.54,17.28,29.66,33.74.28,4.18.43,8.29.43,12.22s-.14,8.04-.43,12.21c-1.11,16.47-13.31,30.34-29.66,33.75h0s-38.91,8.1-38.91,8.1c-1.24,3.29-2.59,6.57-4.06,9.78l21.68,33.08c9.3,14.19,7.91,32.88-3.37,45.44-5.1,5.68-10.56,11.14-16.24,16.24-12.57,11.29-31.25,12.67-45.44,3.37l-33.08-21.68c-3.21,1.46-6.48,2.82-9.78,4.06l-8.09,38.91c-3.4,16.35-17.28,28.54-33.75,29.66-4.18.28-8.29.43-12.21.43ZM191.65,363.51c3.97,0,7.97.89,11.74,2.7,3.87,1.85,7.88,3.52,11.9,4.94,8.97,3.17,15.46,10.53,17.36,19.69l8.72,41.89c.48,2.32,2.41,4.1,4.58,4.25,7.02.48,13.08.48,20.11,0,2.17-.15,4.09-1.93,4.58-4.25l8.72-41.89c1.91-9.16,8.4-16.52,17.36-19.69,4.03-1.43,8.04-3.09,11.91-4.94,8.58-4.11,18.38-3.49,26.22,1.64l35.62,23.35c2.06,1.35,4.74,1.18,6.52-.42,4.83-4.34,9.47-8.98,13.81-13.81,1.6-1.78,1.77-4.46.42-6.52l-23.35-35.63c-5.14-7.83-5.75-17.63-1.64-26.22,1.85-3.87,3.51-7.87,4.94-11.9,3.17-8.97,10.53-15.46,19.69-17.36l41.9-8.72c2.32-.48,4.1-2.41,4.25-4.58.24-3.51.35-6.8.35-10.06s-.12-6.59-.35-10.06c-.15-2.17-1.93-4.09-4.25-4.58l-41.89-8.72c-9.16-1.91-16.52-8.4-19.69-17.36-1.42-4.03-3.09-8.03-4.94-11.9-4.11-8.59-3.49-18.39,1.64-26.22l23.35-35.62c1.35-2.06,1.18-4.74-.42-6.52-4.33-4.83-8.98-9.47-13.81-13.81-1.78-1.6-4.46-1.77-6.52-.42l-35.63,23.35c-7.83,5.13-17.63,5.75-26.22,1.64-3.87-1.85-7.87-3.51-11.91-4.94-8.96-3.17-15.45-10.53-17.36-19.69l-8.72-41.9c-.48-2.32-2.41-4.1-4.58-4.25-7.03-.48-13.08-.48-20.11,0-2.17.15-4.09,1.93-4.58,4.25l-8.72,41.89c-1.91,9.16-8.4,16.52-17.36,19.69-4.03,1.43-8.04,3.09-11.9,4.94-8.58,4.11-18.38,3.49-26.22-1.64l-35.63-23.36c-2.06-1.35-4.74-1.18-6.52.42-4.83,4.34-9.47,8.98-13.81,13.81-1.6,1.78-1.77,4.46-.42,6.52l23.35,35.63c5.13,7.83,5.75,17.63,1.64,26.22-1.85,3.87-3.51,7.87-4.94,11.91-3.17,8.96-10.53,15.45-19.69,17.36l-41.89,8.72c-2.32.48-4.1,2.41-4.25,4.58-.24,3.52-.35,6.81-.35,10.05s.12,6.54.35,10.05c.15,2.17,1.93,4.09,4.25,4.58l41.89,8.72c9.16,1.91,16.52,8.4,19.69,17.36,1.43,4.03,3.09,8.04,4.94,11.9,4.11,8.58,3.49,18.38-1.64,26.22l-23.36,35.63c-1.35,2.06-1.18,4.74.42,6.52,4.34,4.83,8.98,9.47,13.81,13.81,1.78,1.6,4.46,1.77,6.52.42l35.63-23.35c4.39-2.88,9.41-4.34,14.48-4.34Z"/>
  </g>
  <g id="Inside">
    <g>
      <path d="M256,346.67c-49.99,0-90.67-40.67-90.67-90.67s40.67-90.67,90.67-90.67c8.84,0,16,7.16,16,16s-7.16,16-16,16c-32.35,0-58.67,26.32-58.67,58.67s26.32,58.67,58.67,58.67,58.67-26.32,58.67-58.67c0-9.11-2.02-17.83-6.02-25.92-3.91-7.92-.66-17.52,7.27-21.43,7.92-3.91,17.52-.66,21.43,7.27,6.18,12.53,9.32,26.02,9.32,40.08,0,49.99-40.67,90.67-90.67,90.67Z"/>
      <path d="M256,234.67c-11.76,0-21.33,9.57-21.33,21.33s9.57,21.33,21.33,21.33,21.33-9.57,21.33-21.33-9.57-21.33-21.33-21.33Z"/>
    </g>
  </g>
</svg>