<?xml version="1.0" encoding="UTF-8"?>
<svg id="Handle" xmlns="http://www.w3.org/2000/svg" version="1.1" viewBox="0 0 512 512">
  <!-- Generator: Adobe Illustrator 29.1.0, SVG Export Plug-In . SVG Version: 2.1.0 Build 142)  -->
  <path d="M380.61,240.97l-90.57-90.57v-34.56c0-28.72-23.37-52.09-52.09-52.09-8.84,0-16,7.16-16,16s7.16,16,16,16c11.08,0,20.09,9.01,20.09,20.09v6.02c-8.36-4.5-17.76-6.9-27.53-6.9-15.54,0-30.15,6.05-41.14,17.04l-7.03,7.03c-6.25,6.25-6.25,16.38,0,22.63,6.25,6.25,16.38,6.25,22.63,0l7.03-7.03c4.94-4.94,11.52-7.67,18.51-7.67s13.56,2.72,18.51,7.67l9.02,9.02v73.33c0,8.84,7.16,16,16,16s16-7.16,16-16v-41.33l67.94,67.94c9.35,9.35,10.13,24.07,2.35,34.32H100.71c-7.78-10.25-7-24.97,2.35-34.32l54.27-54.27c6.25-6.25,6.25-16.38,0-22.63-6.25-6.25-16.38-6.25-22.63,0l-54.27,54.27c-22.68,22.68-22.68,59.59,0,82.27l108.96,108.96c10.99,10.99,25.6,17.04,41.14,17.04s30.15-6.05,41.14-17.04l108.96-108.96c22.68-22.68,22.68-59.59,0-82.27ZM249.03,409.57c-4.94,4.94-11.52,7.67-18.51,7.67s-13.56-2.72-18.51-7.67l-79.65-79.65h196.32l-79.65,79.65Z"/>
  <path d="M440.19,369.73c-2.93-8.29-11.84-33.51-32-33.51s-29.07,25.22-32,33.51c-4.66,13.19-7.92,28.85-7.92,38.08,0,22.01,17.91,39.92,39.92,39.92s39.92-17.91,39.92-39.92c0-9.23-3.26-24.89-7.92-38.08ZM408.2,415.73c-4.37,0-7.92-3.55-7.92-7.92,0-3.21,1.39-12.3,4.47-22.46,1.2-3.95,2.38-7.17,3.47-9.76,4.08,9.98,7.9,25.11,7.9,32.22,0,4.37-3.55,7.92-7.92,7.92Z"/>
</svg>