<?xml version="1.0" encoding="UTF-8"?>
<svg id="Screen" xmlns="http://www.w3.org/2000/svg" version="1.1" viewBox="0 0 512 512">
  <!-- Generator: Adobe Illustrator 29.1.0, SVG Export Plug-In . SVG Version: 2.1.0 Build 142)  -->
  <path d="M410.67,341.33H101.33c-32.35,0-58.67-26.32-58.67-58.67v-138.67c0-32.35,26.32-58.67,58.67-58.67h309.33c32.35,0,58.67,26.32,58.67,58.67v9.25c0,8.84-7.16,16-16,16s-16-7.16-16-16v-9.25c0-14.7-11.96-26.67-26.67-26.67H101.33c-14.7,0-26.67,11.96-26.67,26.67v138.67c0,14.7,11.96,26.67,26.67,26.67h309.33c14.7,0,26.67-11.96,26.67-26.67v-43.8c0-8.84,7.16-16,16-16s16,7.16,16,16v43.8c0,32.35-26.32,58.67-58.67,58.67Z"/>
  <path d="M304,160h-96c-8.84,0-16-7.16-16-16s7.16-16,16-16h96c8.84,0,16,7.16,16,16s-7.16,16-16,16Z"/>
  <path d="M299.58,426.67h-87.16c-10.82,0-20.5-6.46-24.64-16.46s-1.87-21.41,5.78-29.06l21.33-21.33c5.04-5.04,11.73-7.81,18.86-7.81h44.5c7.12,0,13.82,2.77,18.85,7.81l21.34,21.34c7.65,7.65,9.92,19.06,5.78,29.06-4.14,10-13.81,16.46-24.64,16.46ZM295.81,403.77h0,0ZM225.29,394.67h61.41l-10.67-10.67h-40.08l-10.67,10.67Z"/>
</svg>