<?xml version="1.0" encoding="UTF-8"?>
<svg id="Pointer" xmlns="http://www.w3.org/2000/svg" version="1.1" viewBox="0 0 512 512">
  <!-- Generator: Adobe Illustrator 29.1.0, SVG Export Plug-In . SVG Version: 2.1.0 Build 142)  -->
  <path d="M406.85,105.15c-40.29-40.29-93.87-62.48-150.85-62.48-16.67,0-33.28,1.93-49.36,5.74-8.6,2.04-13.92,10.66-11.88,19.26s10.66,13.92,19.26,11.88c8.52-2.02,17.21-3.41,25.98-4.18v36.63c0,8.84,7.16,16,16,16s16-7.16,16-16v-36.62c87.25,7.66,156.95,77.37,164.62,164.62h-36.62c-8.84,0-16,7.16-16,16s7.16,16,16,16h36.62c-7.66,87.25-77.37,156.95-164.62,164.62v-36.62c0-8.84-7.16-16-16-16s-16,7.16-16,16v36.62c-87.25-7.66-156.95-77.37-164.62-164.62h36.62c8.84,0,16-7.16,16-16s-7.16-16-16-16h-36.64c2.97-34.42,15.54-66.8,36.81-94.45,5.39-7,4.08-17.05-2.93-22.44s-17.05-4.08-22.44,2.93c-28.88,37.54-44.14,82.48-44.14,129.96,0,56.98,22.19,110.56,62.48,150.85s93.87,62.48,150.85,62.48,110.56-22.19,150.85-62.48,62.48-93.87,62.48-150.85-22.19-110.56-62.48-150.85Z"/>
  <path d="M173.42,354.59c2.3,0,4.62-.5,6.8-1.52l112.38-52.8c3.38-1.59,6.09-4.3,7.68-7.68l52.8-112.38c2.87-6.1,1.6-13.35-3.17-18.12-4.77-4.77-12.02-6.03-18.12-3.17l-112.38,52.8c-3.38,1.59-6.09,4.3-7.68,7.68l-52.8,112.38c-2.87,6.1-1.6,13.35,3.17,18.12,3.07,3.07,7.16,4.69,11.32,4.69ZM238.24,238.24l67.01-31.48-31.48,67.01-67.01,31.48,31.48-67.01Z"/>
</svg>