<?xml version="1.0" encoding="utf-8"?>
<!-- Generator: Adobe Illustrator 26.2.1, SVG Export Plug-In . SVG Version: 6.00 Build 0)  -->
<svg version="1.1" xmlns="http://www.w3.org/2000/svg" xmlns:xlink="http://www.w3.org/1999/xlink" x="0px" y="0px"
	 viewBox="0 0 512 512" style="enable-background:new 0 0 512 512;" xml:space="preserve">
<g id="Page_1">
</g>
<g id="Page_2">
	<g>
		<path d="M271.4,139.8H145c-32.5,0-59,26.5-59,59v210.9c0,32.5,26.5,59,59,59h126.4c32.5,0,59-26.5,59-59V198.8
			C330.4,166.3,303.9,139.8,271.4,139.8z M298.4,409.7c0,14.9-12.1,27-27,27H145c-14.9,0-27-12.1-27-27V198.8c0-14.9,12.1-27,27-27
			h126.4c14.9,0,27,12.1,27,27V409.7z"/>
		<path d="M367.2,43.4h-126c-32.3,0-58.7,26.3-58.7,58.7c0,8.8,7.2,16,16,16s16-7.2,16-16c0-14.7,12-26.7,26.7-26.7h126
			c14.7,0,26.7,12,26.7,26.7v212.3c0,14.7-12,26.7-26.7,26.7c-8.8,0-16,7.2-16,16s7.2,16,16,16c32.3,0,58.7-26.3,58.7-58.7V102.1
			C425.9,69.8,399.6,43.4,367.2,43.4z"/>
	</g>
</g>
</svg>
