<?xml version="1.0" encoding="UTF-8"?>
<svg id="Crown" xmlns="http://www.w3.org/2000/svg" version="1.1" viewBox="0 0 512 512">
  <!-- Generator: Adobe Illustrator 29.1.0, SVG Export Plug-In . SVG Version: 2.1.0 Build 142)  -->
  <path d="M410.67,181.33h-5.33v-37.33c0-32.35-26.32-58.67-58.67-58.67h-19.41c-8.84,0-16,7.16-16,16s7.16,16,16,16h19.41c14.7,0,26.67,11.96,26.67,26.67v128c0,14.7-11.96,26.67-26.67,26.67H101.33c-14.7,0-26.67-11.96-26.67-26.67v-128c0-14.7,11.96-26.67,26.67-26.67h150.64c8.84,0,16-7.16,16-16s-7.16-16-16-16H101.33c-32.35,0-58.67,26.32-58.67,58.67v128c0,32.35,26.32,58.67,58.67,58.67h5.33v37.33c0,32.35,26.32,58.67,58.67,58.67h245.33c32.35,0,58.67-26.32,58.67-58.67v-128c0-32.35-26.32-58.67-58.67-58.67ZM346.67,330.67c32.35,0,58.67-26.32,58.67-58.67v-58.67h5.33c14.7,0,26.67,11.96,26.67,26.67v106.67H138.67v-16h208ZM410.67,394.67h-245.33c-10.91,0-20.31-6.59-24.43-16h294.2c-4.12,9.41-13.52,16-24.43,16Z"/>
  <path d="M192,163.8c0-13.86-11.27-25.13-25.13-25.13h-45.74c-13.86,0-25.13,11.27-25.13,25.13v45.74c0,13.86,11.27,25.13,25.13,25.13h45.74c13.86,0,25.13-11.27,25.13-25.13v-45.74ZM160,202.67h-32v-32h32v32Z"/>
  <path d="M112,246.35c-8.84,0-16,7.16-16,16s7.16,16,16,16h64c8.84,0,16-7.16,16-16s-7.16-16-16-16h-64Z"/>
  <path d="M202.67,261.33c0,8.84,7.16,16,16,16h64c8.84,0,16-7.16,16-16s-7.16-16-16-16h-64c-8.84,0-16,7.16-16,16Z"/>
</svg>