<?xml version="1.0" encoding="utf-8"?>
<!-- Generator: Adobe Illustrator 26.2.1, SVG Export Plug-In . SVG Version: 6.00 Build 0)  -->
<svg version="1.1" id="Crown" xmlns="http://www.w3.org/2000/svg" xmlns:xlink="http://www.w3.org/1999/xlink" x="0px" y="0px"
	 viewBox="0 0 512 512" style="enable-background:new 0 0 512 512;" xml:space="preserve">
<g>
	<g>
		<path d="M376,426.7H136c-27.9,0-50.7-22.7-50.7-50.7s22.7-50.7,50.7-50.7h240c27.9,0,50.7,22.7,50.7,50.7S403.9,426.7,376,426.7z
			 M136,357.3c-10.3,0-18.7,8.4-18.7,18.7s8.4,18.7,18.7,18.7h240c10.3,0,18.7-8.4,18.7-18.7s-8.4-18.7-18.7-18.7H136z"/>
	</g>
	<g>
		<path d="M376.1,309.3H135.9c-26.2,0-49.4-17.6-56.5-42.8L43.3,137.7c-1.8-6.5,0.6-13.4,6-17.3c5.4-3.9,12.8-4,18.3-0.3l88.2,59.7
			L244.7,91c6.2-6.2,16.4-6.2,22.6,0l23.1,23.1c6.3,6.2,6.3,16.4,0,22.6s-16.4,6.3-22.6,0L256,124.9l-86.9,86.8
			c-5.4,5.4-13.9,6.2-20.3,1.9l-62.9-42.6l24.4,86.8c3.2,11.5,13.8,19.5,25.7,19.5h240.2c11.9,0,22.5-8,25.7-19.5l24.4-86.8
			l-62.9,42.6c-6.3,4.3-14.9,3.5-20.3-1.9L318.2,187c-6.3-6.2-6.3-16.4,0-22.6c6.2-6.3,16.4-6.3,22.6,0l15.4,15.4l88.2-59.7
			c5.6-3.8,12.9-3.7,18.3,0.3c5.4,3.9,7.9,10.8,6,17.3l-36.2,128.9C425.5,291.7,402.3,309.3,376.1,309.3z"/>
	</g>
</g>
</svg>
