<?xml version="1.0" encoding="UTF-8"?>
<svg id="Layer_1" xmlns="http://www.w3.org/2000/svg" version="1.1" viewBox="0 0 512 512">
  <!-- Generator: Adobe Illustrator 29.1.0, SVG Export Plug-In . SVG Version: 2.1.0 Build 142)  -->
  <path d="M442.02,104.41c-7.05-10.75-18.93-17.16-31.77-17.16h-12.98c-1.7-4.06-4.11-7.84-7.16-11.12-7.18-7.71-17.34-12.13-27.88-12.13h-111.71c-8.84,0-16,7.16-16,16s7.16,16,16,16h111.71c1.69,0,3.32.71,4.47,1.94.73.79,1.58,2.11,1.45,3.95l-.02.27c-.03.39-.06.78-.09,1.17-1.35,18.87-4.34,37.35-8.8,54.73-.07.26-.13.53-.2.79-.01.05-.02.09-.04.14-2.8,10.73-6.16,21.04-10.05,30.75-17.02,42.5-43.41,72.34-72.46,81.9-13.32,4.44-27.61,4.46-41.04-.02-28.99-9.54-55.38-39.39-72.4-81.89-10.42-25.99-17.05-56.28-19.18-87.58l-.02-.29c-.12-1.83.72-3.15,1.45-3.93,1.15-1.23,2.78-1.94,4.47-1.94h15.03c8.84,0,16-7.16,16-16s-7.16-16-16-16h-15.03c-10.53,0-20.69,4.42-27.88,12.13-3.06,3.28-5.47,7.06-7.17,11.12h-12.98c-12.84,0-24.72,6.42-31.77,17.16-7.04,10.73-8.2,24.15-3.1,35.9,11.56,26.65,35.9,50.31,68.86,67.09,18.6,43.52,45.74,74.83,77.6,89.79v65.48h-44.62c-22.45,0-40.71,18.26-40.71,40.71v3.92c0,22.45,18.26,40.71,40.71,40.71h174.58c22.45,0,40.71-18.26,40.71-40.71v-3.92c0-22.45-18.26-40.71-40.71-40.71h-44.62v-65.48c31.88-14.99,59.01-46.29,77.6-89.79,32.96-16.78,57.29-40.43,68.86-67.09,5.1-11.75,3.94-25.17-3.1-35.9ZM96.23,127.58c-1.1-2.54-.16-4.6.5-5.61.67-1.02,2.2-2.72,5.02-2.72h11.53c.12,1.11.26,2.21.39,3.31.06.47.11.93.17,1.4.24,1.92.49,3.84.76,5.75.07.51.15,1.01.22,1.52.21,1.43.42,2.86.65,4.29.1.66.21,1.32.32,1.98.22,1.32.44,2.64.68,3.96.11.62.22,1.24.33,1.86.31,1.68.62,3.35.95,5.02.04.22.08.44.13.66.37,1.87.77,3.73,1.17,5.59.12.56.25,1.12.38,1.68.19.83.37,1.66.56,2.49-10.83-9.5-18.94-20.06-23.76-31.17ZM352,403.38v3.92c0,4.8-3.91,8.71-8.71,8.71h-174.58c-4.8,0-8.71-3.91-8.71-8.71v-3.92c0-4.8,3.91-8.71,8.71-8.71h174.58c4.8,0,8.71,3.91,8.71,8.71ZM245.33,362.67v-56.27c3.54.39,7.1.61,10.67.61s7.13-.21,10.67-.61v56.27h-21.33ZM415.77,127.58c-4.82,11.11-12.93,21.68-23.76,31.17.22-.94.43-1.89.64-2.84.09-.4.18-.8.27-1.2.84-3.84,1.62-7.72,2.33-11.63.07-.41.15-.82.22-1.23.28-1.57.55-3.15.81-4.74.07-.45.15-.89.22-1.34.28-1.78.56-3.57.81-5.37.02-.17.05-.34.07-.51.29-2.05.56-4.11.82-6.17.02-.17.04-.34.06-.5.16-1.32.32-2.65.47-3.98h11.53c2.81,0,4.35,1.7,5.02,2.72.66,1,1.6,3.07.5,5.61Z"/>
</svg>