<?xml version="1.0" encoding="UTF-8"?>
<svg id="Layer_1" xmlns="http://www.w3.org/2000/svg" version="1.1" viewBox="0 0 512 512">
  <!-- Generator: Adobe Illustrator 29.1.0, SVG Export Plug-In . SVG Version: 2.1.0 Build 142)  -->
  <g id="Danger">
    <path d="M410.8,448.2H101.2c-13,0-24.9-6.6-31.8-17.7-6.9-11.1-7.5-24.7-1.6-36.3L222.6,84.5c6.4-12.7,19.2-20.6,33.4-20.6h0c14.2,0,27,7.9,33.4,20.6l32.2,64.4c4,7.9.7,17.5-7.2,21.5s-17.5.7-21.5-7.2l-32.2-64.4c-1.3-2.6-3.5-2.9-4.8-2.9s-3.5.4-4.8,2.9L96.4,408.4c-1.2,2.3-.3,4.2.2,5.2s1.9,2.5,4.5,2.5h309.7c2.6,0,4-1.6,4.5-2.5.6-.9,1.4-2.9.2-5.2l-83.7-167.4c-4-7.9-.7-17.5,7.2-21.5,7.9-4,17.5-.7,21.5,7.2l83.7,167.4c5.8,11.7,5.2,25.2-1.6,36.3-6.9,11.1-18.7,17.7-31.8,17.7Z"/>
  </g>
  <g id="Sign">
    <path d="M256,330.9c-8.8,0-16-7.2-16-16v-112.6c0-8.8,7.2-16,16-16s16,7.2,16,16v112.6c0,8.8-7.2,16-16,16Z"/>
    <path d="M256,384.7c-8.8,0-16-7.2-16-16v-7.6c0-8.8,7.2-16,16-16s16,7.2,16,16v7.6c0,8.8-7.2,16-16,16Z"/>
  </g>
</svg>