<?xml version="1.0" encoding="utf-8"?>
<!-- Generator: Adobe Illustrator 26.2.1, SVG Export Plug-In . SVG Version: 6.00 Build 0)  -->
<svg version="1.1" xmlns="http://www.w3.org/2000/svg" xmlns:xlink="http://www.w3.org/1999/xlink" x="0px" y="0px"
	 viewBox="0 0 512 512" style="enable-background:new 0 0 512 512;" xml:space="preserve">
<g id="Circle_8">
</g>
<g id="Circle_7">
</g>
<g id="Circle_6">
</g>
<g id="Circle_5">
</g>
<g id="Circle_4">
</g>
<g id="Circle_3">
</g>
<g id="Circle_2">
</g>
<g id="Circle_1_00000111171176146992821870000011492201707293970336_">
</g>
<g id="Circle">
</g>
<g id="D">
	<g>
		<path d="M469.3,256.2c0-16-10.3-29.6-24.6-34.5c-4.9-27.3-15.6-52.5-30.7-74.5c6.7-13.6,4.3-30.6-7-41.9
			c-11.3-11.3-28.1-13.6-41.7-7.1c-22-15.3-47.2-26.1-74.5-31.1c-5-14.2-18.5-24.5-34.5-24.5c-15.9,0-29.4,10.2-34.5,24.4
			c-27.3,4.9-52.6,15.7-74.6,30.9c-13.6-6.6-30.5-4.3-41.8,7c-11.3,11.3-13.7,28.2-7,41.8c-15.2,21.9-26,47.2-30.9,74.4
			c-14.4,4.9-24.7,18.5-24.7,34.6c0,16,10.3,29.6,24.7,34.6c2.5,13.9,6.6,27.5,12.2,40.7c5,11.8,11.2,23,18.5,33.6
			c-6.8,13.7-4.5,30.7,6.9,42.1c14.3,14.3,37.4,14.3,51.7,0c14.3-14.3,14.3-37.4,0-51.7c-9-9-21.6-12.3-33.2-10
			c-5.7-8.4-10.5-17.3-14.5-26.6c-4.4-10.4-7.7-21.1-9.8-32c10-6.5,16.6-17.8,16.6-30.6c0-12.8-6.6-24.1-16.6-30.6
			c4.2-21.3,12.6-41.2,24.3-58.6c11.7,2.5,24.4-0.8,33.5-9.9c9.1-9.1,12.4-21.8,9.9-33.5c17.4-11.7,37.2-20.1,58.5-24.3
			c6.5,10.1,17.9,16.9,30.8,16.9c12.9,0,24.2-6.7,30.7-16.8c21.3,4.2,41.1,12.6,58.5,24.4c-2.5,11.7,0.7,24.5,9.9,33.6
			c9.1,9.1,21.7,12.4,33.4,9.9c11.7,17.4,20.1,37.3,24.2,58.6c-10,6.5-16.7,17.8-16.7,30.7c0,12.8,6.6,24,16.5,30.6
			c-4.2,21.3-12.7,41.2-24.5,58.6c-11.6-2.4-24.2,0.9-33.2,10c-9,9-12.3,21.5-10,33.1c-17.5,11.7-37.3,20.1-58.7,24.2
			c-6.5-9.9-17.8-16.4-30.5-16.4c-20.2,0-36.6,16.4-36.6,36.6c0,20.2,16.4,36.6,36.6,36.6c16.1,0,29.8-10.4,34.6-24.9
			c27.1-4.9,52.2-15.6,74-30.6c13.7,6.9,30.8,4.6,42.3-6.8c11.4-11.4,13.7-28.4,6.9-42.1c15.2-21.8,25.9-47,31-74.1
			C459,286,469.3,272.3,469.3,256.2z"/>
		<path d="M250,347.6c38.6,0,70.1-31.4,70.1-70.1v-43.1c0-38.6-31.4-70.1-70.1-70.1h-20c-21,0-38,17.1-38,38v107.2
			c0,21,17.1,38,38,38H250z M223.9,309.6V202.4c0-3.3,2.7-6,6-6h20c21,0,38.1,17.1,38.1,38.1v43.1c0,21-17.1,38.1-38.1,38.1h-20
			C226.6,315.6,223.9,312.9,223.9,309.6z"/>
	</g>
</g>
</svg>
