<?xml version="1.0" encoding="utf-8"?>
<!-- Generator: Adobe Illustrator 26.2.1, SVG Export Plug-In . SVG Version: 6.00 Build 0)  -->
<svg version="1.1" xmlns="http://www.w3.org/2000/svg" xmlns:xlink="http://www.w3.org/1999/xlink" x="0px" y="0px"
	 viewBox="0 0 512 512" style="enable-background:new 0 0 512 512;" xml:space="preserve">
<g id="Line_7">
</g>
<g id="Line_6">
</g>
<g id="Line_5">
</g>
<g id="Line_4">
</g>
<g id="Line_3">
</g>
<g id="Line_2">
</g>
<g id="Line_1">
</g>
<g id="X">
</g>
<g id="E">
</g>
<g id="D">
	<g>
		<path d="M432.7,312.4c-8.8,0-16,7.2-16,16v103.2c0,8.8,7.2,16,16,16s16-7.2,16-16V328.4C448.7,319.6,441.6,312.4,432.7,312.4z"/>
		<path d="M379.8,366.1c-8.8,0-16,7.2-16,16v49.5c0,8.8,7.2,16,16,16s16-7.2,16-16v-49.5C395.8,373.3,388.6,366.1,379.8,366.1z"/>
		<path d="M314.8,280.3c-8.8,0-16,7.2-16,16v107.4c0,8.8,7.2,16,16,16s16-7.2,16-16V296.3C330.8,287.4,323.7,280.3,314.8,280.3z"/>
		<path d="M255.9,244.8c-8.8,0-16,7.2-16,16v99c0,8.8,7.2,16,16,16c8.8,0,16-7.2,16-16v-99C271.9,251.9,264.7,244.8,255.9,244.8z"/>
		<path d="M196.9,316.6c-8.8,0-16,7.2-16,16v99c0,8.8,7.2,16,16,16s16-7.2,16-16v-99C212.9,323.8,205.8,316.6,196.9,316.6z"/>
		<path d="M138,280.3c-8.8,0-16,7.2-16,16v55.8c0,8.8,7.2,16,16,16s16-7.2,16-16v-55.8C154,287.4,146.8,280.3,138,280.3z"/>
		<path d="M79,244.8c-8.8,0-16,7.2-16,16v126.9c0,8.8,7.2,16,16,16s16-7.2,16-16V260.8C95,251.9,87.9,244.8,79,244.8z"/>
		<path d="M412.5,137.1l33.4-48.4c5-7.3,3.2-17.2-4.1-22.3c-7.3-5-17.2-3.2-22.3,4.1l-26.5,38.4l-26.5-38.4c-5-7.3-15-9.1-22.3-4.1
			s-9.1,15-4.1,22.3l33.4,48.4l-33.4,48.4c-5,7.3-3.2,17.2,4.1,22.3c2.8,1.9,5.9,2.8,9.1,2.8c5.1,0,10.1-2.4,13.2-6.9l26.5-38.4
			l26.5,38.4c3.1,4.5,8.1,6.9,13.2,6.9c3.1,0,6.3-0.9,9.1-2.8c7.3-5,9.1-15,4.1-22.3L412.5,137.1z"/>
		<path d="M311.5,194.6c0-8.8-7.2-16-16-16h-63.3v-25.5h48.6c8.8,0,16-7.2,16-16s-7.2-16-16-16h-48.6V95.7h63.3c8.8,0,16-7.2,16-16
			s-7.2-16-16-16h-79.3c-8.8,0-16,7.2-16,16v114.9c0,8.8,7.2,16,16,16h79.3C304.4,210.6,311.5,203.4,311.5,194.6z"/>
		<path d="M115.3,63.7H79c-8.8,0-16,7.2-16,16v114.9c0,8.8,7.2,16,16,16h36.3c32.5,0,59-26.5,59-59v-28.9
			C174.3,90.1,147.9,63.7,115.3,63.7z M142.3,151.6c0,14.9-12.1,27-27,27H95V95.7h20.3c14.9,0,27,12.1,27,27V151.6z"/>
	</g>
</g>
</svg>
