<?xml version="1.0" encoding="utf-8"?>
<!-- Generator: Adobe Illustrator 26.2.1, SVG Export Plug-In . SVG Version: 6.00 Build 0)  -->
<svg version="1.1" xmlns="http://www.w3.org/2000/svg" xmlns:xlink="http://www.w3.org/1999/xlink" x="0px" y="0px"
	 viewBox="0 0 512 512" style="enable-background:new 0 0 512 512;" xml:space="preserve">
<g id="Rock">
</g>
<g id="Line_2">
</g>
<g id="Line_1">
</g>
<g id="Circle">
</g>
<g id="D_00000007386933525065318140000007989588543470568843_">
</g>
<g id="I">
</g>
<g id="D">
	<g>
		<path d="M453.7,176.8c8.8,0,16-7.2,16-16v-16.3c0-32.3-26.3-58.7-58.7-58.7H100.6c-32.3,0-58.7,26.3-58.7,58.7v223.8
			c0,32.3,26.3,58.7,58.7,58.7H411c32.3,0,58.7-26.3,58.7-58.7V256.3c0-8.8-7.2-16-16-16s-16,7.2-16,16v111.9
			c0,14.7-12,26.7-26.7,26.7H100.6c-14.7,0-26.7-12-26.7-26.7V144.4c0-14.7,12-26.7,26.7-26.7H411c14.7,0,26.7,12,26.7,26.7v16.3
			C437.7,169.6,444.9,176.8,453.7,176.8z"/>
		<path d="M328.5,206.4c0-8.8-7.2-16-16-16h-87.1c-8.8,0-16,7.2-16,16s7.2,16,16,16h87.1C321.3,222.4,328.5,215.3,328.5,206.4z"/>
		<path d="M415.6,160.8c0-8.8-7.2-16-16-16H225.4c-8.8,0-16,7.2-16,16s7.2,16,16,16h174.2C408.4,176.8,415.6,169.6,415.6,160.8z"/>
		<path d="M145.1,232c26.7,0,48.4-21.7,48.4-48.4s-21.7-48.4-48.4-48.4s-48.4,21.7-48.4,48.4S118.4,232,145.1,232z M145.1,167.2
			c9.1,0,16.4,7.4,16.4,16.4s-7.4,16.4-16.4,16.4s-16.4-7.4-16.4-16.4S136,167.2,145.1,167.2z"/>
		<path d="M284.1,374h26.4c29.8,0,54-24.2,54-54v-19.3c0-29.8-24.2-54-54-54h-26.4c-9.4,0-17,7.6-17,17V357
			C267.1,366.4,274.7,374,284.1,374z M299.1,278.7h11.4c12.1,0,22,9.9,22,22V320c0,12.1-9.9,22-22,22h-11.4V278.7z"/>
		<path d="M213.4,262.7V358c0,8.8,7.2,16,16,16s16-7.2,16-16v-95.3c0-8.8-7.2-16-16-16S213.4,253.9,213.4,262.7z"/>
		<path d="M96.6,357c0,9.4,7.6,17,17,17H140c29.8,0,54-24.2,54-54v-19.3c0-29.8-24.2-54-54-54h-26.4c-9.4,0-17,7.6-17,17V357z
			 M128.6,278.7H140c12.1,0,22,9.9,22,22V320c0,12.1-9.9,22-22,22h-11.4V278.7z"/>
	</g>
</g>
</svg>
