<?xml version="1.0" encoding="utf-8"?>
<!-- Generator: Adobe Illustrator 26.2.1, SVG Export Plug-In . SVG Version: 6.00 Build 0)  -->
<svg version="1.1" xmlns="http://www.w3.org/2000/svg" xmlns:xlink="http://www.w3.org/1999/xlink" x="0px" y="0px"
	 viewBox="0 0 512 512" style="enable-background:new 0 0 512 512;" xml:space="preserve">
<g id="Paper">
</g>
<g id="Line_1">
</g>
<g id="Line_2">
</g>
<g id="Line_3">
</g>
<g id="Line_4">
	<g>
		<path d="M409.5,173.5L295.8,59.9c-11.1-11.1-25.9-17.2-41.6-17.2H144c-32.3,0-58.7,26.3-58.7,58.7v309.3
			c0,32.3,26.3,58.7,58.7,58.7h133.3c8.8,0,16-7.2,16-16s-7.2-16-16-16H144c-14.7,0-26.7-12-26.7-26.7V101.3
			c0-14.7,12-26.7,26.7-26.7h106.7V160c0,32.3,26.3,58.7,58.7,58.7h85.3v192c0,14.7-12,26.7-26.7,26.7h-5.3c-8.8,0-16,7.2-16,16
			s7.2,16,16,16h5.3c32.3,0,58.7-26.3,58.7-58.7V215C426.7,199.4,420.6,184.6,409.5,173.5z M282.7,160V92l94.7,94.7h-68
			C294.6,186.7,282.7,174.7,282.7,160z"/>
		<path d="M160,170.7h49.5c8.8,0,16-7.2,16-16s-7.2-16-16-16H160c-8.8,0-16,7.2-16,16S151.2,170.7,160,170.7z"/>
		<path d="M160,238.2h49.5c8.8,0,16-7.2,16-16s-7.2-16-16-16H160c-8.8,0-16,7.2-16,16S151.2,238.2,160,238.2z"/>
		<path d="M160,305.8h181.3c8.8,0,16-7.2,16-16s-7.2-16-16-16H160c-8.8,0-16,7.2-16,16S151.2,305.8,160,305.8z"/>
		<path d="M160,373.3h181.3c8.8,0,16-7.2,16-16s-7.2-16-16-16H160c-8.8,0-16,7.2-16,16S151.2,373.3,160,373.3z"/>
	</g>
</g>
</svg>
