<?xml version="1.0" encoding="utf-8"?>
<!-- Generator: Adobe Illustrator 26.2.1, SVG Export Plug-In . SVG Version: 6.00 Build 0)  -->
<svg version="1.1" xmlns="http://www.w3.org/2000/svg" xmlns:xlink="http://www.w3.org/1999/xlink" x="0px" y="0px"
	 viewBox="0 0 512 512" style="enable-background:new 0 0 512 512;" xml:space="preserve">
<g id="Box">
	<g>
		<g>
			<path d="M388.1,447.7H123.9c-33.1,0-60-26.9-60-60V244.6c0-33.1,26.9-60,60-60h31.5c8.8,0,16,7.2,16,16s-7.2,16-16,16h-31.5
				c-15.5,0-28,12.6-28,28v143.1c0,15.5,12.6,28,28,28h264.1c15.5,0,28-12.6,28-28V244.6c0-15.5-12.6-28-28-28h-31.5
				c-8.8,0-16-7.2-16-16s7.2-16,16-16h31.5c33.1,0,60,26.9,60,60v143.1C448.1,420.7,421.2,447.7,388.1,447.7z"/>
		</g>
	</g>
</g>
<g id="Arrow">
	<path d="M317.1,289.3c-6.2-6.2-16.4-6.2-22.6,0l-24,24V80c0-8.8-7.2-16-16-16s-16,7.2-16,16v233.4L216,290.9
		c-6.2-6.2-16.4-6.2-22.6,0c-6.2,6.2-6.2,16.4,0,22.6l49.8,49.8c3,3,7.1,4.7,11.3,4.7s8.3-1.7,11.3-4.7l51.4-51.4
		C323.4,305.7,323.4,295.6,317.1,289.3z"/>
</g>
</svg>
