<?xml version="1.0" encoding="utf-8"?>
<!-- Generator: Adobe Illustrator 26.2.1, SVG Export Plug-In . SVG Version: 6.00 Build 0)  -->
<svg version="1.1" xmlns="http://www.w3.org/2000/svg" xmlns:xlink="http://www.w3.org/1999/xlink" x="0px" y="0px"
	 viewBox="0 0 512 512" style="enable-background:new 0 0 512 512;" xml:space="preserve">
<g id="Paper">
	<g>
		<path d="M389.3,448H122.7C90.3,448,64,421.7,64,389.3V122.7C64,90.3,90.3,64,122.7,64H256c8.8,0,16,7.2,16,16s-7.2,16-16,16H122.7
			C108,96,96,108,96,122.7v266.7c0,14.7,12,26.7,26.7,26.7h266.7c14.7,0,26.7-12,26.7-26.7V256c0-8.8,7.2-16,16-16s16,7.2,16,16
			v133.3C448,421.7,421.7,448,389.3,448z"/>
	</g>
</g>
<g id="Pen">
	<g>
		<path d="M284.2,317l-83.9-83.9L351.2,82.3c11.2-11.2,26.1-17.4,42-17.4s30.7,6.2,42,17.4c23.1,23.1,23.1,60.8,0,83.9L284.2,317z
			 M245.5,233.1l38.6,38.6l128.3-128.3c10.7-10.7,10.7-28,0-38.6c-5.2-5.2-12-8-19.3-8c-7.3,0-14.2,2.8-19.3,8L245.5,233.1z"/>
	</g>
	<g>
		<path d="M225.5,354.7H188c-14,0-25.3-11.4-25.3-25.3v-37.5c0-13.6,5.3-26.4,14.9-36l11.3-11.3l83.9,83.9l-11.3,11.3
			C251.9,349.4,239.1,354.7,225.5,354.7z M194.7,322.7h27.1l-27.1-27.1V322.7z"/>
	</g>
</g>
</svg>
