<?xml version="1.0" encoding="UTF-8"?>
<svg xmlns="http://www.w3.org/2000/svg" version="1.1" viewBox="0 0 512 512">
  <!-- Generator: Adobe Illustrator 29.1.0, SVG Export Plug-In . SVG Version: 2.1.0 Build 142)  -->
  <g id="Electricty">
    <path d="M184.7,455.47c-2.52,0-5.07-.6-7.43-1.83-6.83-3.58-10.13-11.53-7.85-18.9l41.22-133.09-67.37,1.54c-6.19.15-11.91-3.3-14.68-8.84s-2.1-12.18,1.73-17.04L304.04,56.25c4.77-6.07,13.19-7.86,20.01-4.28,6.83,3.58,10.13,11.53,7.85,18.9l-41.22,133.09,67.37-1.54c6.22-.14,11.91,3.3,14.68,8.84s2.1,12.18-1.73,17.04l-173.71,221.06c-3.12,3.97-7.81,6.12-12.59,6.12ZM232.51,269.14c5.01,0,9.74,2.35,12.77,6.36,3.1,4.11,4.04,9.46,2.51,14.37l-22.2,71.67,99.29-126.36-55.7,1.28c-5.13.13-10.03-2.25-13.14-6.35-3.1-4.11-4.04-9.46-2.51-14.37l22.2-71.67-99.29,126.36,55.7-1.28c.12,0,.24,0,.37,0Z"/>
  </g>
  <g id="Circle">
    <path d="M256,469.33c-8.84,0-16-7.16-16-16s7.16-16,16-16c99.99,0,181.33-81.35,181.33-181.33,0-28.83-6.56-56.39-19.5-81.9-12.35-24.35-30.4-45.98-52.2-62.56-7.04-5.35-8.4-15.39-3.05-22.42,5.35-7.04,15.39-8.4,22.42-3.05,25.63,19.48,46.85,44.92,61.38,73.56,15.24,30.04,22.96,62.47,22.96,96.38,0,56.98-22.19,110.56-62.48,150.85-40.29,40.29-93.87,62.48-150.85,62.48Z"/>
    <path d="M123.97,418.66c-3.81,0-7.64-1.36-10.7-4.11-.55-.49-1.09-.99-1.64-1.49-21.51-19.77-38.46-43.27-50.37-69.84-12.34-27.51-18.59-56.85-18.59-87.23,0-54.27,20.39-105.98,57.42-145.61,36.84-39.43,86.68-63.29,140.34-67.16,8.82-.64,16.47,5.99,17.11,14.81s-5.99,16.47-14.81,17.11c-45.59,3.29-87.94,23.57-119.26,57.09-31.47,33.68-48.8,77.64-48.8,123.76,0,50.59,21.37,99.25,58.63,133.52.46.43.92.84,1.38,1.25,6.57,5.91,7.1,16.03,1.19,22.6-3.16,3.51-7.52,5.3-11.9,5.3Z"/>
  </g>
</svg>