<?xml version="1.0" encoding="utf-8"?>
<!-- Generator: Adobe Illustrator 26.2.1, SVG Export Plug-In . SVG Version: 6.00 Build 0)  -->
<svg version="1.1" xmlns="http://www.w3.org/2000/svg" xmlns:xlink="http://www.w3.org/1999/xlink" x="0px" y="0px"
	 viewBox="0 0 512 512" style="enable-background:new 0 0 512 512;" xml:space="preserve">
<g id="Ether">
</g>
<g id="Line_2">
</g>
<g id="Line_1">
	<g>
		<path d="M293.3,65.6c-7.1-14.2-21.4-23.1-37.3-23.1s-30.2,8.8-37.3,23.1l-11.3,22.6c-3.9,7.9-0.7,17.5,7.2,21.5
			c7.9,3.9,17.5,0.7,21.5-7.2l11.3-22.6c2.4-4.8,6.9-5.4,8.7-5.4c1.8,0,6.2,0.5,8.7,5.4l69.7,139.7l2.6,7.1
			c4.6,12.7-0.7,26.6-12.5,33L269,289.9c-8.1,4.4-17.9,4.4-26,0l-55.4-30.2c-11.8-6.5-17.1-20.4-12.5-33l2.6-7.1l24.7-49.6
			c3.9-7.9,0.7-17.5-7.2-21.5c-7.9-3.9-17.5-0.7-21.5,7.2l-35.3,70.8c-9.2,18.5-9.2,40.6,0,59.1l80.3,160.9
			c7.1,14.2,21.4,23.1,37.3,23.1s30.2-8.8,37.3-23.1l80.3-160.9c9.2-18.5,9.2-40.6,0-59.1L293.3,65.6z M264.7,432.1
			c-2.4,4.8-6.9,5.4-8.7,5.4c-1.8,0-6.2-0.5-8.7-5.4L176.4,290l51.2,28c8.9,4.8,18.6,7.3,28.3,7.3c9.7,0,19.5-2.4,28.3-7.3
			l51.2-27.9L264.7,432.1z"/>
		<path d="M127.8,307.9c-3.9-7.9-13.6-11.1-21.5-7.2c-7.9,3.9-11.1,13.6-7.2,21.5l51.2,102.6c2.8,5.6,8.5,8.9,14.3,8.9
			c2.4,0,4.8-0.5,7.1-1.7c7.9-3.9,11.1-13.6,7.2-21.5L127.8,307.9z"/>
		<path d="M412.8,190.8L361.6,88.2c-3.9-7.9-13.6-11.1-21.5-7.2c-7.9,3.9-11.1,13.6-7.2,21.5l51.2,102.6c2.8,5.6,8.5,8.9,14.3,8.9
			c2.4,0,4.8-0.5,7.1-1.7C413.5,208.3,416.8,198.7,412.8,190.8z"/>
	</g>
</g>
</svg>
