<?xml version="1.0" encoding="utf-8"?>
<!-- Generator: Adobe Illustrator 26.2.1, SVG Export Plug-In . SVG Version: 6.00 Build 0)  -->
<svg version="1.1" xmlns="http://www.w3.org/2000/svg" xmlns:xlink="http://www.w3.org/1999/xlink" x="0px" y="0px"
	 viewBox="0 0 512 512" style="enable-background:new 0 0 512 512;" xml:space="preserve">
<g id="Door">
</g>
<g id="Arrow">
	<g>
		<path d="M311.3,340.6c-8.8,0-16,7.2-16,16v31.5c0,15.5-12.6,28-28,28H124.2c-15.5,0-28-12.6-28-28V123.9c0-15.5,12.6-28,28-28
			h143.1c15.5,0,28,12.6,28,28v31.5c0,8.8,7.2,16,16,16s16-7.2,16-16v-31.5c0-33.1-26.9-60-60-60H124.2c-33.1,0-60,26.9-60,60v264.1
			c0,33.1,26.9,60,60,60h143.1c33.1,0,60-26.9,60-60v-31.5C327.3,347.8,320.2,340.6,311.3,340.6z"/>
		<path d="M443.2,244.7l-51.4-51.4c-6.2-6.2-16.4-6.2-22.6,0c-6.2,6.2-6.2,16.4,0,22.6l24,24H159.9c-8.8,0-16,7.2-16,16
			c0,8.8,7.2,16,16,16h233.4l-22.4,22.4c-6.2,6.2-6.2,16.4,0,22.6c3.1,3.1,7.2,4.7,11.3,4.7s8.2-1.6,11.3-4.7l49.8-49.8
			c3-3,4.7-7.1,4.7-11.3C447.9,251.8,446.2,247.7,443.2,244.7z"/>
	</g>
</g>
</svg>
