<?xml version="1.0" encoding="utf-8"?>
<!-- Generator: Adobe Illustrator 26.2.1, SVG Export Plug-In . SVG Version: 6.00 Build 0)  -->
<svg version="1.1" xmlns="http://www.w3.org/2000/svg" xmlns:xlink="http://www.w3.org/1999/xlink" x="0px" y="0px"
	 viewBox="0 0 512 512" style="enable-background:new 0 0 512 512;" xml:space="preserve">
<g id="Frame">
	<g>
		<g>
			<path d="M256,401.9c-39.3,0-76.8-8.9-111.6-26.5c-33.2-16.8-62.7-41.3-85.3-70.9c-21.8-28.6-21.8-68.5,0-97.1
				c10.1-13.3,21.6-25.5,34.2-36.5c6.7-5.8,16.8-5.1,22.6,1.6c5.8,6.7,5.1,16.8-1.6,22.6c-11,9.6-21,20.3-29.8,31.8
				c-13.1,17.1-13.1,41.1,0,58.2c19.7,25.8,45.4,47.1,74.3,61.7c30.3,15.3,63,23.1,97.2,23.1s66.9-7.8,97.2-23.1
				c28.9-14.6,54.6-36,74.3-61.7c13.1-17.1,13.1-41.1,0-58.2c-19.7-25.8-45.4-47.1-74.3-61.7c-30.3-15.3-63-23.1-97.2-23.1
				c-19.9,0-39.7,2.7-58.7,8.1c-8.5,2.4-17.3-2.6-19.7-11.1c-2.4-8.5,2.6-17.3,11.1-19.7c21.8-6.1,44.5-9.3,67.4-9.3
				c39.3,0,76.8,8.9,111.6,26.5c33.2,16.8,62.7,41.3,85.3,70.9c21.8,28.6,21.8,68.5,0,97.1c-22.6,29.6-52.1,54.1-85.3,70.9
				C332.8,393,295.3,401.9,256,401.9z"/>
		</g>
	</g>
</g>
<g id="Eye">
	<g>
		<path d="M256,341.3c-47.1,0-85.3-38.3-85.3-85.3c0-47.1,38.3-85.3,85.3-85.3c47.1,0,85.3,38.3,85.3,85.3
			C341.3,303.1,303.1,341.3,256,341.3z M256,202.7c-29.4,0-53.3,23.9-53.3,53.3s23.9,53.3,53.3,53.3s53.3-23.9,53.3-53.3
			S285.4,202.7,256,202.7z"/>
	</g>
</g>
</svg>
