<?xml version="1.0" encoding="UTF-8"?>
<svg id="Frame" xmlns="http://www.w3.org/2000/svg" version="1.1" viewBox="0 0 512 512">
  <!-- Generator: Adobe Illustrator 29.1.0, SVG Export Plug-In . SVG Version: 2.1.0 Build 142)  -->
  <path d="M457.06,214.28c-11.28-14.64-28.36-23.04-46.86-23.04h-26.52c-3.06-29.5-28.06-52.58-58.35-52.58h-29.18c-9.31,0-18.07-4.96-22.87-12.95l-7.14-11.9c-10.54-17.57-29.82-28.48-50.31-28.48h-114.51c-32.35,0-58.67,26.32-58.67,58.67v224c0,.22.01.43.02.65.02,12.79,4.2,25.28,12.25,35.73,11.28,14.64,28.36,23.04,46.86,23.04h151.82c8.84,0,16-7.16,16-16s-7.16-16-16-16h-77.62v-.75h-74.67c-14.44,0-26.22-11.53-26.65-25.87-.03-2.4.26-4.82.89-7.22l31.19-118.21c3.13-11.85,13.91-20.13,26.22-20.13h277.22c8.5,0,16.34,3.85,21.51,10.56,5.14,6.67,6.85,15.15,4.71,23.28l-31.19,118.21c-3.13,11.85-13.91,20.13-26.21,20.13h-20.65c-8.84,0-16,7.16-16,16s7.16,16,16,16h20.65c26.82,0,50.33-18.08,57.16-43.96l31.19-118.21c4.7-17.8.94-36.38-10.3-50.97ZM75.83,235.21l-1.17,4.42v-95.63c0-14.7,11.96-26.67,26.67-26.67h114.51c9.31,0,18.07,4.96,22.87,12.95l7.14,11.9c10.54,17.57,29.82,28.48,50.31,28.48h29.18c12.61,0,23.2,8.8,25.96,20.58h-218.3c-26.82,0-50.32,18.08-57.16,43.96Z"/>
</svg>