<?xml version="1.0" encoding="utf-8"?>
<!-- Generator: Adobe Illustrator 26.2.1, SVG Export Plug-In . SVG Version: 6.00 Build 0)  -->
<svg version="1.1" id="Arrow" xmlns="http://www.w3.org/2000/svg" xmlns:xlink="http://www.w3.org/1999/xlink" x="0px" y="0px"
	 viewBox="0 0 512 512" style="enable-background:new 0 0 512 512;" xml:space="preserve">
<path d="M443,162.2l-93.3-93.3c-6.2-6.2-16.4-6.2-22.6,0c-6.2,6.2-6.2,16.4,0,22.6l66.4,66.4H123c-32.4,0-58.7,26.3-58.7,58.7v215
	c0,8.8,7.2,16,16,16s16-7.2,16-16v-215c0-14.7,12-26.7,26.7-26.7h269.6l-68.6,68.6c-6.2,6.2-6.2,16.4,0,22.6
	c3.1,3.1,7.2,4.7,11.3,4.7s8.2-1.6,11.3-4.7l96.3-96.3C449.3,178.6,449.3,168.5,443,162.2z"/>
</svg>
