<?xml version="1.0" encoding="utf-8"?>
<!-- Generator: Adobe Illustrator 26.2.1, SVG Export Plug-In . SVG Version: 6.00 Build 0)  -->
<svg version="1.1" xmlns="http://www.w3.org/2000/svg" xmlns:xlink="http://www.w3.org/1999/xlink" x="0px" y="0px"
	 viewBox="0 0 512 512" style="enable-background:new 0 0 512 512;" xml:space="preserve">
<g id="Handle">
</g>
<g id="Line">
</g>
<g id="Station">
	<path d="M443.5,130.7l-62.2-62.2c-6.2-6.2-16.4-6.2-22.6,0c-6.2,6.2-6.2,16.4,0,22.6l10.9,10.9v62.3c0,4.2,1.7,8.3,4.7,11.3
		l41.9,41.9v70c0,13.2-10.8,24-24,24c-13.2,0-24-10.8-24-24v-35.1c0-30.9-25.1-56-56-56h-6v-73.8c0-32.3-26.3-58.7-58.7-58.7h-87.3
		c-32.3,0-58.7,26.3-58.7,58.7v231.6c-20.7,0.3-37.5,17.2-37.5,38v18.1c0,21,17,38,38,38h203.6c21,0,38-17,38-38v-18.1
		c0-20.8-16.8-37.7-37.5-38V228.5h6c13.2,0,24,10.8,24,24v35.1c0,30.9,25.1,56,56,56s56-25.1,56-56V142.1
		C448.1,137.8,446.5,133.7,443.5,130.7z M160.2,96h87.3c14.7,0,26.7,12,26.7,26.7v36.6h-62.4c-8.8,0-16,7.2-16,16s7.2,16,16,16h62.4
		v163H133.5v-163H147c8.8,0,16-7.2,16-16s-7.2-16-16-16h-13.5v-36.6C133.5,108,145.5,96,160.2,96z M311.7,392.3v18.1
		c0,3.3-2.7,6-6,6H102c-3.3,0-6-2.7-6-6v-18.1c0-3.3,2.7-6,6-6h203.6C309,386.3,311.7,389,311.7,392.3z M401.5,157.7v-23.6
		l14.6,14.6v23.6L401.5,157.7z"/>
</g>
</svg>
