<?xml version="1.0" encoding="utf-8"?>
<!-- Generator: Adobe Illustrator 26.2.1, SVG Export Plug-In . SVG Version: 6.00 Build 0)  -->
<svg version="1.1" id="Head" xmlns="http://www.w3.org/2000/svg" xmlns:xlink="http://www.w3.org/1999/xlink" x="0px" y="0px"
	 viewBox="0 0 512 512" style="enable-background:new 0 0 512 512;" xml:space="preserve">
<path d="M389.3,154.7h-46.4c1.6-1.3,3.1-2.5,4.4-3.8c10.3-9.7,15.9-22.7,15.9-36.6c0-13.9-5.7-26.9-15.9-36.6
	c-20.6-19.5-54.2-19.5-74.8,0c-5.2,4.9-11.2,12.8-16.6,22c-5.4-9.2-11.4-17.1-16.6-22c-20.6-19.5-54.2-19.5-74.8,0
	c-10.3,9.7-15.9,22.7-15.9,36.6s5.7,26.9,15.9,36.6c1.3,1.2,2.8,2.5,4.4,3.8h-46.4c-32.3,0-58.7,23.1-58.7,51.6v8.9
	c0,15.6,8,30.1,21.3,39.8v134.4c0,32.3,26.3,58.7,58.7,58.7h224c32.3,0,58.7-26.3,58.7-58.7v-42.7c0-8.8-7.2-16-16-16s-16,7.2-16,16
	v42.7c0,14.7-12,26.7-26.7,26.7h-96V266.7h117.3h5.3v6.6c0,8.8,7.2,16,16,16s16-7.2,16-16v-18.4c13.4-9.6,21.3-24.2,21.3-39.8v-8.9
	C448,177.8,421.7,154.7,389.3,154.7z M277.7,127.3c5.1-11.7,12.4-22.1,16.9-26.3c8.4-7.9,22.5-7.9,30.8,0c3.8,3.6,5.9,8.3,5.9,13.3
	s-2.1,9.7-5.9,13.3v0c-4.7,4.5-16.3,11.6-29.2,16.5c-13.5,5.2-21.2,5.3-23.9,4.8C271.9,146,272.7,138.6,277.7,127.3z M186.6,101
	c4.2-3.9,9.8-5.9,15.4-5.9c5.6,0,11.2,2,15.4,5.9c4.5,4.2,11.7,14.6,16.9,26.3c5,11.3,5.8,18.8,5.4,21.6c-2.7,0.5-10.4,0.4-23.9-4.8
	c-12.9-5-24.5-12.1-29.2-16.5c-3.8-3.6-5.9-8.3-5.9-13.3C180.7,109.3,182.8,104.6,186.6,101z M96,206.2c0-10.6,12.2-19.6,26.7-19.6
	H240v48H122.7c-5,0-10-1.1-14.4-3.2c-7.7-3.7-12.2-9.8-12.2-16.3V206.2z M240,416h-96c-14.7,0-26.7-12-26.7-26.7V266.7h5.3H240V416z
	 M272,234.7v-48h117.3c14.5,0,26.7,9,26.7,19.6v8.9c0,6.5-4.6,12.7-12.3,16.3c-4.4,2.1-9.4,3.2-14.4,3.2H272z"/>
</svg>
