<?xml version="1.0" encoding="UTF-8"?>
<svg id="Avatar" xmlns="http://www.w3.org/2000/svg" version="1.1" viewBox="0 0 512 512">
  <!-- Generator: Adobe Illustrator 29.1.0, SVG Export Plug-In . SVG Version: 2.1.0 Build 142)  -->
  <path d="M461.85,199.79c-2.32-8.53-11.12-13.55-19.64-11.23-8.53,2.32-13.55,11.12-11.23,19.64,2.83,10.38,4.7,21.02,5.64,31.8h-63.33c-.37-20-2.86-39.64-7.32-58.67h7.37c8.84,0,16-7.16,16-16s-7.16-16-16-16h-16.98c-7.94-21.58-18.58-42.11-31.76-61.17,13.9,5.67,27.1,13.07,39.24,22.06,7.1,5.26,17.12,3.76,22.38-3.34,5.26-7.1,3.76-17.12-3.34-22.38-29.4-21.77-64.1-35.63-100.33-40.1h0s-.05,0-.08-.01c-.03,0-.06,0-.09-.01-.02,0-.04,0-.06,0-17.18-2.27-35.44-2.27-52.62,0-.02,0-.04,0-.06,0-.04,0-.07.01-.11.01-.02,0-.04,0-.06,0l-5.34.71-.02.02c-103.82,15.48-181.43,105.15-181.43,210.86,0,56.64,21.96,109.99,61.84,150.21,39.86,40.2,92.96,62.62,149.54,63.12.05,0,.09,0,.14,0h3.63s.09,0,.14,0c56.58-.5,109.68-22.92,149.54-63.12,39.88-40.22,61.84-93.57,61.84-150.21,0-19.07-2.52-37.98-7.49-56.21ZM90.76,181.33h55.28c-.16.69-.33,1.39-.48,2.08-.13.56-.25,1.12-.37,1.69-.33,1.48-.64,2.97-.94,4.47-.13.63-.26,1.26-.38,1.89-.32,1.63-.62,3.26-.91,4.9-.07.41-.15.81-.22,1.22-.35,2.03-.68,4.07-.98,6.11-.07.5-.14,1-.21,1.49-.23,1.57-.44,3.14-.64,4.71-.08.66-.16,1.31-.24,1.97-.18,1.54-.35,3.08-.51,4.63-.06.55-.12,1.1-.17,1.65-.2,2.06-.38,4.13-.53,6.2-.03.36-.05.72-.07,1.08-.12,1.73-.23,3.46-.32,5.19-.03.66-.06,1.32-.09,1.98-.07,1.51-.12,3.02-.17,4.54-.02.63-.04,1.26-.05,1.9,0,.32-.02.64-.03.96h-63.34c1.82-20.69,7.14-40.45,15.38-58.67ZM192.31,144.25c.4-.88.8-1.76,1.21-2.63.42-.91.85-1.81,1.29-2.71.42-.87.84-1.74,1.27-2.6.44-.89.89-1.79,1.35-2.68.44-.86.89-1.72,1.34-2.57.47-.88.93-1.76,1.41-2.64.46-.85.93-1.7,1.41-2.55.49-.87.98-1.74,1.47-2.6.49-.84.98-1.68,1.48-2.52.51-.86,1.01-1.71,1.53-2.56.51-.84,1.03-1.67,1.55-2.5.53-.84,1.05-1.68,1.59-2.52.53-.83,1.07-1.65,1.62-2.47.55-.83,1.09-1.65,1.65-2.48.56-.82,1.12-1.63,1.69-2.45.56-.81,1.13-1.62,1.7-2.42.58-.82,1.18-1.62,1.77-2.43.58-.79,1.16-1.58,1.74-2.36.61-.81,1.23-1.61,1.85-2.41.59-.77,1.19-1.54,1.79-2.31.64-.8,1.29-1.6,1.93-2.4.61-.75,1.21-1.5,1.83-2.24.67-.81,1.35-1.6,2.04-2.4.61-.72,1.22-1.44,1.84-2.16.71-.81,1.43-1.61,2.15-2.42.62-.69,1.23-1.38,1.85-2.07.75-.82,1.52-1.63,2.29-2.45.61-.65,1.21-1.3,1.83-1.95.08-.09.17-.17.25-.26.32-.03.64-.05.97-.08v73.92h-49.92c.33-.78.67-1.56,1.01-2.34.4-.91.81-1.83,1.22-2.74ZM170.74,239.26c.02-.68.05-1.36.07-2.05.04-1.33.08-2.67.15-4,.04-.82.1-1.64.15-2.47.07-1.18.13-2.37.22-3.55.06-.88.15-1.76.22-2.64.09-1.12.18-2.24.29-3.35.09-.91.19-1.81.29-2.72.12-1.08.23-2.16.36-3.24.11-.93.24-1.85.36-2.77.14-1.05.27-2.1.43-3.15.14-.94.29-1.87.44-2.81.16-1.03.32-2.05.49-3.08.16-.95.34-1.89.51-2.83.18-1.01.36-2.02.56-3.02.19-.95.39-1.89.58-2.84.21-.99.41-1.98.63-2.97.21-.95.43-1.9.66-2.85.23-.97.45-1.95.69-2.92.24-.95.48-1.9.73-2.85.16-.62.32-1.24.49-1.85h60.95v58.67h-69.27c0-.25,0-.49,0-.74ZM75.37,272h64.55c1.89,20.06,5.93,39.66,12.1,58.67h-61.35c-8.32-18.41-13.51-38.19-15.29-58.67ZM172.1,272h67.9v58.67h-54.09c-7.04-18.91-11.66-38.51-13.81-58.67ZM240,362.67v53.46c-15.49-15.95-28.84-34.01-39.48-53.46h39.48ZM272,362.67h39.47c-10.64,19.45-23.98,37.51-39.47,53.46v-53.46ZM272,330.67v-58.67h67.9c-2.15,20.15-6.77,39.76-13.81,58.67h-54.09ZM372.08,272h64.55c-1.78,20.48-6.97,40.26-15.29,58.67h-61.35c6.16-19.01,10.2-38.61,12.1-58.67ZM341.27,240h-69.27v-58.67h60.95c5.07,18.93,7.9,38.59,8.32,58.67ZM272,149.33v-73.92c.32.03.65.05.97.09,20.97,21.75,37.43,46.74,48.95,73.83h-49.92ZM187.45,88.11c-.47.68-.93,1.38-1.4,2.06-.35.52-.7,1.03-1.05,1.55-1.14,1.7-2.26,3.4-3.35,5.12-.07.1-.13.21-.2.31-1.03,1.63-2.05,3.27-3.04,4.91-.33.54-.64,1.08-.97,1.61-.76,1.27-1.51,2.55-2.24,3.83-.32.55-.64,1.11-.95,1.67-.87,1.54-1.72,3.08-2.56,4.63-.13.25-.27.49-.41.74-.97,1.8-1.91,3.61-2.83,5.44-.25.49-.49.99-.74,1.48-.68,1.36-1.35,2.73-2.01,4.1-.28.58-.56,1.16-.83,1.74-.68,1.45-1.35,2.9-2.01,4.36-.19.42-.38.83-.57,1.25-.83,1.87-1.64,3.75-2.42,5.63-.17.4-.32.8-.49,1.2-.62,1.51-1.23,3.02-1.82,4.53-.23.59-.46,1.18-.68,1.77-.41,1.08-.82,2.17-1.22,3.26h-46.25c19.63-26.96,46.54-48.38,78.05-61.22ZM127.23,383.68c-6.55-6.61-12.52-13.63-17.91-21.01h55.33c1.06,2.25,2.14,4.5,3.26,6.73,1.03,2.06,2.1,4.11,3.19,6.14.22.4.43.81.65,1.21,1.06,1.97,2.15,3.92,3.26,5.86.2.36.41.71.62,1.07,1.07,1.85,2.16,3.69,3.27,5.52.12.2.24.4.36.59,1.19,1.93,2.4,3.85,3.63,5.75.26.41.53.81.79,1.22,1.23,1.88,2.49,3.75,3.76,5.61.18.27.37.53.56.8,1.2,1.73,2.42,3.44,3.66,5.14.21.29.42.59.64.88,1.33,1.81,2.69,3.6,4.06,5.38.29.38.59.76.89,1.14,1.41,1.8,2.83,3.59,4.28,5.35.1.13.21.25.31.38,1.39,1.69,2.81,3.36,4.24,5.02.28.32.56.65.84.97,1.25,1.43,2.5,2.85,3.78,4.25-31.36-8.03-60.1-24.41-83.47-47.99ZM301.3,431.67c17.01-18.72,31.5-39.75,42.79-62.27,1.12-2.23,2.2-4.48,3.26-6.73h55.33c-5.39,7.38-11.36,14.41-17.91,21.01-23.37,23.58-52.11,39.96-83.47,47.99Z"/>
</svg>