<?xml version="1.0" encoding="UTF-8"?>
<svg id="Flag" xmlns="http://www.w3.org/2000/svg" version="1.1" viewBox="0 0 512 512">
  <!-- Generator: Adobe Illustrator 29.1.0, SVG Export Plug-In . SVG Version: 2.1.0 Build 142)  -->
  <path d="M443.8,391.27l-70.73-136.42c-6.74-13.12-20.1-21.3-34.87-21.34h-.11c-14.78,0-28.19,8.14-35.04,21.28l-11.76,22.68-47.06-90.85c-2.87-5.55-6.94-10.2-11.78-13.73-.16-.12-.32-.25-.48-.37-.13-.09-.27-.17-.4-.26-2.32-1.61-4.81-2.95-7.44-4.02v-8.25h90.54c20.59,0,37.33-16.75,37.33-37.33v-21.33c0-20.59-16.75-37.33-37.33-37.33h-106.67c-8.84,0-16,7.16-16,16,0,.66.05,1.31.13,1.95v60.1c-.08.64-.13,1.29-.13,1.95s.05,1.31.13,1.95v23.25c-7.59,3.64-13.94,9.67-17.97,17.47l-40.99,79.17-3.77,7.28c-4.06,7.85-1,17.5,6.85,21.57s17.5,1,21.57-6.85l3.87-7.47c14.85,5.01,30.61,7.63,46.31,7.63,16.7,0,32.92-2.79,48.4-8.3l71.04,137.15H103.21c-3.63,0-5.54-2.24-6.35-3.57-.81-1.33-1.92-4.05-.25-7.28l29.76-57.46c4.06-7.85,1-17.5-6.85-21.57-7.85-4.06-17.5-1-21.57,6.85l-29.76,57.46c-6.38,12.33-5.89,26.76,1.32,38.62,7.21,11.86,19.81,18.94,33.69,18.94h305.54c13.9,0,26.51-7.1,33.74-18.98,7.21-11.86,7.7-26.29,1.32-38.59ZM320,101.33v21.33c0,2.94-2.39,5.33-5.33,5.33h-90.54v-32h90.54c2.94,0,5.33,2.39,5.33,5.33ZM208,256c-10.6,0-21.22-1.52-31.38-4.47l26-50.19c1.88-3.62,5.24-4.01,6.6-4.01.98,0,3.01.21,4.77,1.7.64.56,1.23,1.29,1.72,2.26l25.73,49.67c-10.76,3.35-21.96,5.04-33.44,5.04ZM415.14,413.24c-.66,1.08-2.6,3.6-6.39,3.6h-45.27l-54.18-104.6,22.14-42.69c1.91-3.66,5.33-4.05,6.67-4.04,1.67,0,4.73.53,6.52,4.02l70.76,136.48c1.66,3.2.55,5.91-.26,7.24Z"/>
</svg>