<?xml version="1.0" encoding="utf-8"?>
<!-- Generator: Adobe Illustrator 26.2.1, SVG Export Plug-In . SVG Version: 6.00 Build 0)  -->
<svg version="1.1" id="Hat" xmlns="http://www.w3.org/2000/svg" xmlns:xlink="http://www.w3.org/1999/xlink" x="0px" y="0px"
	 viewBox="0 0 512 512" style="enable-background:new 0 0 512 512;" xml:space="preserve">
<path d="M447.9,161.4c-0.9-0.5-1.9-0.9-3-1.2L359,135.8c-8.5-2.4-17.3,2.5-19.8,11c-2.4,8.5,2.5,17.3,11,19.8l84,23.8
	c3.2,2.2,3.5,5.5,3.5,6.9s-0.4,4.7-3.5,6.9l-171,48.5c-4.8,1.3-9.8,1.3-14.5,0l-30.4-8.6l42.7-14.2c8.4-2.8,12.9-11.8,10.1-20.2
	c-2.8-8.4-11.8-12.9-20.2-10.1l-87.3,29.1l-85.9-24.4c-3.2-2.2-3.5-5.5-3.5-6.9s0.4-4.7,3.5-6.9l171-48.5c4.8-1.3,9.8-1.3,14.5,0
	l13.5,3.8c8.5,2.4,17.3-2.5,19.8-11c2.4-8.5-2.5-17.3-11-19.8l-13.5-3.8c-10.5-3-21.5-3-32,0l-172.9,49c-1,0.3-2,0.7-3,1.2
	c-13.5,7-21.9,20.8-21.9,36c0,15.2,8.4,29,21.9,36c0.9,0.5,1.9,0.9,3,1.2l18.2,5.2v85.7c0,19.3,18.2,34.4,54.2,44.8
	c-1.2,1.9-2.6,3.7-4.2,5.3c-5.7,5.8-13.3,8.6-23.3,8.6c-8.8,0-16,7.2-16,16s7.2,16,16,16c18.6,0,34.6-6.3,46.3-18.3
	c6.1-6.2,10.4-13.3,13.6-20.3c25.1,4.3,54,6.6,84.1,6.6c42.7,0,83.1-4.6,113.6-13.1c37.9-10.4,57-25.8,57-45.6v-85.7l18.2-5.2
	c1-0.3,2-0.7,3-1.2c13.5-7,21.9-20.8,21.9-36C469.8,182.1,461.4,168.3,447.9,161.4z M117.3,324.4v-75.7l30.6,8.7v80.8
	c0,0.1,0,0.2,0,0.3c0,0.2,0,0.5,0,0.7C127.2,333.1,119,326.8,117.3,324.4z M394.7,324.4c-1.9,2.8-12.3,10.6-40.4,17.4
	c-27,6.5-61.9,10.1-98.2,10.1c-27.2,0-53.5-2-76.4-5.8c0.3-4.1,0.3-7,0.3-8.2v-71.6l60,17c5.2,1.5,10.6,2.2,16,2.2
	c5.4,0,10.8-0.7,16-2.2l122.7-34.8V324.4z"/>
</svg>
