<?xml version="1.0" encoding="utf-8"?>
<!-- Generator: Adobe Illustrator 26.2.1, SVG Export Plug-In . SVG Version: 6.00 Build 0)  -->
<svg version="1.1" xmlns="http://www.w3.org/2000/svg" xmlns:xlink="http://www.w3.org/1999/xlink" x="0px" y="0px"
	 viewBox="0 0 512 512" style="enable-background:new 0 0 512 512;" xml:space="preserve">
<g id="Body_1">
</g>
<g id="Head_1">
</g>
<g id="Body_2">
</g>
<g id="Head_2">
	<g>
		<path d="M340.7,249.6c-59.2,0-107.3,48.2-107.3,107.3v74.7c0,8.8,7.2,16,16,16s16-7.2,16-16v-74.7c0-41.5,33.8-75.3,75.3-75.3
			s75.3,33.8,75.3,75.3v74.7c0,8.8,7.2,16,16,16s16-7.2,16-16v-74.7C448,297.7,399.8,249.6,340.7,249.6z"/>
		<path d="M340.7,225.7c44.5,0,80.6-36.2,80.6-80.6c0-44.5-36.2-80.6-80.6-80.6S260,100.6,260,145.1
			C260,189.6,296.2,225.7,340.7,225.7z M340.7,96.5c26.8,0,48.6,21.8,48.6,48.6c0,26.8-21.8,48.6-48.6,48.6S292,171.9,292,145.1
			C292,118.3,313.8,96.5,340.7,96.5z"/>
		<path d="M213,292.4c-16.3-12.1-35.6-18.4-55.9-18.4c-51.8,0-94,42.1-94,94v63.8c0,8.8,7.2,16,16,16s16-7.2,16-16v-63.8
			c0-34.2,27.8-62,62-62c13.4,0,26.1,4.2,36.8,12.1c7.1,5.3,17.1,3.8,22.4-3.3S220.1,297.6,213,292.4z"/>
		<path d="M157.1,115.9c-39.2,0-71.2,31.9-71.2,71.2s31.9,71.2,71.2,71.2s71.2-31.9,71.2-71.2S196.4,115.9,157.1,115.9z
			 M157.1,226.3c-21.6,0-39.2-17.6-39.2-39.2c0-21.6,17.6-39.2,39.2-39.2s39.2,17.6,39.2,39.2C196.3,208.7,178.7,226.3,157.1,226.3z
			"/>
	</g>
</g>
</svg>
