<?xml version="1.0" encoding="utf-8"?>
<!-- Generator: Adobe Illustrator 26.2.1, SVG Export Plug-In . SVG Version: 6.00 Build 0)  -->
<svg version="1.1" xmlns="http://www.w3.org/2000/svg" xmlns:xlink="http://www.w3.org/1999/xlink" x="0px" y="0px"
	 viewBox="0 0 512 512" style="enable-background:new 0 0 512 512;" xml:space="preserve">
<g id="Frame">
</g>
<g id="Line">
</g>
<g id="Arrow_Head">
	<g>
		<path d="M453.3,259.8c8.8,0,16-7.2,16-16V144c0-32.3-26.3-58.7-58.7-58.7H101.3c-32.3,0-58.7,26.3-58.7,58.7v224
			c0,32.3,26.3,58.7,58.7,58.7h309.3c32.3,0,58.7-26.3,58.7-58.7v-15.2c0-8.8-7.2-16-16-16s-16,7.2-16,16V368
			c0,14.7-12,26.7-26.7,26.7H101.3c-14.7,0-26.7-12-26.7-26.7V144c0-14.7,12-26.7,26.7-26.7h309.3c14.7,0,26.7,12,26.7,26.7v99.8
			C437.3,252.6,444.5,259.8,453.3,259.8z"/>
		<path d="M382.3,259.8c8.8,0,16-7.2,16-16v-70c0-8.8-7.2-16-16-16h-72.3c-8.8,0-16,7.2-16,16s7.2,16,16,16h30.9L231,299.6
			l-31.4-31.4c-6.2-6.2-16.4-6.2-22.6,0L118.4,327c-6.2,6.2-6.2,16.4,0,22.6c3.1,3.1,7.2,4.7,11.3,4.7c4.1,0,8.2-1.6,11.3-4.7
			l47.4-47.4l31.4,31.4c6.2,6.2,16.4,6.2,22.6,0l124-124v34.2C366.3,252.6,373.5,259.8,382.3,259.8z"/>
	</g>
</g>
</svg>
