<?xml version="1.0" encoding="utf-8"?>
<!-- Generator: Adobe Illustrator 26.2.1, SVG Export Plug-In . SVG Version: 6.00 Build 0)  -->
<svg version="1.1" id="Frame" xmlns="http://www.w3.org/2000/svg" xmlns:xlink="http://www.w3.org/1999/xlink" x="0px" y="0px"
	 viewBox="0 0 512 512" style="enable-background:new 0 0 512 512;" xml:space="preserve">
<g>
	<g>
		<path d="M256,450c-13.6,0-27.2-3.9-39.1-11.7c-16.4-10.8-58.5-41.7-95.9-95.6c-36.7-52.8-55.8-108.9-57-166.7
			c0-0.8-0.1-1.7-0.1-2.7c-0.4-22.9,6.4-45.7,19.1-64.2c13.3-19.3,31.9-33.1,54-40c28.1-8.7,57.4-6.3,82.6,6.7
			c14.5,7.5,26.8,18,36.4,30.8c9.5-12.7,21.9-23.3,36.4-30.8c25.2-13,54.5-15.4,82.6-6.7c22,6.8,40.7,20.6,54,40
			c12.7,18.5,19.5,41.3,19.1,64.2c0,0.9,0,1.8-0.1,2.7c-0.6,32.1-7,64.1-18.9,95.3c-3.2,8.3-12.4,12.4-20.7,9.2
			c-8.3-3.2-12.4-12.4-9.2-20.7c10.6-27.8,16.3-56.3,16.8-84.8c0-0.3,0-0.5,0-0.8c0-0.5,0.1-1,0.1-1.5c0.3-16.3-4.5-32.5-13.5-45.6
			c-9.1-13.3-21.9-22.8-37-27.5c-20-6.2-40.8-4.6-58.4,4.5c-16.9,8.7-29.7,23.4-36,41.2c-2.3,6.4-8.3,10.6-15.1,10.6
			s-12.8-4.3-15.1-10.6c-6.3-17.9-19.1-32.5-36-41.2c-17.6-9.1-38.4-10.7-58.4-4.5c-15.1,4.7-27.9,14.2-37,27.5
			c-9,13.1-13.8,29.2-13.5,45.5c0,0.5,0,1,0.1,1.5c0,0.3,0,0.5,0,0.8c2.1,116,88,203.3,138.5,236.5c13,8.6,29.9,8.6,42.9,0
			c21.6-14.2,45.3-35.6,65.1-58.6c5.8-6.7,15.9-7.5,22.6-1.7c6.7,5.8,7.5,15.9,1.7,22.6c-29.6,34.5-57.7,55.1-71.7,64.4
			C283.2,446.1,269.6,450,256,450z"/>
	</g>
</g>
</svg>
