<?xml version="1.0" encoding="utf-8"?>
<!-- Generator: Adobe Illustrator 26.2.1, SVG Export Plug-In . SVG Version: 6.00 Build 0)  -->
<svg version="1.1" id="Home_00000183941576821376796610000002122085461984885913_"
	 xmlns="http://www.w3.org/2000/svg" xmlns:xlink="http://www.w3.org/1999/xlink" x="0px" y="0px" viewBox="0 0 512 512"
	 style="enable-background:new 0 0 512 512;" xml:space="preserve">
<style type="text/css">
	.st0{opacity:0.5;enable-background:new    ;}
	.st1{fill:none;stroke:#FF0000;stroke-width:32;stroke-miterlimit:10;}
</style>
<g id="Home">
	<g class="st0">
		<path class="st1" d="M202.7,445"/>
	</g>
	<g>
		<path d="M392.6,447.6H334c-30.3,0-55-24.7-55-55v-68.3c0-2-1.5-3.5-3.5-3.5h-39c-2,0-3.5,1.5-3.5,3.5v68.3c0,30.3-24.7,55-55,55
			h-58.6c-30.3,0-55-24.7-55-55V252.4c0-16.9,7.2-33.1,19.8-44.5L215.6,80c0.2-0.2,0.3-0.3,0.5-0.5c22.6-20.2,56.9-20.2,79.7,0
			c0.2,0.2,0.4,0.3,0.5,0.5l13.1,12.7c6.3,6.2,6.5,16.3,0.4,22.6c-6.2,6.3-16.3,6.5-22.6,0.4l-12.8-12.4c-10.5-9.1-26.2-9.2-36.7,0
			L106.3,231.1c-0.2,0.2-0.3,0.3-0.5,0.5c-5.9,5.3-9.4,12.9-9.4,20.9v140.2c0,12.7,10.3,23,23,23H178c12.7,0,23-10.3,23-23v-68.3
			c0-19.6,15.9-35.5,35.5-35.5h39c19.6,0,35.5,15.9,35.5,35.5v68.3c0,12.7,10.3,23,23,23h58.6c12.7,0,23-10.3,23-23V252.4
			c0-8-3.4-15.6-9.3-20.8c-0.2-0.2-0.4-0.3-0.6-0.5l-21.9-21.3c-6.3-6.2-6.5-16.3-0.3-22.6c6.2-6.3,16.3-6.5,22.6-0.3l21.6,21.1
			c12.6,11.3,19.8,27.5,19.8,44.5v140.2C447.6,423,422.9,447.6,392.6,447.6z"/>
	</g>
</g>
</svg>
