<?xml version="1.0" encoding="UTF-8"?>
<svg id="Cup" xmlns="http://www.w3.org/2000/svg" version="1.1" viewBox="0 0 512 512">
  <!-- Generator: Adobe Illustrator 29.1.0, SVG Export Plug-In . SVG Version: 2.1.0 Build 142)  -->
  <path d="M410.67,437.33h-42.67v-46.58c0-.05,0-.11,0-.16v-41.26c0-40.69-21.82-76.39-54.37-96,31.37-18.91,52.77-52.75,54.28-91.61.06-.56.09-1.13.09-1.71,0-.18-.02-.36-.03-.54.01-.71.03-1.43.03-2.14v-82.67h42.67c8.84,0,16-7.16,16-16s-7.16-16-16-16h-149.78c-8.84,0-16,7.16-16,16s7.16,16,16,16h75.11v69.35h-160v-69.35h13c8.84,0,16-7.16,16-16s-7.16-16-16-16h-87.66c-8.84,0-16,7.16-16,16s7.16,16,16,16h42.67v82.67c0,.72.01,1.43.03,2.14,0,.18-.03.36-.03.54,0,.58.03,1.15.09,1.71,1.51,38.86,22.9,72.7,54.28,91.61-32.55,19.61-54.37,55.31-54.37,96v41.26c0,.05,0,.11,0,.16v46.58h-42.67c-8.84,0-16,7.16-16,16s7.16,16,16,16h309.33c8.84,0,16-7.16,16-16s-7.16-16-16-16ZM178.22,176.02h155.55c-8.44,35.13-40.1,61.32-77.78,61.32s-69.34-26.19-77.78-61.32ZM255.97,269.33s.02,0,.03,0,.02,0,.03,0c44.1.01,79.97,35.9,79.97,80v17.39l-73.84-30.82c-3.95-1.65-8.38-1.65-12.33,0l-73.84,30.82v-17.39c0-44.1,35.87-79.99,79.97-80ZM176,401.39l80-33.39,80,33.39v35.94h-160v-35.94Z"/>
</svg>