<?xml version="1.0" encoding="UTF-8"?>
<svg id="Text" xmlns="http://www.w3.org/2000/svg" version="1.1" viewBox="0 0 512 512">
  <!-- Generator: Adobe Illustrator 29.1.0, SVG Export Plug-In . SVG Version: 2.1.0 Build 142)  -->
  <path d="M432.48,225.31c8.84,0,16-7.16,16-16v-86.64c0-32.35-26.32-58.67-58.67-58.67H123.14c-32.35,0-58.67,26.32-58.67,58.67v266.67c0,32.35,26.32,58.67,58.67,58.67h266.67c32.35,0,58.67-26.32,58.67-58.67v-89.53c0-8.84-7.16-16-16-16s-16,7.16-16,16v89.53c0,14.7-11.96,26.67-26.67,26.67H123.14c-14.7,0-26.67-11.96-26.67-26.67v-197.62h320v17.59c0,8.84,7.16,16,16,16ZM96.48,159.71v-37.05c0-14.7,11.96-26.67,26.67-26.67h266.67c14.7,0,26.67,11.96,26.67,26.67v37.05H96.48Z"/>
  <path d="M128.48,106.67c-11.77,0-21.34,9.57-21.34,21.33s9.57,21.33,21.34,21.33,21.33-9.57,21.33-21.33-9.57-21.33-21.33-21.33Z"/>
  <path d="M181.81,106.67c-11.76,0-21.33,9.57-21.33,21.33s9.57,21.33,21.33,21.33,21.33-9.57,21.33-21.33-9.57-21.33-21.33-21.33Z"/>
  <path d="M235.14,106.67c-11.76,0-21.33,9.57-21.33,21.33s9.57,21.33,21.33,21.33,21.34-9.57,21.34-21.33-9.57-21.33-21.34-21.33Z"/>
  <path d="M198.46,250.02c-6.25-6.25-16.38-6.25-22.63,0l-42.67,42.67c-6.25,6.25-6.25,16.38,0,22.63l42.67,42.67c3.12,3.12,7.22,4.69,11.31,4.69s8.19-1.56,11.31-4.69c6.25-6.25,6.25-16.38,0-22.63l-31.35-31.35,31.35-31.35c6.25-6.25,6.25-16.38,0-22.63Z"/>
  <path d="M314.5,357.98c3.12,3.12,7.22,4.69,11.31,4.69s8.19-1.56,11.31-4.69l42.67-42.67c6.25-6.25,6.25-16.38,0-22.63l-42.67-42.67c-6.25-6.25-16.38-6.25-22.63,0-6.25,6.25-6.25,16.38,0,22.63l31.35,31.35-31.35,31.35c-6.25,6.25-6.25,16.38,0,22.63Z"/>
  <path d="M257.02,255.71l-32,85.33c-3.1,8.27,1.09,17.5,9.36,20.6,1.85.69,3.75,1.02,5.62,1.02,6.48,0,12.58-3.96,14.98-10.39l32-85.33c3.1-8.27-1.09-17.5-9.36-20.6-8.27-3.1-17.5,1.09-20.6,9.36Z"/>
</svg>