<?xml version="1.0" encoding="utf-8"?>
<!-- Generator: Adobe Illustrator 26.2.1, SVG Export Plug-In . SVG Version: 6.00 Build 0)  -->
<svg version="1.1" xmlns="http://www.w3.org/2000/svg" xmlns:xlink="http://www.w3.org/1999/xlink" x="0px" y="0px"
	 viewBox="0 0 512 512" style="enable-background:new 0 0 512 512;" xml:space="preserve">
<g id="Line_1">
</g>
<g id="Line_2">
</g>
<g id="Body">
</g>
<g id="Head">
	<g>
		<path d="M203.8,235.5H158v-45.7c0-8.8-7.2-16-16-16s-16,7.2-16,16v45.7H80.3c-8.8,0-16,7.2-16,16s7.2,16,16,16H126v45.7
			c0,8.8,7.2,16,16,16s16-7.2,16-16v-45.7h45.7c8.8,0,16-7.2,16-16S212.6,235.5,203.8,235.5z"/>
		<path d="M341.1,249.5c-59.2,0-107.3,48.2-107.3,107.3v74.7c0,8.8,7.2,16,16,16s16-7.2,16-16v-74.7c0-41.5,33.8-75.3,75.3-75.3
			s75.3,33.8,75.3,75.3v74.7c0,8.8,7.2,16,16,16s16-7.2,16-16v-74.7C448.4,297.7,400.3,249.5,341.1,249.5z"/>
		<path d="M341.1,225.7c44.5,0,80.6-36.2,80.6-80.6s-36.2-80.6-80.6-80.6s-80.6,36.2-80.6,80.6S296.6,225.7,341.1,225.7z
			 M341.1,96.4c26.8,0,48.6,21.8,48.6,48.6s-21.8,48.6-48.6,48.6s-48.6-21.8-48.6-48.6S314.2,96.4,341.1,96.4z"/>
	</g>
</g>
</svg>
