<?xml version="1.0" encoding="UTF-8"?>
<svg id="Laptop" xmlns="http://www.w3.org/2000/svg" version="1.1" viewBox="0 0 512 512">
  <!-- Generator: Adobe Illustrator 29.1.0, SVG Export Plug-In . SVG Version: 2.1.0 Build 142)  -->
  <path d="M378.67,341.33h-245.33c-32.35,0-58.67-26.32-58.67-58.67v-4.94c0-8.84,7.16-16,16-16s16,7.16,16,16v4.94c0,14.7,11.96,26.67,26.67,26.67h245.33c14.7,0,26.67-11.96,26.67-26.67v-138.67c0-14.7-11.96-26.67-26.67-26.67h-245.33c-14.7,0-26.67,11.96-26.67,26.67v48c0,8.84-7.16,16-16,16s-16-7.16-16-16v-48c0-32.35,26.32-58.67,58.67-58.67h245.33c32.35,0,58.67,26.32,58.67,58.67v138.67c0,32.35-26.32,58.67-58.67,58.67Z"/>
  <path d="M432,426.67H80c-20.59,0-37.33-16.75-37.33-37.33s16.75-37.33,37.33-37.33h352c20.59,0,37.33,16.75,37.33,37.33s-16.75,37.33-37.33,37.33ZM80,384c-2.94,0-5.33,2.39-5.33,5.33s2.39,5.33,5.33,5.33h352c2.94,0,5.33-2.39,5.33-5.33s-2.39-5.33-5.33-5.33H80Z"/>
  <path d="M272,160h-32c-8.84,0-16-7.16-16-16s7.16-16,16-16h32c8.84,0,16,7.16,16,16s-7.16,16-16,16Z"/>
</svg>