<?xml version="1.0" encoding="UTF-8"?>
<svg id="Layer_3" xmlns="http://www.w3.org/2000/svg" version="1.1" viewBox="0 0 512 512">
  <!-- Generator: Adobe Illustrator 29.1.0, SVG Export Plug-In . SVG Version: 2.1.0 Build 142)  -->
  <path d="M447.33,256c0-13.93-7.68-26.55-20.05-32.95l-9.52-4.93,9.52-4.93c12.37-6.4,20.05-19.03,20.05-32.96s-7.68-26.55-20.05-32.96l-151.84-78.59c-12.17-6.3-26.7-6.3-38.87,0l-67.86,35.12c-7.85,4.06-10.92,13.72-6.86,21.56,4.06,7.85,13.72,10.92,21.56,6.86l67.86-35.12c2.96-1.53,6.5-1.53,9.46,0l151.84,78.59c2.4,1.24,2.76,3.38,2.76,4.54s-.36,3.29-2.76,4.54l-154.12,79.76c-1.54.79-3.37.79-4.9,0l-154.12-79.76c-2.4-1.24-2.76-3.38-2.76-4.54s.36-3.29,2.76-4.54l14.78-7.65c7.85-4.06,10.92-13.72,6.86-21.56-4.06-7.85-13.71-10.92-21.56-6.86l-14.78,7.65c-12.37,6.4-20.05,19.03-20.05,32.96s7.68,26.55,20.05,32.96l9.52,4.93-9.52,4.93c-12.37,6.4-20.05,19.03-20.05,32.96,0,13.93,7.68,26.56,20.05,32.96l9.52,4.93-9.52,4.93c-12.37,6.4-20.05,19.03-20.05,32.96s7.68,26.55,20.05,32.96l151.84,78.58c6.09,3.15,12.76,4.72,19.44,4.72s13.35-1.57,19.44-4.72l151.84-78.58c12.37-6.4,20.05-19.03,20.05-32.96s-7.68-26.55-20.05-32.96l-9.52-4.93,9.52-4.93c12.37-6.4,20.05-19.03,20.05-32.96ZM258.45,340.3c-1.54.79-3.37.79-4.9,0l-154.12-79.76c-2.4-1.24-2.76-3.38-2.76-4.54s.36-3.29,2.76-4.54l29.62-15.33,109.79,56.82c10.74,5.56,23.57,5.56,34.32,0l109.79-56.82,29.62,15.33c2.4,1.24,2.76,3.38,2.76,4.54s-.36,3.29-2.76,4.54l-154.12,79.76ZM382.95,311.9l29.62,15.33c2.4,1.24,2.76,3.38,2.76,4.54s-.36,3.29-2.76,4.54l-151.84,78.58c-2.96,1.53-6.49,1.53-9.46,0l-151.84-78.58c-2.4-1.24-2.76-3.38-2.76-4.54s.36-3.29,2.76-4.54l29.62-15.33,109.79,56.82c5.37,2.78,11.27,4.17,17.16,4.17s11.79-1.39,17.16-4.17l109.79-56.82Z"/>
</svg>