<?xml version="1.0" encoding="utf-8"?>
<!-- Generator: Adobe Illustrator 26.2.1, SVG Export Plug-In . SVG Version: 6.00 Build 0)  -->
<svg version="1.1" id="Phone" xmlns="http://www.w3.org/2000/svg" xmlns:xlink="http://www.w3.org/1999/xlink" x="0px" y="0px"
	 viewBox="0 0 512 512" style="enable-background:new 0 0 512 512;" xml:space="preserve">
<g>
	<g>
		<path d="M123.3,421.2c-32.3,0-58.7-26.7-58.7-59.5v-0.2c0-8.8,7.2-16,16-16s16,7.2,16,16v0.2c0,15.2,12,27.5,26.7,27.5
			s26.7-12.4,26.7-27.5v-103c0-15.2-12-27.5-26.7-27.5s-26.7,12.4-26.7,27.5v30.4c0,8.8-7.2,16-16,16s-16-7.2-16-16v-30.4
			c0-32.8,26.3-59.5,58.7-59.5c32.3,0,58.7,26.7,58.7,59.5v103C182,394.5,155.7,421.2,123.3,421.2z"/>
	</g>
	<g>
		<path d="M356.6,441.6c-1.7,0-3.4-0.1-5.2-0.2c-0.1,0-0.2,0-0.3,0l-90-9.7c-29.9-3.2-52.5-28.7-52.5-59.2V249.1
			c0-24.4,14.7-46.1,36.5-55.1c7.5-14.1,24.6-48.5,31.3-79.6c5.4-25.2,23.9-42.9,46.1-44c0.3,0,0.5,0,0.8,0h1.5
			c27.4,0,50.1,25.3,51.7,57.6c0,0,0,0.1,0,0.1c0.7,16.8-0.7,34-4.1,51.3l11.4-1.1c18.7-1.7,36.5,5.5,48.9,19.6
			c12.5,14.3,17.5,34,13.4,52.7l-32.1,144.5C407.8,422.4,383.7,441.6,356.6,441.6z M354.4,409.5c13.1,1.1,25.3-8,28.3-21.3
			l32.1-144.5c0,0,0,0,0,0c2-8.9-0.3-17.9-6.2-24.6c-5.6-6.4-13.6-9.6-21.9-8.9l-33.7,3.2c-5.3,0.5-10.5-1.7-13.9-5.8
			c-3.4-4.1-4.5-9.6-3-14.7c6.4-21.5,9.2-42.9,8.4-63.4c-0.8-16.2-10.9-27.1-19.7-27.1h-1c-7.3,0.6-13.9,8.2-16.1,18.7
			c-8.5,39.8-30.9,81.8-37.5,93.7c-2.1,3.8-5.6,6.5-9.8,7.7c-11.7,3.2-19.8,14.1-19.8,26.6v123.3c0,14.2,10.3,25.9,23.9,27.4
			L354.4,409.5z"/>
	</g>
</g>
</svg>
