<?xml version="1.0" encoding="UTF-8"?>
<svg id="Link_2" xmlns="http://www.w3.org/2000/svg" version="1.1" viewBox="0 0 512 512">
  <!-- Generator: Adobe Illustrator 29.1.0, SVG Export Plug-In . SVG Version: 2.1.0 Build 142)  -->
  <path d="M248.25,350.52l-48.3,48.3c-11.53,11.53-26.87,17.89-43.18,17.89s-31.65-6.35-43.18-17.89c-11.53-11.53-17.89-26.87-17.89-43.18s6.35-31.65,17.89-43.18l72.66-72.66c11.53-11.53,26.87-17.89,43.18-17.89s31.65,6.35,43.18,17.89c6.25,6.25,16.38,6.25,22.63,0,6.25-6.25,6.25-16.38,0-22.63-17.58-17.58-40.95-27.26-65.81-27.26s-48.23,9.68-65.81,27.26l-72.66,72.66c-17.58,17.58-27.26,40.95-27.26,65.81s9.68,48.23,27.26,65.81c17.58,17.58,40.95,27.26,65.81,27.26s48.23-9.68,65.81-27.26l48.3-48.3c6.25-6.25,6.25-16.38,0-22.63-6.25-6.25-16.38-6.25-22.63,0Z"/>
  <path d="M421.04,90.56c-36.29-36.29-95.33-36.28-131.62,0l-48.3,48.3c-6.25,6.25-6.25,16.38,0,22.63s16.38,6.25,22.63,0l48.3-48.3c23.81-23.81,62.55-23.81,86.36,0,11.53,11.53,17.89,26.87,17.89,43.18s-6.35,31.65-17.89,43.18l-72.66,72.66c-11.53,11.53-26.87,17.89-43.18,17.89s-31.65-6.35-43.18-17.89c-6.25-6.25-16.38-6.25-22.63,0-6.25,6.25-6.25,16.38,0,22.63,17.58,17.58,40.95,27.26,65.81,27.26s48.23-9.68,65.81-27.26l72.66-72.66c17.58-17.58,27.26-40.95,27.26-65.81s-9.68-48.23-27.26-65.81Z"/>
</svg>