<?xml version="1.0" encoding="utf-8"?>
<!-- Generator: Adobe Illustrator 26.2.1, SVG Export Plug-In . SVG Version: 6.00 Build 0)  -->
<svg version="1.1" id="Location" xmlns="http://www.w3.org/2000/svg" xmlns:xlink="http://www.w3.org/1999/xlink" x="0px" y="0px"
	 viewBox="0 0 512 512" style="enable-background:new 0 0 512 512;" xml:space="preserve">
<g>
	<g>
		<g>
			<path d="M256,288c-47.1,0-85.3-38.3-85.3-85.3c0-47.1,38.3-85.3,85.3-85.3c47.1,0,85.3,38.3,85.3,85.3
				C341.3,249.7,303.1,288,256,288z M256,149.3c-29.4,0-53.3,23.9-53.3,53.3c0,29.4,23.9,53.3,53.3,53.3s53.3-23.9,53.3-53.3
				C309.3,173.3,285.4,149.3,256,149.3z"/>
		</g>
		<g>
			<path d="M253.3,469.3c-17.4,0-36.7-7.7-55.8-22.2c-18-13.7-35.5-33.2-50.6-56.4c-34.6-53.2-53.6-120-53.6-188
				c0-19.7,3.5-38.9,10.5-57.2c3.2-8.3,12.4-12.4,20.7-9.2c8.3,3.2,12.4,12.4,9.2,20.7c-5.6,14.6-8.4,30-8.4,45.7
				c0,83.6,30.3,142.8,48.4,170.6c28.7,44.2,60.7,64,79.6,64c16.9,0,48.4-20.1,77.7-64.2c18.8-28.3,50.3-88.1,50.3-170.5
				c0-70.6-57.4-128-128-128c-20.9,0-40.9,4.9-59.3,14.5c-7.8,4.1-17.5,1.1-21.6-6.8s-1.1-17.5,6.8-21.6
				c22.7-11.9,48.3-18.2,74.1-18.2c88.2,0,160,71.8,160,160c0,67.3-19.8,134.1-55.7,188.2C325.5,439.3,285.5,469.3,253.3,469.3z"/>
		</g>
	</g>
</g>
</svg>
