<?xml version="1.0" encoding="utf-8"?>
<!-- Generator: Adobe Illustrator 26.2.1, SVG Export Plug-In . SVG Version: 6.00 Build 0)  -->
<svg version="1.1" id="Top" xmlns="http://www.w3.org/2000/svg" xmlns:xlink="http://www.w3.org/1999/xlink" x="0px" y="0px"
	 viewBox="0 0 512 512" style="enable-background:new 0 0 512 512;" xml:space="preserve">
<g>
	<path d="M394.7,181.6V144c0-44.1-35.9-80-80-80H197.3c-44.1,0-80,35.9-80,80v37.6C87.5,184.3,64,209.5,64,240v10.7
		c0,8.8,7.2,16,16,16s16-7.2,16-16V240c0-14.7,12-26.7,26.7-26.7h266.7c14.7,0,26.7,12,26.7,26.7v149.3c0,14.7-12,26.7-26.7,26.7
		H122.7C108,416,96,404,96,389.3v-57c0-8.8-7.2-16-16-16s-16,7.2-16,16v57c0,32.3,26.3,58.7,58.7,58.7h266.7
		c32.3,0,58.7-26.3,58.7-58.7V240C448,209.5,424.5,184.3,394.7,181.6z M197.3,96h117.3c26.5,0,48,21.5,48,48v37.3H149.3V144
		C149.3,117.5,170.9,96,197.3,96z"/>
	<path d="M256,394.7c20.6,0,37.3-16.7,37.3-37.3v-18.8c13.3-11,21.3-27.6,21.3-45.2c0-32.3-26.3-58.7-58.7-58.7
		s-58.7,26.3-58.7,58.7c0,17.6,8,34.2,21.3,45.2v18.8C218.7,377.9,235.4,394.7,256,394.7z M256,266.7c14.7,0,26.7,12,26.7,26.7
		c0,9.6-5,18.2-13.3,23l-8,4.6v36.4c0,2.9-2.4,5.3-5.3,5.3c-2.9,0-5.3-2.4-5.3-5.3V321l-8-4.6c-8.3-4.8-13.3-13.4-13.3-23
		C229.3,278.6,241.3,266.7,256,266.7z"/>
</g>
</svg>
