<?xml version="1.0" encoding="utf-8"?>
<!-- Generator: Adobe Illustrator 26.2.1, SVG Export Plug-In . SVG Version: 6.00 Build 0)  -->
<svg version="1.1" xmlns="http://www.w3.org/2000/svg" xmlns:xlink="http://www.w3.org/1999/xlink" x="0px" y="0px"
	 viewBox="0 0 512 512" style="enable-background:new 0 0 512 512;" xml:space="preserve">
<g id="Center_Fold">
</g>
<g id="Right_Fold">
</g>
<g id="Left_Fold">
</g>
<g id="Road">
	<path d="M456.8,119l-130-33.1c-1.8-0.5-3.7-0.6-5.5-0.4c-1.8-0.2-3.7-0.1-5.6,0.4l-126.8,32.3L62.1,85.8c-4.8-1.2-9.9-0.2-13.8,2.9
		c-3.9,3-6.2,7.7-6.2,12.6v32.1c0,8.8,7.2,16,16,16s16-7.2,16-16v-11.5l98,25v120.2c-1.8-0.1-3.7-0.3-5.5-0.6
		c-24.3-3-41.6-12-41.7-12.1c-7.8-4.1-17.4-1.2-21.6,6.5c-4.2,7.8-1.3,17.5,6.5,21.7c0.9,0.5,21.8,11.6,51.6,15.5
		c3.6,0.5,7.2,0.8,10.8,1v90.9l-98-25V243.4c0-8.8-7.2-16-16-16s-16,7.2-16,16v134.1c0,7.3,5,13.7,12,15.5l130,33.1
		c1.3,0.3,2.6,0.5,4,0.5c0.2,0,0.5,0,0.7,0c0.3,0,0.5,0,0.8,0c1.3,0,2.6-0.2,4-0.5l127.6-32.5l127.6,32.5c1.3,0.3,2.6,0.5,4,0.5
		c3.5,0,7-1.2,9.8-3.4c3.9-3,6.2-7.7,6.2-12.6V134.5C468.8,127.2,463.8,120.8,456.8,119z M303.7,217.1
		c-16.9,4.5-35.2,12.7-53.4,26.9c-14.1,11-29.5,18.1-46.2,21.4V147.3l99.6-25.4V217.1z M204.1,390.5v-92.7
		c23.9-3.7,46.2-13.3,65.8-28.6c10.8-8.4,22-14.6,33.7-18.7v114.6L204.1,390.5z M436.8,390.1l-101.1-25.8V244.5
		c4.6-0.1,9.3,0,14,0.5c22,2.1,37.1,10.2,37.2,10.2c7.7,4.3,17.5,1.5,21.7-6.3c4.3-7.7,1.5-17.5-6.3-21.7
		c-0.8-0.4-19.9-10.9-48-13.9c-5.7-0.6-11.9-0.9-18.7-0.8v-91.4l101.1,25.8V390.1z"/>
</g>
</svg>
