<?xml version="1.0" encoding="utf-8"?>
<!-- Generator: Adobe Illustrator 26.2.1, SVG Export Plug-In . SVG Version: 6.00 Build 0)  -->
<svg version="1.1" xmlns="http://www.w3.org/2000/svg" xmlns:xlink="http://www.w3.org/1999/xlink" x="0px" y="0px"
	 viewBox="0 0 512 512" style="enable-background:new 0 0 512 512;" xml:space="preserve">
<g id="Line_1">
	<g>
		<g>
			<g>
				<g>
					<path d="M453.9,327.4c-2.5,0-5.1-0.6-7.5-1.9L392,296.4c-7.8-4.2-10.7-13.9-6.6-21.7c4.2-7.8,13.9-10.7,21.7-6.6l54.3,29.1
						c7.8,4.2,10.7,13.9,6.6,21.7C465.1,324.3,459.6,327.4,453.9,327.4z"/>
				</g>
			</g>
		</g>
	</g>
</g>
<g id="Line_2">
	<g>
		<path d="M385.9,233.8c-6.4,0-12.5-3.9-14.9-10.2c-3.2-8.2,0.9-17.5,9.1-20.7l52.9-20.6c8.2-3.2,17.5,0.9,20.7,9.1
			c3.2,8.2-0.9,17.5-9.1,20.7l-52.9,20.6C389.8,233.5,387.8,233.8,385.9,233.8z"/>
	</g>
</g>
<g id="Line_3">
	<g>
		<path d="M352.4,177.1c-1.8,0-3.5-0.3-5.3-0.9c-8.3-2.9-12.7-12.1-9.8-20.4l20.4-58.2c2.9-8.3,12.1-12.7,20.4-9.8
			c8.3,2.9,12.7,12.1,9.8,20.4l-20.4,58.2C365.2,173,359,177.1,352.4,177.1z"/>
	</g>
</g>
<g id="Megaphone">
	<path d="M384.7,340.6L302.1,128c-3.6-9.2-14-13.8-23.3-10.3l-49.3,19.1c-9.2,3.6-13.8,14-10.3,23.3l6.6,16.9l-13.2,8.5
		c-7.4,4.8-9.5,14.7-4.8,22.1s14.7,9.5,22.1,4.8l7.7-5l45.8,117.9l-129.9,22l-7.2-18.6L127,279.1l47.5-30.7
		c7.4-4.8,9.5-14.7,4.8-22.1c-4.8-7.4-14.7-9.5-22.1-4.8l-57.1,36.9l-25,9.7c-27.7,10.8-40.4,44.7-28.4,75.6l4,10.3
		c9.5,24.5,31.8,39.9,54.4,39.9c5.9,0,11.9-1.1,17.7-3.3l25-9.7l22.4-3.8c7.1,27.2,31.9,46.5,60.2,46.5c2.3,0,4.7-0.1,7-0.4
		c33.4-3.8,57.7-33.5,55-66.8l3-0.5l6.6,16.9c2.8,7.1,9.6,11.5,16.8,11.5c2.2,0,4.4-0.4,6.5-1.2l49.2-19.1c4.5-1.7,8-5.1,10-9.5
		C386.4,350,386.5,345.1,384.7,340.6z M111.1,360.8c-11.1,4.3-25.1-4.1-30.6-18.4l-4-10.3c-5.5-14.3-0.9-29.9,10.2-34.2l11.6-4.5
		l12.2,31.4l12.2,31.4L111.1,360.8z M233.7,391.5c-14.1,1.6-27.1-6.9-31.8-19.7l58.7-9.9C260.3,376.8,249,389.7,233.7,391.5z
		 M326.7,348.2l-72.5-186.5l23.2-9l72.5,186.5L326.7,348.2z"/>
</g>
</svg>
