<?xml version="1.0" encoding="UTF-8"?>
<svg xmlns="http://www.w3.org/2000/svg" version="1.1" viewBox="0 0 512 512">
  <!-- Generator: Adobe Illustrator 29.1.0, SVG Export Plug-In . SVG Version: 2.1.0 Build 142)  -->
  <g id="One">
    <path d="M197.33,234.67h-96c-20.59,0-37.33-16.75-37.33-37.33v-23.36c0-8.84,7.16-16,16-16s16,7.16,16,16v23.36c0,2.94,2.39,5.33,5.33,5.33h96c2.94,0,5.33-2.39,5.33-5.33v-96c0-2.94-2.39-5.33-5.33-5.33h-96c-2.94,0-5.33,2.39-5.33,5.33v3.79c0,8.84-7.16,16-16,16s-16-7.16-16-16v-3.79c0-20.59,16.75-37.33,37.33-37.33h96c20.59,0,37.33,16.75,37.33,37.33v96c0,20.59-16.75,37.33-37.33,37.33Z"/>
  </g>
  <g id="Two">
    <path d="M411,234.67h-96.67c-20.4,0-37-16.6-37-37v-96.67c0-20.4,16.6-37,37-37h96.67c20.4,0,37,16.6,37,37v96.67c0,20.4-16.6,37-37,37ZM314.33,96c-2.76,0-5,2.24-5,5v96.67c0,2.76,2.24,5,5,5h96.67c2.76,0,5-2.24,5-5v-96.67c0-2.76-2.24-5-5-5h-96.67Z"/>
  </g>
  <g id="Three">
    <path d="M197.67,448h-96.67c-20.4,0-37-16.6-37-37v-96.67c0-20.4,16.6-37,37-37h96.67c20.4,0,37,16.6,37,37v96.67c0,20.4-16.6,37-37,37ZM101,309.33c-2.76,0-5,2.24-5,5v96.67c0,2.76,2.24,5,5,5h96.67c2.76,0,5-2.24,5-5v-96.67c0-2.76-2.24-5-5-5h-96.67Z"/>
  </g>
  <g id="Four">
    <path d="M411,448h-96.67c-20.4,0-37-16.6-37-37v-96.67c0-20.4,16.6-37,37-37h96.67c20.4,0,37,16.6,37,37v96.67c0,20.4-16.6,37-37,37ZM314.33,309.33c-2.76,0-5,2.24-5,5v96.67c0,2.76,2.24,5,5,5h96.67c2.76,0,5-2.24,5-5v-96.67c0-2.76-2.24-5-5-5h-96.67Z"/>
  </g>
</svg>