<?xml version="1.0" encoding="utf-8"?>
<!-- Generator: Adobe Illustrator 26.2.1, SVG Export Plug-In . SVG Version: 6.00 Build 0)  -->
<svg version="1.1" xmlns="http://www.w3.org/2000/svg" xmlns:xlink="http://www.w3.org/1999/xlink" x="0px" y="0px"
	 viewBox="0 0 512 512" style="enable-background:new 0 0 512 512;" xml:space="preserve">
<g id="Line">
	<g>
		<g>
			<path d="M453.3,426.7c-8.8,0-16-7.2-16-16V101.3c0-8.8,7.2-16,16-16s16,7.2,16,16v309.3C469.3,419.5,462.2,426.7,453.3,426.7z"/>
		</g>
	</g>
</g>
<g id="Triangle">
	<g>
		<path d="M100.2,425.2c-11.1,0-22.2-3.1-31.9-9.3c-16-10.2-25.6-27.3-25.6-45.7V129.9c0-15.2,7.9-29.3,21.1-37.6
			c14.1-9,31.7-10.1,46.9-3l33.8,15.8c8,3.7,11.5,13.3,7.7,21.3c-3.7,8-13.3,11.5-21.3,7.7l-33.8-15.8c-5.3-2.5-11.3-2.1-16.2,1
			c-2.3,1.5-6.2,4.8-6.2,10.6v240.3c0,7.5,3.9,14.3,10.8,18.7c8,5.1,18,5.7,26.7,1.6l258.5-121c7.3-3.4,8-9.3,8-11.6
			c0-2.4-0.8-8.2-8-11.6L209.8,171c-8-3.7-11.5-13.3-7.7-21.3c3.7-8,13.3-11.5,21.3-7.7l160.8,75.2c16.3,7.6,26.5,23.2,26.5,40.6
			c0,17.4-10.1,33-26.5,40.6l-258.5,121C117.5,423.3,108.9,425.2,100.2,425.2z"/>
	</g>
</g>
</svg>
