<?xml version="1.0" encoding="utf-8"?>
<!-- Generator: Adobe Illustrator 26.2.1, SVG Export Plug-In . SVG Version: 6.00 Build 0)  -->
<svg version="1.1" xmlns="http://www.w3.org/2000/svg" xmlns:xlink="http://www.w3.org/1999/xlink" x="0px" y="0px"
	 viewBox="0 0 512 512" style="enable-background:new 0 0 512 512;" xml:space="preserve">
<g id="Document">
</g>
<g id="T">
</g>
<g id="F">
</g>
<g id="N">
</g>
<g id="Circle">
</g>
<g id="Line_2">
</g>
<g id="Line_1">
	<g>
		<path d="M463.6,230.5l-54.2-111.6c-9.9-20.4-31.2-33.7-54.2-33.7h-21.3c-9.1,0-16.5,7.4-16.5,16.5s7.4,16.5,16.5,16.5h21.3
			c10.5,0,20.1,5.9,24.5,15.1l54.2,111.6c3.5,7.3,3.5,15.6,0,22.9l-54.1,111.1c-4.4,9.1-14.1,15-24.5,15H157
			c-10.4,0-20-5.8-24.4-14.9L77.5,268c-3.6-7.3-3.6-15.9,0-23.2l55.2-111.6c4.5-9.1,14.1-14.9,24.5-14.9h98.6
			c9.1,0,16.5-7.4,16.5-16.5s-7.4-16.5-16.5-16.5h-98.6c-22.8,0-44.1,13.1-54,33.3L47.9,230.1c-8.1,16.4-8.1,36.1,0,52.5L103,393.8
			c10,20.2,31.2,33.2,54,33.2h198.2c23,0,44.3-13.2,54.2-33.6l54.1-111.1C471.6,265.8,471.6,246.9,463.6,230.5z"/>
		<path d="M328.3,219.8h8.6v88.9c0,9.1,7.4,16.5,16.5,16.5s16.5-7.4,16.5-16.5v-88.9h8.6c9.1,0,16.5-7.4,16.5-16.5
			s-7.4-16.5-16.5-16.5h-50.2c-9.1,0-16.5,7.4-16.5,16.5S319.2,219.8,328.3,219.8z"/>
		<path d="M212.6,203.3v105.4c0,9.1,7.4,16.5,16.5,16.5s16.5-7.4,16.5-16.5v-35.9h36.6c9.1,0,16.5-7.4,16.5-16.5
			s-7.4-16.5-16.5-16.5h-36.6v-20.1h36.6c9.1,0,16.5-7.4,16.5-16.5s-7.4-16.5-16.5-16.5h-53.1C220,186.8,212.6,194.2,212.6,203.3z"
			/>
		<path d="M187.8,324.8c7.5-1.7,12.9-8.4,12.9-16.1V203.3c0-9.1-7.4-16.5-16.5-16.5s-16.5,7.4-16.5,16.5v32.4l-18.8-39.5
			c-3.3-7-11-10.7-18.5-9c-7.5,1.7-12.9,8.4-12.9,16.1v105.4c0,9.1,7.4,16.5,16.5,16.5s16.5-7.4,16.5-16.5v-32.4l18.8,39.5
			c2.8,5.8,8.6,9.4,14.9,9.4C185.4,325.2,186.6,325.1,187.8,324.8z"/>
		<circle cx="158.8" cy="357.4" r="15.8"/>
		<path d="M205,373.4h148.4c8.8,0,16-7.2,16-16s-7.2-16-16-16H205c-8.8,0-16,7.2-16,16S196.1,373.4,205,373.4z"/>
		<path d="M159.1,171.1h96.5c9.1,0,16.5-7.4,16.5-16.5s-7.4-16.5-16.5-16.5h-96.5c-9.1,0-16.5,7.4-16.5,16.5S150,171.1,159.1,171.1z
			"/>
	</g>
</g>
</svg>
