<?xml version="1.0" encoding="utf-8"?>
<!-- Generator: Adobe Illustrator 26.2.1, SVG Export Plug-In . SVG Version: 6.00 Build 0)  -->
<svg version="1.1" id="Bell" xmlns="http://www.w3.org/2000/svg" xmlns:xlink="http://www.w3.org/1999/xlink" x="0px" y="0px"
	 viewBox="0 0 512 512" style="enable-background:new 0 0 512 512;" xml:space="preserve">
<path d="M411.1,282C411.1,282,411.1,282,411.1,282L411.1,282c-10.7,0-19.4-8.7-19.4-19.4v-63.2c0-19.9-4.2-39.2-12.6-57.1
	c-3.7-8-13.2-11.5-21.3-7.7c-8,3.7-11.5,13.3-7.7,21.3c6.4,13.7,9.6,28.4,9.6,43.6v63.2c0,28.3,23.1,51.4,51.4,51.4v0c0,0,0,0,0,0
	c2.9,0,5.3,2.4,5.3,5.3v25c0,2.9-2.4,5.3-5.3,5.3H101.6c-2.9,0-5.3-2.4-5.3-5.3v-25c0-2.9,2.4-5.3,5.3-5.3c0,0,0,0,0,0s0,0,0,0
	c28.3,0,51.4-23.1,51.4-51.4v-63.2c0-57,46.4-103.4,103.4-103.4c15.9,0,31.2,3.5,45.4,10.5c7.9,3.9,17.5,0.6,21.4-7.3
	c3.9-7.9,0.6-17.5-7.3-21.4C297.2,68.6,277.2,64,256.3,64C181.7,64,121,124.7,121,199.4v63.2c0,10.7-8.7,19.4-19.4,19.4
	c-20.6,0-37.3,16.7-37.3,37.3v25c0,20.6,16.7,37.3,37.3,37.3h74.4c7.5,37.6,40.7,66,80.4,66s72.9-28.4,80.4-66h74.4
	c20.6,0,37.3-16.7,37.3-37.3v-25C448.4,298.7,431.7,282,411.1,282z M256.3,415.6c-22,0-40.6-14.2-47.3-34h94.7
	C297,401.4,278.3,415.6,256.3,415.6z"/>
</svg>
