<?xml version="1.0" encoding="utf-8"?>
<!-- Generator: Adobe Illustrator 26.2.1, SVG Export Plug-In . SVG Version: 6.00 Build 0)  -->
<svg version="1.1" id="Phone" xmlns="http://www.w3.org/2000/svg" xmlns:xlink="http://www.w3.org/1999/xlink" x="0px" y="0px"
	 viewBox="0 0 512 512" style="enable-background:new 0 0 512 512;" xml:space="preserve">
<path d="M469.2,105c0-0.1,0-0.2,0-0.3c0,0,0,0,0-0.1c0-0.2,0.1-0.5,0.1-0.7c0-0.1,0-0.2,0-0.3c0-0.2,0-0.3,0-0.5c0-0.2,0-0.4,0-0.6
	c0-0.1,0-0.2,0-0.3c0-0.2,0-0.4,0-0.7c0-0.2,0-0.3,0-0.5c0-0.1,0-0.2,0-0.3c0-0.3-0.1-0.5-0.1-0.8c0-0.1,0-0.2,0-0.3
	c0-0.1-0.1-0.3-0.1-0.4c-0.1-0.2-0.1-0.5-0.2-0.7c0-0.1-0.1-0.3-0.1-0.4c0-0.1-0.1-0.3-0.1-0.4c-0.1-0.2-0.1-0.4-0.2-0.6
	c-0.1-0.2-0.1-0.3-0.2-0.5c0-0.1,0-0.1-0.1-0.2c0-0.1-0.1-0.2-0.1-0.2c-0.1-0.2-0.1-0.3-0.2-0.5c-0.1-0.2-0.2-0.3-0.3-0.5
	c-0.1-0.2-0.2-0.3-0.3-0.5c-0.1-0.1-0.1-0.2-0.2-0.3c-0.1-0.2-0.2-0.3-0.3-0.5c-0.1-0.2-0.2-0.4-0.4-0.5c-0.1-0.1-0.1-0.2-0.2-0.2
	c-0.1-0.1-0.2-0.3-0.3-0.4c-0.2-0.2-0.3-0.4-0.5-0.6c-0.1-0.1-0.1-0.1-0.2-0.2c0,0,0,0-0.1-0.1c-0.1-0.1-0.2-0.2-0.3-0.3
	c-0.2-0.2-0.4-0.4-0.6-0.6c-0.1-0.1-0.1-0.1-0.2-0.2c-0.1-0.1-0.3-0.2-0.4-0.3c-0.2-0.2-0.4-0.3-0.6-0.5c-0.1-0.1-0.1-0.1-0.2-0.2
	c-0.2-0.1-0.3-0.2-0.5-0.4c-0.2-0.1-0.3-0.2-0.5-0.4c-0.2-0.1-0.4-0.2-0.6-0.3c-0.1-0.1-0.2-0.1-0.3-0.2c-0.1-0.1-0.3-0.2-0.4-0.3
	c-0.1,0-0.1-0.1-0.2-0.1c-0.2-0.1-0.4-0.2-0.6-0.2c-0.1,0-0.1-0.1-0.2-0.1c-0.1-0.1-0.2-0.1-0.4-0.2c-0.1,0-0.2-0.1-0.2-0.1
	c-0.2-0.1-0.4-0.1-0.6-0.2c-0.1,0-0.2-0.1-0.3-0.1c-0.1,0-0.2-0.1-0.3-0.1c-0.1,0-0.2-0.1-0.3-0.1c-0.2-0.1-0.4-0.1-0.6-0.1
	c-0.2,0-0.4-0.1-0.6-0.1c-0.1,0-0.3,0-0.4-0.1c-0.1,0-0.2,0-0.3-0.1c-0.1,0-0.2,0-0.3,0c-0.2,0-0.3-0.1-0.5-0.1c-0.2,0-0.4,0-0.5,0
	c-0.2,0-0.4,0-0.5,0c-0.1,0-0.3,0-0.4,0c-0.2,0-0.4,0-0.6,0c-0.2,0-0.3,0-0.5,0c-0.1,0-0.2,0-0.4,0c-0.2,0-0.4,0-0.7,0.1
	c-0.2,0-0.3,0-0.5,0.1c-0.1,0-0.3,0-0.4,0.1c-0.2,0-0.4,0.1-0.6,0.1c-0.1,0-0.1,0-0.2,0c-0.1,0-0.2,0-0.2,0c-0.2,0-0.3,0.1-0.5,0.1
	c-0.2,0.1-0.4,0.1-0.6,0.2c-0.3,0.1-0.6,0.2-1,0.3c-0.1,0-0.2,0.1-0.3,0.1L121.5,222.6c0,0,0,0,0,0l-68.9,28.6
	c-0.1,0-0.2,0.1-0.3,0.2c-0.3,0.1-0.5,0.2-0.8,0.4c-0.2,0.1-0.4,0.2-0.7,0.3c-0.2,0.1-0.5,0.3-0.7,0.4c-0.2,0.1-0.4,0.3-0.7,0.4
	c-0.2,0.1-0.4,0.3-0.6,0.4c-0.2,0.2-0.4,0.3-0.6,0.5c-0.2,0.2-0.4,0.3-0.6,0.5c-0.2,0.2-0.4,0.4-0.6,0.5c-0.2,0.2-0.4,0.4-0.5,0.6
	c-0.2,0.2-0.3,0.4-0.5,0.6c-0.2,0.2-0.3,0.4-0.5,0.7c-0.1,0.2-0.3,0.4-0.4,0.6c-0.1,0.2-0.3,0.5-0.4,0.7c-0.1,0.2-0.2,0.4-0.4,0.7
	c-0.1,0.2-0.2,0.5-0.3,0.7c-0.1,0.3-0.2,0.5-0.3,0.8c0,0.1-0.1,0.2-0.1,0.3c0,0.1-0.1,0.2-0.1,0.3c-0.1,0.3-0.2,0.5-0.3,0.8
	c-0.1,0.2-0.1,0.5-0.2,0.7c-0.1,0.3-0.1,0.5-0.2,0.8c0,0.3-0.1,0.5-0.1,0.8c0,0.3-0.1,0.5-0.1,0.8c0,0.3,0,0.5,0,0.8
	c0,0.3,0,0.5,0,0.8c0,0.3,0,0.5,0,0.8c0,0.3,0,0.5,0.1,0.8c0,0.3,0.1,0.5,0.1,0.8c0,0.3,0.1,0.5,0.2,0.7c0.1,0.3,0.1,0.5,0.2,0.8
	c0.1,0.2,0.1,0.5,0.2,0.7c0.1,0.3,0.2,0.5,0.3,0.8c0,0.1,0.1,0.2,0.1,0.3c0.1,0.2,0.1,0.3,0.2,0.4c0.1,0.1,0.1,0.3,0.2,0.4
	c0.2,0.4,0.4,0.7,0.5,1c0,0.1,0.1,0.1,0.1,0.2c0.2,0.4,0.5,0.8,0.8,1.2c0,0.1,0.1,0.1,0.1,0.2c0.2,0.3,0.5,0.6,0.8,1
	c0.1,0.1,0.2,0.2,0.3,0.3c0.2,0.3,0.5,0.5,0.8,0.8c0.1,0.1,0.2,0.2,0.3,0.3c0.3,0.3,0.7,0.6,1.1,0.9c0.1,0.1,0.2,0.1,0.3,0.2
	c0.3,0.2,0.6,0.4,0.9,0.6c0.1,0.1,0.3,0.2,0.4,0.2c0.3,0.2,0.6,0.4,1,0.5c0.1,0,0.2,0.1,0.3,0.1c0.4,0.2,0.9,0.4,1.3,0.6
	c0,0,0.1,0,0.1,0l101.6,36.5l64.7,102.8c0.9,1.6,2,3.1,3.5,4.4c3,2.7,6.8,4,10.6,4c0.9,0,1.7-0.1,2.6-0.2c0.1,0,0.1,0,0.2,0
	c0,0,0.1,0,0.1,0c0.3-0.1,0.6-0.1,0.9-0.2c0.2,0,0.4-0.1,0.6-0.2c0.2-0.1,0.5-0.1,0.7-0.2c0.4-0.1,0.8-0.3,1.2-0.5
	c0.1-0.1,0.3-0.1,0.4-0.2c0.4-0.2,0.7-0.3,1-0.5c0.1-0.1,0.2-0.1,0.3-0.2c1.7-1,3.2-2.2,4.4-3.7l48.5-54.9c0-0.1,0.1-0.1,0.1-0.2
	L401.3,406c1.8,0.6,3.6,0.9,5.4,0.9c2.8,0,5.6-0.7,8.1-2.2c4.1-2.4,6.9-6.5,7.7-11.2l6.6-41.1c1.4-8.7-4.5-16.9-13.2-18.3
	c-8.7-1.4-16.9,4.5-18.3,13.2l-3.6,22.1L278.8,328l149.8-172.6l-17.5,108c-1.4,8.7,4.5,16.9,13.2,18.3c0.9,0.1,1.7,0.2,2.6,0.2
	c7.7,0,14.5-5.6,15.8-13.4l26.4-163.4c0,0,0,0,0,0L469.2,105z M220,216.5C220,216.5,220,216.4,220,216.5l104.3-43.2L162.7,286.3
	l-59.6-21.4L220,216.5z M238.6,325.5c-1.7,2-3,4.4-3.5,7l-8.5,38.7L187,308.4l169.3-118.4L238.6,325.5z"/>
</svg>
