<?xml version="1.0" encoding="UTF-8"?>
<svg id="Lock" xmlns="http://www.w3.org/2000/svg" version="1.1" viewBox="0 0 512 512">
  <!-- Generator: Adobe Illustrator 29.1.0, SVG Export Plug-In . SVG Version: 2.1.0 Build 142)  -->
  <path d="M362.67,385.29l12.69,12.69c3.12,3.12,7.22,4.69,11.31,4.69s8.19-1.56,11.31-4.69c6.25-6.25,6.25-16.38,0-22.63l-12.69-12.69,12.69-12.69c6.25-6.25,6.25-16.38,0-22.63-6.25-6.25-16.38-6.25-22.63,0l-12.69,12.69-12.69-12.69c-6.25-6.25-16.38-6.25-22.63,0-6.25,6.25-6.25,16.38,0,22.63l12.69,12.69-12.69,12.69c-6.25,6.25-6.25,16.38,0,22.63,3.12,3.12,7.22,4.69,11.31,4.69s8.19-1.56,11.31-4.69l12.69-12.69Z"/>
  <path d="M291.31,327.35c-6.25-6.25-16.38-6.25-22.63,0l-12.69,12.69-12.69-12.69c-6.25-6.25-16.38-6.25-22.63,0-6.25,6.25-6.25,16.38,0,22.63l12.69,12.69-12.69,12.69c-6.25,6.25-6.25,16.38,0,22.63,3.12,3.12,7.22,4.69,11.31,4.69s8.19-1.56,11.31-4.69l12.69-12.69,12.69,12.69c3.12,3.12,7.22,4.69,11.31,4.69s8.19-1.56,11.31-4.69c6.25-6.25,6.25-16.38,0-22.63l-12.69-12.69,12.69-12.69c6.25-6.25,6.25-16.38,0-22.63Z"/>
  <path d="M184.65,327.35c-6.25-6.25-16.38-6.25-22.63,0l-12.69,12.69-12.69-12.69c-6.25-6.25-16.38-6.25-22.63,0-6.25,6.25-6.25,16.38,0,22.63l12.69,12.69-12.69,12.69c-6.25,6.25-6.25,16.38,0,22.63,3.12,3.12,7.22,4.69,11.31,4.69s8.19-1.56,11.31-4.69l12.69-12.69,12.69,12.69c3.12,3.12,7.22,4.69,11.31,4.69s8.19-1.56,11.31-4.69c6.25-6.25,6.25-16.38,0-22.63l-12.69-12.69,12.69-12.69c6.25-6.25,6.25-16.38,0-22.63Z"/>
  <path d="M389.33,277.33H122.67c-32.35,0-58.67,26.32-58.67,58.67v53.33c0,32.35,26.32,58.67,58.67,58.67h157.33c8.84,0,16-7.16,16-16s-7.16-16-16-16H122.67c-14.7,0-26.67-11.96-26.67-26.67v-53.33c0-14.7,11.96-26.67,26.67-26.67h266.67c14.7,0,26.67,11.96,26.67,26.67v53.33c0,14.7-11.96,26.67-26.67,26.67h-26.67c-8.84,0-16,7.16-16,16s7.16,16,16,16h26.67c32.35,0,58.67-26.32,58.67-58.67v-53.33c0-32.35-26.32-58.67-58.67-58.67Z"/>
  <path d="M205.27,250.67h101.45c17.77,0,32.23-14.46,32.23-32.23v-56.81c0-13.55-8.41-25.17-20.29-29.93v-27.93c0-22.25-18.1-40.35-40.35-40.35h-44.64c-22.25,0-40.35,18.1-40.35,40.35v27.93c-11.88,4.76-20.29,16.37-20.29,29.93v56.81c0,17.77,14.46,32.23,32.23,32.23ZM306.96,218.43c0,.13-.1.23-.23.23h-101.45c-.13,0-.23-.1-.23-.23v-56.81c0-.13.1-.23.23-.23h101.45c.13,0,.23.1.23.23v56.81ZM233.68,95.42h44.64c4.6,0,8.35,3.75,8.35,8.35v25.62h-61.33v-25.62c0-4.6,3.75-8.35,8.35-8.35Z"/>
</svg>