<?xml version="1.0" encoding="utf-8"?>
<!-- Generator: Adobe Illustrator 26.2.1, SVG Export Plug-In . SVG Version: 6.00 Build 0)  -->
<svg version="1.1" xmlns="http://www.w3.org/2000/svg" xmlns:xlink="http://www.w3.org/1999/xlink" x="0px" y="0px"
	 viewBox="0 0 512 512" style="enable-background:new 0 0 512 512;" xml:space="preserve">
<g id="Line_1">
	<g>
		<g>
			<path d="M176,469.3h-32c-32.3,0-58.7-26.3-58.7-58.7V204.9c0-8.8,7.2-16,16-16s16,7.2,16,16v205.7c0,14.7,12,26.7,26.7,26.7h32
				c14.7,0,26.7-12,26.7-26.7V101.3c0-14.7-12-26.7-26.7-26.7h-32c-14.7,0-26.7,12-26.7,26.7v14.5c0,8.8-7.2,16-16,16s-16-7.2-16-16
				v-14.5c0-32.3,26.3-58.7,58.7-58.7h32c32.3,0,58.7,26.3,58.7,58.7v309.3C234.7,443,208.3,469.3,176,469.3z"/>
		</g>
	</g>
</g>
<g id="Line_2">
	<g>
		<path d="M368.7,469.3h-33.3c-32,0-58-26-58-58V100.7c0-32,26-58,58-58h33.3c32,0,58,26,58,58v310.7
			C426.7,443.3,400.6,469.3,368.7,469.3z M335.3,74.7c-14.3,0-26,11.7-26,26v310.7c0,14.3,11.7,26,26,26h33.3c14.3,0,26-11.7,26-26
			V100.7c0-14.3-11.7-26-26-26H335.3z"/>
	</g>
</g>
</svg>
