<?xml version="1.0" encoding="UTF-8"?>
<svg id="Pencil" xmlns="http://www.w3.org/2000/svg" version="1.1" viewBox="0 0 512 512">
  <!-- Generator: Adobe Illustrator 29.1.0, SVG Export Plug-In . SVG Version: 2.1.0 Build 142)  -->
  <path d="M434.95,85.35l-7.37-7.37c-18.71-18.71-49.16-18.72-67.88,0l-71.74,71.74c-6.25,6.25-6.25,16.38,0,22.63,6.25,6.25,16.38,6.25,22.63,0l17.11-17.11,30,30-157.01,157.01-30-30,63.75-63.75c6.25-6.25,6.25-16.38,0-22.63s-16.38-6.25-22.63,0l-75.06,75.07c-6.25,6.25-6.25,16.38,0,22.63l52.62,52.62c3.12,3.12,7.22,4.69,11.31,4.69s8.19-1.56,11.31-4.69l222.95-222.95c18.71-18.71,18.71-49.17,0-67.88ZM412.32,130.61l-32,32-30-30,32-32c6.24-6.24,16.39-6.24,22.63,0l7.37,7.37c6.24,6.24,6.24,16.39,0,22.63Z"/>
  <path d="M125.5,334.81c-3.8-3.8-9.25-5.44-14.52-4.36-5.27,1.08-9.64,4.73-11.64,9.72l-35.2,87.71c-2.38,5.94-1,12.73,3.53,17.26,3.06,3.06,7.16,4.7,11.33,4.7,2,0,4.01-.37,5.93-1.14l87.82-35.08c5-2,8.65-6.37,9.74-11.64,1.08-5.27-.55-10.73-4.36-14.53l-52.62-52.62ZM107.76,405.11l12.25-30.54,18.32,18.32-30.58,12.21Z"/>
</svg>