<?xml version="1.0" encoding="utf-8"?>
<!-- Generator: Adobe Illustrator 26.2.1, SVG Export Plug-In . SVG Version: 6.00 Build 0)  -->
<svg version="1.1" xmlns="http://www.w3.org/2000/svg" xmlns:xlink="http://www.w3.org/1999/xlink" x="0px" y="0px"
	 viewBox="0 0 512 512" style="enable-background:new 0 0 512 512;" xml:space="preserve">
<g id="Phone">
	<g>
		<path d="M304,42.7h-96c-32.3,0-58.7,26.3-58.7,58.7v21.2c0,8.8,7.2,16,16,16s16-7.2,16-16v-21.2c0-14.7,12-26.7,26.7-26.7h14.3
			c2.2,6.2,8.1,10.7,15.1,10.7h37.3c7,0,12.9-4.5,15.1-10.7H304c14.7,0,26.7,12,26.7,26.7v309.3c0,14.7-12,26.7-26.7,26.7h-96
			c-14.7,0-26.7-12-26.7-26.7V202.9c0-8.8-7.2-16-16-16s-16,7.2-16,16v207.8c0,32.3,26.3,58.7,58.7,58.7h96
			c32.3,0,58.7-26.3,58.7-58.7V101.3C362.7,69,336.3,42.7,304,42.7z"/>
		<g>
			<path d="M293.3,416h-74.7c-8.8,0-16-7.2-16-16s7.2-16,16-16h74.7c8.8,0,16,7.2,16,16S302.2,416,293.3,416z"/>
		</g>
	</g>
</g>
<g id="Lines">
</g>
</svg>
