<?xml version="1.0" encoding="utf-8"?>
<!-- Generator: Adobe Illustrator 26.2.1, SVG Export Plug-In . SVG Version: 6.00 Build 0)  -->
<svg version="1.1" xmlns="http://www.w3.org/2000/svg" xmlns:xlink="http://www.w3.org/1999/xlink" x="0px" y="0px"
	 viewBox="0 0 512 512" style="enable-background:new 0 0 512 512;" xml:space="preserve">
<g id="Frame">
</g>
<g id="Mountain">
</g>
<g id="Sun">
	<g>
		<path d="M389.3,64H256c-8.8,0-16,7.2-16,16s7.2,16,16,16h133.3c14.7,0,26.7,12,26.7,26.7v154.7l-52.1-52.1
			c-10.5-10.5-24.4-16.2-39.2-16.2c-14.8,0-28.7,5.8-39.2,16.2l-60.9,60.9c-4.4,4.4-10.3,6.9-16.6,6.9s-12.1-2.4-16.6-6.9
			c-10.5-10.5-24.4-16.2-39.2-16.2s-28.7,5.8-39.2,16.2L96,303.2V122.7C96,108,108,96,122.7,96h38.5c8.8,0,16-7.2,16-16
			s-7.2-16-16-16h-38.5C90.3,64,64,90.3,64,122.7v266.7c0,32.3,26.3,58.7,58.7,58.7h266.7c32.3,0,58.7-26.3,58.7-58.7V122.7
			C448,90.3,421.7,64,389.3,64z M389.3,416H122.7C108,416,96,404,96,389.3v-40.9l39.7-39.7c4.4-4.4,10.3-6.9,16.6-6.9
			s12.1,2.4,16.6,6.9c10.5,10.5,24.4,16.2,39.2,16.2s28.7-5.8,39.2-16.2l60.9-60.9c4.4-4.4,10.3-6.9,16.6-6.9s12.1,2.4,16.6,6.9
			l74.8,74.8v66.7C416,404,404,416,389.3,416z"/>
		<path d="M128,186.7c0,32.3,26.3,58.7,58.7,58.7c32.3,0,58.7-26.3,58.7-58.7c0-32.3-26.3-58.7-58.7-58.7
			C154.3,128,128,154.3,128,186.7z M186.7,160c14.7,0,26.7,12,26.7,26.7s-12,26.7-26.7,26.7s-26.7-12-26.7-26.7S172,160,186.7,160z"
			/>
	</g>
</g>
</svg>
