<?xml version="1.0" encoding="utf-8"?>
<!-- Generator: Adobe Illustrator 26.2.1, SVG Export Plug-In . SVG Version: 6.00 Build 0)  -->
<svg version="1.1" id="Pin" xmlns="http://www.w3.org/2000/svg" xmlns:xlink="http://www.w3.org/1999/xlink" x="0px" y="0px"
	 viewBox="0 0 512 512" style="enable-background:new 0 0 512 512;" xml:space="preserve">
<path d="M429.5,162.3l-79.7-79.7c-12.1-12.1-28.2-18.8-45.4-18.8s-33.3,6.7-45.4,18.8l-14.1,14.1c-6.2,6.2-6.2,16.4,0,22.6
	c6.2,6.2,16.4,6.2,22.6,0l14.1-14.1c6.1-6.1,14.2-9.4,22.8-9.4s16.7,3.3,22.8,9.4l79.7,79.7c12.6,12.6,12.6,33,0,45.5l-84.5,84.5
	c-8,8-13.8,18-16.7,29l-12.5,47.4c-3,11.3-11.4,19.9-22.7,22.9c-11.2,3-22.9-0.1-31.1-8.3L172.4,339c0,0,0,0,0,0s0,0,0,0l-66.8-66.8
	c-8.3-8.3-11.4-20-8.3-31.4c3.1-11.3,11.8-19.8,23.1-22.7l47.1-11.8c11.3-2.8,21.6-8.7,29.8-16.9l10.4-10.4c6.2-6.2,6.2-16.4,0-22.6
	s-16.4-6.2-22.6,0l-10.4,10.4c-4.1,4.1-9.3,7-14.9,8.5l-47.2,11.8c-22.7,5.8-40,22.7-46.2,45.2c-6.2,22.6,0,45.9,16.5,62.5
	l55.5,55.5l-69.8,69.8c-6.2,6.2-6.2,16.4,0,22.6c3.1,3.1,7.2,4.7,11.3,4.7s8.2-1.6,11.3-4.7l69.8-69.8l55.6,55.6
	c12.3,12.3,28.4,18.9,45.1,18.9c5.6,0,11.4-0.8,17-2.3c22.4-6.1,39.3-23.1,45.2-45.6l12.5-47.4c1.5-5.5,4.3-10.5,8.4-14.5l84.5-84.5
	C454.5,228,454.5,187.3,429.5,162.3z"/>
</svg>
