<?xml version="1.0" encoding="utf-8"?>
<!-- Generator: Adobe Illustrator 26.2.1, SVG Export Plug-In . SVG Version: 6.00 Build 0)  -->
<svg version="1.1" xmlns="http://www.w3.org/2000/svg" xmlns:xlink="http://www.w3.org/1999/xlink" x="0px" y="0px"
	 viewBox="0 0 512 512" style="enable-background:new 0 0 512 512;" xml:space="preserve">
<g id="Note">
</g>
<g id="Note_Line">
</g>
<g id="Circle_1">
</g>
<g id="Circle_2">
	<path d="M448.5,117.4c0-18.7-9.1-36.3-24.4-47c-15.3-10.8-34.9-13.4-52.5-7.1l-67.2,24.1c-33.1,11.8-55.3,43.4-55.3,78.5V357
		c-4.7-1.6-9.7-2.5-15-2.5c-25.9,0-47,21.1-47,47s21.1,47,47,47c25.9,0,47-21.1,47-47c0,0,0-0.1,0-0.1c0,0,0,0,0-0.1V222l135.4-48.5
		v106.8c-4.7-1.6-9.7-2.5-15-2.5c-25.9,0-47,21.1-47,47s21.1,47,47,47s47-21.1,47-47c0-1.4-0.1-2.8-0.2-4.2c0.1-0.8,0.2-1.6,0.2-2.4
		V117.4z M281.1,188v-22.2c0-21.6,13.7-41.1,34-48.4l67.2-24.1c7.9-2.8,16.4-1.7,23.3,3.2c6.9,4.8,10.8,12.5,10.8,20.9v22.1
		L281.1,188z"/>
</g>
<g id="Line_1">
	<g>
		<path d="M193.7,282.3H79.5c-8.8,0-16-7.2-16-16s7.2-16,16-16h114.2c8.8,0,16,7.2,16,16S202.5,282.3,193.7,282.3z"/>
	</g>
</g>
<g id="Line_2">
	<g>
		<path d="M193.7,188.9H79.5c-8.8,0-16-7.2-16-16s7.2-16,16-16h114.2c8.8,0,16,7.2,16,16S202.5,188.9,193.7,188.9z"/>
	</g>
</g>
<g id="Line_3">
	<g>
		<path d="M224.8,95.4H79.5c-8.8,0-16-7.2-16-16s7.2-16,16-16h145.4c8.8,0,16,7.2,16,16S233.7,95.4,224.8,95.4z"/>
	</g>
</g>
</svg>
