<?xml version="1.0" encoding="utf-8"?>
<!-- Generator: Adobe Illustrator 26.2.1, SVG Export Plug-In . SVG Version: 6.00 Build 0)  -->
<svg version="1.1" id="Layer_1" xmlns="http://www.w3.org/2000/svg" xmlns:xlink="http://www.w3.org/1999/xlink" x="0px" y="0px"
	 viewBox="0 0 512 512" style="enable-background:new 0 0 512 512;" xml:space="preserve">
<path d="M272,272h65.5c8.8,0,16-7.2,16-16c0-8.8-7.2-16-16-16H272v-65.5c0-8.8-7.2-16-16-16c-8.8,0-16,7.2-16,16V240h-65.5
	c-8.8,0-16,7.2-16,16c0,4.4,1.8,8.4,4.7,11.3s6.9,4.7,11.3,4.7H240v65.5c0,4.4,1.8,8.4,4.7,11.3c2.9,2.9,6.9,4.7,11.3,4.7
	c8.8,0,16-7.2,16-16V272z"/>
<g id="Circle">
	<g>
		<path d="M105.2,406.8c-83.2-83.2-83.2-218.5,0-301.7s218.5-83.2,301.7,0s83.2,218.5,0,301.7S188.3,490,105.2,406.8z M384.2,127.8
			c-70.7-70.7-185.7-70.7-256.4,0s-70.7,185.7,0,256.4s185.7,70.7,256.4,0S454.9,198.5,384.2,127.8z"/>
	</g>
</g>
</svg>
