<?xml version="1.0" encoding="utf-8"?>
<!-- Generator: Adobe Illustrator 26.2.1, SVG Export Plug-In . SVG Version: 6.00 Build 0)  -->
<svg version="1.1" xmlns="http://www.w3.org/2000/svg" xmlns:xlink="http://www.w3.org/1999/xlink" x="0px" y="0px"
	 viewBox="0 0 512 512" style="enable-background:new 0 0 512 512;" xml:space="preserve">
<g id="Line_1">
</g>
<g id="Line_2">
	<path d="M432.1,240H272V79.9c0-8.8-7.2-16-16-16c-8.8,0-16,7.2-16,16V240H79.9c-8.8,0-16,7.2-16,16c0,8.8,7.2,16,16,16H240v160.1
		c0,8.8,7.2,16,16,16c8.8,0,16-7.2,16-16V272h160.1c8.8,0,16-7.2,16-16C448.1,247.2,441,240,432.1,240z"/>
</g>
</svg>
