<?xml version="1.0" encoding="utf-8"?>
<!-- Generator: Adobe Illustrator 26.2.1, SVG Export Plug-In . SVG Version: 6.00 Build 0)  -->
<svg version="1.1" id="Layer_1" xmlns="http://www.w3.org/2000/svg" xmlns:xlink="http://www.w3.org/1999/xlink" x="0px" y="0px"
	 viewBox="0 0 512 512" style="enable-background:new 0 0 512 512;" xml:space="preserve">
<g>
	<g id="Line">
		<g>
			<g>
				<path d="M58.7,84.7c8.8,0,16,7.2,16,16v309.4c0,8.8-7.2,16-16,16s-16-7.2-16-16V100.8C42.7,91.9,49.8,84.7,58.7,84.7z"/>
			</g>
		</g>
	</g>
	<g id="Triangle">
		<g>
			<path d="M411.8,86.2c11.1,0,22.2,3.1,31.9,9.3c16,10.2,25.6,27.3,25.6,45.7v240.3c0,15.2-7.9,29.3-21.1,37.6
				c-14.1,9-31.7,10.1-46.9,3l-33.8-15.8c-8-3.7-11.5-13.3-7.7-21.3c3.7-8,13.3-11.5,21.3-7.7l33.8,15.8c5.3,2.5,11.3,2.1,16.2-1
				c2.3-1.5,6.2-4.8,6.2-10.6V141.2c0-7.5-3.9-14.3-10.8-18.7c-8-5.1-18-5.7-26.7-1.6l-258.5,121c-7.3,3.4-8,9.3-8,11.6
				c0,2.4,0.8,8.2,8,11.6l160.9,75.3c8,3.7,11.5,13.3,7.7,21.3c-3.7,8-13.3,11.5-21.3,7.7l-160.8-75.2
				c-16.3-7.6-26.5-23.2-26.5-40.6s10.1-33,26.5-40.6L386.3,92C394.5,88.1,403.1,86.2,411.8,86.2z"/>
		</g>
	</g>
</g>
</svg>
