<?xml version="1.0" encoding="UTF-8"?>
<svg xmlns="http://www.w3.org/2000/svg" version="1.1" viewBox="0 0 512 512">
  <!-- Generator: Adobe Illustrator 29.1.0, SVG Export Plug-In . SVG Version: 2.1.0 Build 142)  -->
  <g id="Line_3">
    <path d="M432,384c-8.84,0-16-7.16-16-16v-74.67c0-8.84,7.16-16,16-16s16,7.16,16,16v74.67c0,8.84-7.16,16-16,16Z"/>
    <path d="M432,448c-8.84,0-16-7.16-16-16v-16c0-8.84,7.16-16,16-16s16,7.16,16,16v16c0,8.84-7.16,16-16,16Z"/>
  </g>
  <g id="Line_2">
    <path d="M362.67,448c-8.84,0-16-7.16-16-16v-138.67c0-8.84,7.16-16,16-16s16,7.16,16,16v138.67c0,8.84-7.16,16-16,16Z"/>
  </g>
  <g id="Line_1">
    <path d="M293.33,448c-8.84,0-16-7.16-16-16v-64c0-8.84,7.16-16,16-16s16,7.16,16,16v64c0,8.84-7.16,16-16,16Z"/>
    <path d="M293.33,330.67c-8.84,0-16-7.16-16-16v-21.33c0-8.84,7.16-16,16-16s16,7.16,16,16v21.33c0,8.84-7.16,16-16,16Z"/>
  </g>
  <g id="Box_3">
    <path d="M197.67,448h-96.67c-20.4,0-37-16.6-37-37v-96.67c0-20.4,16.6-37,37-37h96.67c20.4,0,37,16.6,37,37v96.67c0,20.4-16.6,37-37,37ZM101,309.33c-2.76,0-5,2.24-5,5v96.67c0,2.76,2.24,5,5,5h96.67c2.76,0,5-2.24,5-5v-96.67c0-2.76-2.24-5-5-5h-96.67Z"/>
    <path d="M154.92,378.67h-11.18c-8.84,0-16-7.16-16-16s7.16-16,16-16h11.18c8.84,0,16,7.16,16,16s-7.16,16-16,16Z"/>
  </g>
  <g id="Box_2">
    <path d="M410.67,234.67h-96c-20.59,0-37.33-16.75-37.33-37.33v-96c0-20.59,16.75-37.33,37.33-37.33h23.36c8.84,0,16,7.16,16,16s-7.16,16-16,16h-23.36c-2.94,0-5.33,2.39-5.33,5.33v96c0,2.94,2.39,5.33,5.33,5.33h96c2.94,0,5.33-2.39,5.33-5.33v-96c0-2.94-2.39-5.33-5.33-5.33h-3.79c-8.84,0-16-7.16-16-16s7.16-16,16-16h3.79c20.59,0,37.33,16.75,37.33,37.33v96c0,20.59-16.75,37.33-37.33,37.33Z"/>
    <path d="M368.26,165.33h-11.18c-8.84,0-16-7.16-16-16s7.16-16,16-16h11.18c8.84,0,16,7.16,16,16s-7.16,16-16,16Z"/>
  </g>
  <g id="Box_1">
    <path d="M197.67,234.67h-96.67c-20.4,0-37-16.6-37-37v-96.67c0-20.4,16.6-37,37-37h96.67c20.4,0,37,16.6,37,37v96.67c0,20.4-16.6,37-37,37ZM101,96c-2.76,0-5,2.24-5,5v96.67c0,2.76,2.24,5,5,5h96.67c2.76,0,5-2.24,5-5v-96.67c0-2.76-2.24-5-5-5h-96.67Z"/>
    <path d="M154.92,165.33h-11.18c-8.84,0-16-7.16-16-16s7.16-16,16-16h11.18c8.84,0,16,7.16,16,16s-7.16,16-16,16Z"/>
  </g>
</svg>