<?xml version="1.0" encoding="utf-8"?>
<!-- Generator: Adobe Illustrator 26.2.1, SVG Export Plug-In . SVG Version: 6.00 Build 0)  -->
<svg version="1.1" xmlns="http://www.w3.org/2000/svg" xmlns:xlink="http://www.w3.org/1999/xlink" x="0px" y="0px"
	 viewBox="0 0 512 512" style="enable-background:new 0 0 512 512;" xml:space="preserve">
<g id="Frame">
	<g>
		<g>
			<path d="M389.3,448H122.7C90.3,448,64,421.7,64,389.3V122.7C64,90.3,90.3,64,122.7,64h266.7c32.3,0,58.7,26.3,58.7,58.7v142.2
				c0,8.8-7.2,16-16,16s-16-7.2-16-16V122.7C416,108,404,96,389.3,96H122.7C108,96,96,108,96,122.7v266.7c0,14.7,12,26.7,26.7,26.7
				h266.7c14.7,0,26.7-12,26.7-26.7v-12.8c0-8.8,7.2-16,16-16s16,7.2,16,16v12.8C448,421.7,421.7,448,389.3,448z"/>
		</g>
	</g>
</g>
<g id="Question_00000173144471652994794530000004068525359635987899_">
	<g>
		<g>
			<path d="M252.5,302.4c-8.8,0-16-7.2-16-16c0-20.5,10.8-39.3,29-50.2c9.4-5.6,14-16.4,11.7-27.3c-2-9.3-9.5-16.9-18.8-18.9
				c-12.7-2.8-22.1,3.6-26.8,10.5c-4.9,7.3-14.9,9.2-22.2,4.3c-7.3-4.9-9.2-14.9-4.3-22.2c13.2-19.6,36.8-28.9,60.1-23.9
				c21.4,4.6,38.8,22.2,43.3,43.6c5.1,24.1-5.6,48.8-26.5,61.3c-8.4,5.1-13.5,13.6-13.5,22.8C268.5,295.3,261.3,302.4,252.5,302.4z"
				/>
		</g>
		<g>
			<path d="M252,354.7c-8.8,0-16-7.2-16-16v-4.4c0-8.8,7.2-16,16-16c8.8,0,16,7.2,16,16v4.4C268,347.5,260.9,354.7,252,354.7z"/>
		</g>
	</g>
</g>
</svg>
