<?xml version="1.0" encoding="utf-8"?>
<!-- Generator: Adobe Illustrator 26.2.1, SVG Export Plug-In . SVG Version: 6.00 Build 0)  -->
<svg version="1.1" xmlns="http://www.w3.org/2000/svg" xmlns:xlink="http://www.w3.org/1999/xlink" x="0px" y="0px"
	 viewBox="0 0 512 512" style="enable-background:new 0 0 512 512;" xml:space="preserve">
<g id="Body">
	<g>
		<path d="M350.2,469.3H160.4c-32,0-58.3-22.9-61.2-53.3L78.9,202.6c-1.5-16.1,3.7-31.6,14.8-43.7c11.7-12.9,28.6-20.2,46.5-20.2
			h13.2c8.8,0,16,7.2,16,16s-7.2,16-16,16h-13.2c-8.8,0-17.1,3.6-22.8,9.8c-4.9,5.4-7.3,12.2-6.6,19.2L131.1,413
			c1.3,13.7,14.2,24.4,29.4,24.4h189.8c15.2,0,28.1-10.7,29.4-24.4l20.3-213.3c0.7-7-1.7-13.8-6.6-19.2c-5.6-6.2-13.9-9.8-22.8-9.8
			H245.9c-8.8,0-16-7.2-16-16s7.2-16,16-16h124.7c17.8,0,34.8,7.4,46.5,20.2c11.1,12.2,16.3,27.7,14.8,43.7L411.4,416
			C408.5,446.4,382.2,469.3,350.2,469.3z"/>
	</g>
	<g>
		<g>
			<path d="M203.4,403.2c-8.2,0-15.2-6.3-15.9-14.6l-14.6-163.2c-0.8-8.8,5.7-16.6,14.5-17.4c8.8-0.8,16.6,5.7,17.4,14.5l14.6,163.2
				c0.8,8.8-5.7,16.6-14.5,17.4C204.3,403.2,203.8,403.2,203.4,403.2z"/>
		</g>
		<g>
			<path d="M307.3,403.2c-0.5,0-1,0-1.4-0.1c-8.8-0.8-15.3-8.6-14.5-17.4l14.6-163.2c0.8-8.8,8.6-15.3,17.4-14.5
				c8.8,0.8,15.3,8.6,14.5,17.4l-14.6,163.2C322.5,396.9,315.5,403.2,307.3,403.2z"/>
		</g>
	</g>
</g>
<g id="Head">
	<path d="M384,77H272V52c0-8.8-7.2-16-16-16c-8.8,0-16,7.2-16,16V77H128c-8.8,0-16,7.2-16,16s7.2,16,16,16h256c8.8,0,16-7.2,16-16
		S392.8,77,384,77z"/>
</g>
</svg>
