<?xml version="1.0" encoding="utf-8"?>
<!-- Generator: Adobe Illustrator 26.2.1, SVG Export Plug-In . SVG Version: 6.00 Build 0)  -->
<svg version="1.1" xmlns="http://www.w3.org/2000/svg" xmlns:xlink="http://www.w3.org/1999/xlink" x="0px" y="0px"
	 viewBox="0 0 512 512" style="enable-background:new 0 0 512 512;" xml:space="preserve">
<g id="Bottom">
	<path d="M452.8,260.4c-8.8,0-16,7.2-16,16v41.9c0,14.7-12,26.7-26.7,26.7H95.4l24.3-24.3c6.2-6.2,6.2-16.4,0-22.6
		c-6.2-6.2-16.4-6.2-22.6,0l-49.8,49.8c-3,3-4.7,7.1-4.7,11.3s1.7,8.3,4.7,11.3l51.4,51.4c3.1,3.1,7.2,4.7,11.3,4.7
		s8.2-1.6,11.3-4.7c6.2-6.2,6.2-16.4,0-22.6L99.2,377h310.9c32.3,0,58.7-26.3,58.7-58.7v-41.9C468.8,267.6,461.6,260.4,452.8,260.4z
		"/>
</g>
<g id="Top">
	<g>
		<path d="M58.7,251.8c-8.8,0-16-7.2-16-16v-41.9c0-32.3,26.3-58.7,58.7-58.7h24.4c8.8,0,16,7.2,16,16s-7.2,16-16,16h-24.4
			c-14.7,0-26.7,12-26.7,26.7v41.9C74.7,244.7,67.5,251.8,58.7,251.8z"/>
	</g>
	<path d="M464.1,141.8l-51.4-51.4c-6.2-6.2-16.4-6.2-22.6,0c-6.2,6.2-6.2,16.4,0,22.6l22.2,22.2H213.7c-8.8,0-16,7.2-16,16
		s7.2,16,16,16H416l-24.3,24.3c-6.2,6.2-6.2,16.4,0,22.6c3.1,3.1,7.2,4.7,11.3,4.7s8.2-1.6,11.3-4.7l49.8-49.8c3-3,4.7-7.1,4.7-11.3
		S467.1,144.8,464.1,141.8z"/>
</g>
</svg>
