<?xml version="1.0" encoding="UTF-8"?>
<svg id="Top_Line" xmlns="http://www.w3.org/2000/svg" version="1.1" viewBox="0 0 512 512">
  <!-- Generator: Adobe Illustrator 29.1.0, SVG Export Plug-In . SVG Version: 2.1.0 Build 142)  -->
  <path d="M272,320c8.84,0,16-7.16,16-16v-101.33c0-6.47-3.9-12.31-9.88-14.78-5.98-2.48-12.86-1.11-17.44,3.47l-37.33,37.33c-6.25,6.25-6.25,16.38,0,22.63,6.25,6.25,16.38,6.25,22.63,0l10.02-10.02v62.71c0,8.84,7.16,16,16,16Z"/>
  <path d="M431.73,281.77c-8.84,0-16,7.16-16,16v41.91c0,14.7-11.96,26.67-26.67,26.67H117.02l24.33-24.33c6.25-6.25,6.25-16.38,0-22.63-6.25-6.25-16.38-6.25-22.63,0l-49.76,49.76c-6.25,6.25-6.25,16.38,0,22.63l51.36,51.36c3.12,3.12,7.22,4.69,11.31,4.69s8.19-1.56,11.31-4.69c6.25-6.25,6.25-16.38,0-22.63l-22.16-22.17h268.28c32.35,0,58.67-26.32,58.67-58.67v-41.91c0-8.84-7.16-16-16-16Z"/>
  <path d="M80.27,230.23c8.84,0,16-7.16,16-16v-41.91c0-14.7,11.96-26.67,26.67-26.67h272.04l-24.33,24.33c-6.25,6.25-6.25,16.38,0,22.63,3.12,3.12,7.22,4.69,11.31,4.69s8.19-1.56,11.31-4.69l49.76-49.76c6.25-6.25,6.25-16.38,0-22.63l-51.36-51.36c-6.25-6.25-16.38-6.25-22.63,0-6.25,6.25-6.25,16.38,0,22.63l22.16,22.16H122.94c-32.35,0-58.67,26.32-58.67,58.67v41.91c0,8.84,7.16,16,16,16Z"/>
</svg>