<?xml version="1.0" encoding="utf-8"?>
<!-- Generator: Adobe Illustrator 26.2.1, SVG Export Plug-In . SVG Version: 6.00 Build 0)  -->
<svg version="1.1" xmlns="http://www.w3.org/2000/svg" xmlns:xlink="http://www.w3.org/1999/xlink" x="0px" y="0px"
	 viewBox="0 0 512 512" style="enable-background:new 0 0 512 512;" xml:space="preserve">
<g id="Line_1">
</g>
<g id="Line_2">
</g>
<g id="Line_3">
</g>
<g id="Line_4">
</g>
<g id="Line_5">
	<g>
		<path d="M431.9,415.3H80.1c-8.8,0-16,7.2-16,16s7.2,16,16,16h351.8c8.8,0,16-7.2,16-16S440.7,415.3,431.9,415.3z"/>
		<path d="M431.9,327.6H247.1c-8.8,0-16,7.2-16,16s7.2,16,16,16h184.8c8.8,0,16-7.2,16-16S440.7,327.6,431.9,327.6z"/>
		<path d="M80.1,272h351.8c8.8,0,16-7.2,16-16c0-8.8-7.2-16-16-16H80.1c-8.8,0-16,7.2-16,16C64.1,264.8,71.3,272,80.1,272z"/>
		<path d="M431.9,152.4H247.1c-8.8,0-16,7.2-16,16s7.2,16,16,16h184.8c8.8,0,16-7.2,16-16S440.7,152.4,431.9,152.4z"/>
		<path d="M80.1,96.7h351.8c8.8,0,16-7.2,16-16s-7.2-16-16-16H80.1c-8.8,0-16,7.2-16,16S71.3,96.7,80.1,96.7z"/>
	</g>
</g>
</svg>
