<?xml version="1.0" encoding="utf-8"?>
<!-- Generator: Adobe Illustrator 26.2.1, SVG Export Plug-In . SVG Version: 6.00 Build 0)  -->
<svg version="1.1" id="Paper" xmlns="http://www.w3.org/2000/svg" xmlns:xlink="http://www.w3.org/1999/xlink" x="0px" y="0px"
	 viewBox="0 0 512 512" style="enable-background:new 0 0 512 512;" xml:space="preserve">
<g>
	<path d="M446.8,119.4c0.1-0.8,0.2-1.6,0.3-2.4c0-0.2,0-0.3,0-0.5c0.1-1.5,0.3-3,0.3-4.5c0.1-3-0.1-5.9-0.5-8.7
		c0-0.4-0.1-0.8-0.2-1.2c0-0.2-0.1-0.4-0.1-0.5c-1.4-8.7-5-17.3-12.4-24.6c0,0,0,0,0,0c0,0,0,0,0,0c-0.4-0.4-0.8-0.8-1.2-1.1
		c-0.2-0.2-0.5-0.4-0.7-0.6c-0.1-0.1-0.2-0.2-0.3-0.3c-15.9-13.8-36.6-12-51.5-7.9c-4.4,1.2-9,2.9-13.9,4.9c0,0-0.1,0-0.1,0
		c-1.2,0.5-2.5,1-3.7,1.6c0,0,0,0,0,0c-12.2,5.4-25.6,13.1-40.1,23.1l-7.2,4.9l0,0.1c-4.7,3.4-9.6,7-14.5,10.8
		c-7,5.4-8.3,15.4-2.9,22.4c5.4,7,15.4,8.3,22.4,2.9c0.1-0.1,0.2-0.1,0.3-0.2c4.4,12.3,11.4,23.6,20.9,33.1
		c9.2,9.2,20.3,16.2,32.4,20.6c-11.4,14.9-25.7,32.2-43.9,52.1c-30,33-60.3,62-76.1,76.7l-61.7-61.7c13.8-15,40.4-43,71-71.6
		c6.5-6,6.8-16.2,0.8-22.6c-6-6.5-16.2-6.8-22.6-0.8c-3.8,3.5-7.5,7-11.1,10.5l-23.8-0.6c-22.2-0.6-44.1,5.2-63.2,16.6l-26.4,15.9
		c-7.5,4.5-12,12.7-11.8,21.4c0.2,8.7,5,16.7,12.6,20.9l42.3,23.3l1.8,1.8l-26.3,26.3c-3.3,3.3-5.1,7.6-5.1,12.2s1.8,8.9,5.1,12.2
		l52.8,52.8c3.3,3.3,7.6,5.1,12.2,5.1c4.6,0,8.9-1.8,12.2-5.1l26.3-26.3l1.8,1.8l23.3,42.3c4.2,7.6,12.2,12.5,20.9,12.6
		c0.2,0,0.3,0,0.5,0c8.5,0,16.5-4.5,20.9-11.9l15.9-26.4c11.5-19.1,17.2-40.9,16.6-63.2l-0.6-24c5-5.3,10.2-10.8,15.3-16.5
		c40-43.9,67-80.3,81.4-110c0.2-0.3,0.3-0.6,0.5-0.9c0.3-0.6,0.6-1.2,0.9-1.9c0.4-0.9,0.9-1.9,1.3-2.8c0.1-0.2,0.2-0.5,0.3-0.7
		c2.7-6.2,4.9-12.1,6.5-17.8c0.8-2.8,1.5-5.8,2-8.9c0,0,0,0,0-0.1C446.6,121.3,446.7,120.4,446.8,119.4z M160,217.4
		c11.8-7.1,25-11.1,38.6-11.9c-13.5,13.8-24.5,25.5-31.5,33.2l-22.2-12.2L160,217.4z M216.5,327.8l-15.9,15.9l-31.9-31.9l15.9-15.9
		l16.1,16.1L216.5,327.8z M295,352.4l-9.1,15.1l-12.1-21.9c7.6-7.1,19.3-18.1,33.1-31.7C306.1,327.5,302,340.7,295,352.4z
		 M393.5,163.6c-11-2.2-21.2-7.5-29.2-15.5c-8.3-8.3-13.7-18.8-15.7-30.2c12.4-8,23.5-13.8,33.1-17.5c9.4-3.6,21.8-6.7,28.6-1.9
		c0.1,0.1,0.2,0.1,0.2,0.2c0.4,0.3,0.8,0.6,1.2,1c0,0,0,0,0,0c2.2,2.2,3.4,5.2,3.7,9.1c0,0.8,0.1,1.6,0,2.4c-0.1,3.9-1,9.2-3.5,16.5
		C408.4,137.8,402.2,150,393.5,163.6z"/>
	<path d="M86.7,390.4c4.1,0,8.2-1.6,11.3-4.7l29-29c6.2-6.2,6.2-16.4,0-22.6c-6.2-6.2-16.4-6.2-22.6,0l-29,29
		c-6.2,6.2-6.2,16.4,0,22.6C78.5,388.8,82.6,390.4,86.7,390.4z"/>
	<path d="M152.6,359.8c-6.2-6.2-16.4-6.2-22.6,0L69,420.7c-6.2,6.2-6.2,16.4,0,22.6c3.1,3.1,7.2,4.7,11.3,4.7
		c4.1,0,8.2-1.6,11.3-4.7l60.9-60.9C158.9,376.1,158.9,366,152.6,359.8z"/>
	<path d="M155.6,385.5l-28.9,28.9c-6.2,6.2-6.2,16.4,0,22.6c3.1,3.1,7.2,4.7,11.3,4.7s8.2-1.6,11.3-4.7l28.9-28.9
		c6.2-6.2,6.2-16.4,0-22.6C172,379.2,161.8,379.2,155.6,385.5z"/>
	<path d="M242.2,270.1c3.1,3.1,7.2,4.7,11.3,4.7c4.1,0,8.2-1.6,11.3-4.7l60.9-60.9c6.2-6.2,6.2-16.4,0-22.6
		c-6.2-6.2-16.4-6.2-22.6,0l-60.9,60.9C236,253.7,236,263.9,242.2,270.1z"/>
</g>
</svg>
