<?xml version="1.0" encoding="utf-8"?>
<!-- Generator: Adobe Illustrator 26.2.1, SVG Export Plug-In . SVG Version: 6.00 Build 0)  -->
<svg version="1.1" id="Security" xmlns="http://www.w3.org/2000/svg" xmlns:xlink="http://www.w3.org/1999/xlink" x="0px" y="0px"
	 viewBox="0 0 512 512" style="enable-background:new 0 0 512 512;" xml:space="preserve">
<g>
	<g>
		<path d="M256,448c-11.4,0-41-9.7-72-35.8c-27.4-23-64.2-66.1-84.3-141c-9.2-34.4-14.9-85.2-14.9-132.6c0-16.4,11.3-31,27.4-35.5
			l133.9-36.9c6.5-1.8,13.4-1.8,19.9,0l133.9,36.9c16.1,4.5,27.4,19,27.4,35.5c0,33.5-3,70.2-8.2,100.8c-1.5,8.7-9.7,14.6-18.4,13.1
			c-8.7-1.5-14.6-9.7-13.1-18.5c4.9-28.9,7.7-63.7,7.7-95.5c0-2.1-1.6-4-3.9-4.6L257.4,97c-0.9-0.3-1.9-0.3-2.8,0l-133.9,36.9
			c-2.3,0.6-3.9,2.6-3.9,4.6c0,44.1,5.4,92.9,13.9,124.4c17.6,65.6,48.9,103.2,72.1,123.2c24.2,20.9,47,29,53.3,29.8
			c3.6-0.5,18.5-4.7,38-18c17.1-11.7,41.9-33.6,62.3-71.1c4.2-7.8,14-10.6,21.7-6.4c7.8,4.2,10.6,14,6.4,21.7
			c-24.1,44.1-53.8,69.8-74.4,83.6C287,441,265.9,448,256,448z"/>
	</g>
	<g>
		<path d="M234.7,312.5c-4.1,0-8.2-1.6-11.3-4.7l-40.5-40.5c-6.2-6.2-6.2-16.4,0-22.6c6.2-6.2,16.4-6.2,22.6,0l29.2,29.2l71.9-71.9
			c6.2-6.2,16.4-6.2,22.6,0c6.2,6.2,6.2,16.4,0,22.6L246,307.8C242.9,311,238.8,312.5,234.7,312.5z"/>
	</g>
</g>
</svg>
