<?xml version="1.0" encoding="UTF-8"?>
<svg id="Electricty" xmlns="http://www.w3.org/2000/svg" version="1.1" viewBox="0 0 512 512">
  <!-- Generator: Adobe Illustrator 29.1.0, SVG Export Plug-In . SVG Version: 2.1.0 Build 142)  -->
  <path d="M448,336c0-20.86-13.38-38.64-32-45.25V80c0-8.84-7.16-16-16-16s-16,7.16-16,16v210.75c-18.62,6.6-32,24.39-32,45.25s13.38,38.64,32,45.25v50.75c0,8.84,7.16,16,16,16s16-7.16,16-16v-50.75c18.62-6.6,32-24.39,32-45.25ZM400,352c-8.82,0-16-7.18-16-16s7.18-16,16-16,16,7.18,16,16-7.18,16-16,16Z"/>
  <path d="M128,130.75v-50.75c0-8.84-7.16-16-16-16s-16,7.16-16,16v50.75c-18.62,6.6-32,24.39-32,45.25s13.38,38.64,32,45.25v210.75c0,8.84,7.16,16,16,16s16-7.16,16-16v-210.75c18.62-6.6,32-24.39,32-45.25s-13.38-38.64-32-45.25ZM112,192c-8.82,0-16-7.18-16-16s7.18-16,16-16,16,7.18,16,16-7.18,16-16,16Z"/>
  <path d="M272,210.75V80c0-8.84-7.16-16-16-16s-16,7.16-16,16v130.75c-18.62,6.6-32,24.39-32,45.25s13.38,38.64,32,45.25v130.75c0,8.84,7.16,16,16,16s16-7.16,16-16v-130.75c18.62-6.6,32-24.39,32-45.25s-13.38-38.64-32-45.25ZM256,272c-8.82,0-16-7.18-16-16s7.18-16,16-16,16,7.18,16,16-7.18,16-16,16Z"/>
</svg>