<?xml version="1.0" encoding="utf-8"?>
<!-- Generator: Adobe Illustrator 26.2.1, SVG Export Plug-In . SVG Version: 6.00 Build 0)  -->
<svg version="1.1" xmlns="http://www.w3.org/2000/svg" xmlns:xlink="http://www.w3.org/1999/xlink" x="0px" y="0px"
	 viewBox="0 0 512 512" style="enable-background:new 0 0 512 512;" xml:space="preserve">
<g id="Line_1">
	<g>
		<g>
			<rect x="206.1" y="186.7" transform="matrix(0.8944 -0.4472 0.4472 0.8944 -63.6028 135.8842)" width="99.9" height="32"/>
		</g>
	</g>
</g>
<g id="Line_2">
	<g>
		<rect x="240" y="259.4" transform="matrix(0.4472 -0.8944 0.8944 0.4472 -135.1635 399.9582)" width="32" height="99.9"/>
	</g>
</g>
<g id="Circle_1">
	<g>
		<path d="M149.3,341.3c-47.1,0-85.3-38.3-85.3-85.3c0-47.1,38.3-85.3,85.3-85.3c47.1,0,85.3,38.3,85.3,85.3
			C234.7,303.1,196.4,341.3,149.3,341.3z M149.3,202.7c-29.4,0-53.3,23.9-53.3,53.3s23.9,53.3,53.3,53.3c29.4,0,53.3-23.9,53.3-53.3
			S178.7,202.7,149.3,202.7z"/>
	</g>
</g>
<g id="Circle_2">
	<g>
		<g>
			<path d="M362.7,448c-47.1,0-85.3-38.3-85.3-85.3c0-47.1,38.3-85.3,85.3-85.3c47.1,0,85.3,38.3,85.3,85.3
				C448,409.7,409.7,448,362.7,448z M362.7,309.3c-29.4,0-53.3,23.9-53.3,53.3s23.9,53.3,53.3,53.3s53.3-23.9,53.3-53.3
				S392.1,309.3,362.7,309.3z"/>
		</g>
	</g>
</g>
<g id="Circle_3">
	<g>
		<path d="M362.7,234.7c-47.1,0-85.3-38.3-85.3-85.3c0-47.1,38.3-85.3,85.3-85.3c47.1,0,85.3,38.3,85.3,85.3
			C448,196.4,409.7,234.7,362.7,234.7z M362.7,96c-29.4,0-53.3,23.9-53.3,53.3c0,29.4,23.9,53.3,53.3,53.3s53.3-23.9,53.3-53.3
			C416,119.9,392.1,96,362.7,96z"/>
	</g>
</g>
</svg>
