<?xml version="1.0" encoding="UTF-8"?>
<svg id="C_1" xmlns="http://www.w3.org/2000/svg" version="1.1" viewBox="0 0 512 512">
  <!-- Generator: Adobe Illustrator 29.1.0, SVG Export Plug-In . SVG Version: 2.1.0 Build 142)  -->
  <path d="M442.59,158.01l-12.8-64c-3.48-17.39-18.87-30.01-36.61-30.01h-31.96c-8.84,0-16,7.16-16,16s7.16,16,16,16h31.96c2.53,0,4.73,1.8,5.23,4.29l12.8,64c.43,2.15-.51,3.7-1.1,4.43s-1.93,1.95-4.12,1.95H106.02c-2.2,0-3.53-1.22-4.12-1.95s-1.54-2.27-1.1-4.43l12.8-64c.5-2.48,2.7-4.29,5.23-4.29h161.19c8.84,0,16-7.16,16-16s-7.16-16-16-16H118.82c-17.73,0-33.13,12.62-36.61,30.01l-12.8,64c-2.2,11.01.62,22.31,7.74,30.99,2.38,2.91,5.16,5.39,8.2,7.42.26,17.67,8.51,33.43,21.31,43.82v149.09c0,32.35,26.32,58.67,58.67,58.67h8.11c20.59,0,37.33-16.75,37.33-37.33v-90.6c0-2.94,2.39-5.33,5.33-5.33h26.22c2.94,0,5.33,2.39,5.33,5.33v90.6c0,20.59,16.75,37.33,37.33,37.33h61.67c32.35,0,58.67-26.32,58.67-58.67v-149.09c12.8-10.39,21.05-26.15,21.31-43.82,3.05-2.03,5.82-4.51,8.2-7.42,7.12-8.68,9.94-19.98,7.74-30.99ZM369.14,221.1c-11.61,0-21.44-7.8-24.52-18.43h49.04c-3.08,10.63-12.9,18.43-24.52,18.43ZM118.35,202.67h49.04c-3.08,10.63-12.9,18.43-24.52,18.43s-21.44-7.8-24.52-18.43ZM280.52,202.67c-3.08,10.63-12.9,18.43-24.52,18.43s-21.44-7.8-24.52-18.43h49.04ZM373.33,389.33c0,14.7-11.96,26.67-26.67,26.67h-61.67c-2.94,0-5.33-2.39-5.33-5.33v-90.6c0-20.59-16.75-37.33-37.33-37.33h-26.22c-20.59,0-37.33,16.75-37.33,37.33v90.6c0,2.94-2.39,5.33-5.33,5.33h-8.11c-14.7,0-26.67-11.96-26.67-26.67v-136.4c1.39.1,2.78.17,4.2.17,28.16,0,51.65-20.35,56.57-47.11,4.92,26.76,28.4,47.11,56.57,47.11s51.65-20.35,56.57-47.11c4.92,26.76,28.4,47.11,56.57,47.11,1.41,0,2.81-.07,4.2-.17v136.4Z"/>
  <path d="M325.33,282.67c-8.84,0-16,7.16-16,16v32c0,8.84,7.16,16,16,16s16-7.16,16-16v-32c0-8.84-7.16-16-16-16Z"/>
</svg>