<?xml version="1.0" encoding="utf-8"?>
<!-- Generator: Adobe Illustrator 26.2.1, SVG Export Plug-In . SVG Version: 6.00 Build 0)  -->
<svg version="1.1" xmlns="http://www.w3.org/2000/svg" xmlns:xlink="http://www.w3.org/1999/xlink" x="0px" y="0px"
	 viewBox="0 0 512 512" style="enable-background:new 0 0 512 512;" xml:space="preserve">
<g id="Document">
</g>
<g id="Text_4">
</g>
<g id="Text_3">
</g>
<g id="Text_2">
</g>
<g id="Text_1">
</g>
<g id="Line_3">
</g>
<g id="Line_2">
</g>
<g id="Line_1">
	<g>
		<path d="M431.7,181.2L330.1,79.6c-10.2-10.2-23.9-15.9-38.4-15.9h-98.7c-29.9,0-54.2,24.3-54.2,54.2v42.3H103L90.7,148
			c-6.2-6.2-16.4-6.2-22.6,0c-6.2,6.2-6.2,16.4,0,22.6L85,187.5c3,3,7.1,4.7,11.3,4.7h42.5v48H80.1c-8.8,0-16,7.2-16,16
			s7.2,16,16,16h58.8v48H96.3c-4.2,0-8.3,1.7-11.3,4.7l-16.9,16.9c-6.2,6.2-6.2,16.4,0,22.6c3.1,3.1,7.2,4.7,11.3,4.7
			c4.1,0,8.2-1.6,11.3-4.7l12.2-12.2h35.9v42.3c0,29.9,24.3,54.2,54.2,54.2h119.3c8.8,0,16-7.2,16-16s-7.2-16-16-16H193.1
			c-12.2,0-22.2-9.9-22.2-22.2V117.9c0-12.2,9.9-22.2,22.2-22.2h93.7v74.7c0,29.9,24.3,54.2,54.2,54.2h74.7v170.1
			c0,12.2-9.9,22.2-22.2,22.2h-4.8c-8.8,0-16,7.2-16,16s7.2,16,16,16h4.8c29.9,0,54.2-24.3,54.2-54.2v-175
			C447.6,205.1,442,191.5,431.7,181.2z M318.8,170.4v-56.8l79,79H341C328.7,192.5,318.8,182.6,318.8,170.4z"/>
		<path d="M207.4,362.9h162.2c8.8,0,16-7.2,16-16s-7.2-16-16-16H207.4c-8.8,0-16,7.2-16,16S198.5,362.9,207.4,362.9z"/>
		<path d="M207.4,302.5h162.2c8.8,0,16-7.2,16-16s-7.2-16-16-16H207.4c-8.8,0-16,7.2-16,16S198.5,302.5,207.4,302.5z"/>
		<path d="M207.4,242h44.2c8.8,0,16-7.2,16-16s-7.2-16-16-16h-44.2c-8.8,0-16,7.2-16,16S198.5,242,207.4,242z"/>
		<path d="M207.4,181.6h44.2c8.8,0,16-7.2,16-16s-7.2-16-16-16h-44.2c-8.8,0-16,7.2-16,16S198.5,181.6,207.4,181.6z"/>
	</g>
</g>
</svg>
