<?xml version="1.0" encoding="UTF-8"?>
<svg id="Megaphone" xmlns="http://www.w3.org/2000/svg" version="1.1" viewBox="0 0 512 512">
  <!-- Generator: Adobe Illustrator 29.1.0, SVG Export Plug-In . SVG Version: 2.1.0 Build 142)  -->
  <path d="M435.96,256l28.69-28.69c6.25-6.25,6.25-16.38,0-22.63-6.25-6.25-16.38-6.25-22.63,0l-28.69,28.69-28.69-28.69c-6.25-6.25-16.38-6.25-22.63,0-6.25,6.25-6.25,16.38,0,22.63l28.69,28.69-28.69,28.69c-6.25,6.25-6.25,16.38,0,22.63,3.12,3.12,7.22,4.69,11.31,4.69s8.19-1.56,11.31-4.69l28.69-28.69,28.69,28.69c3.12,3.12,7.22,4.69,11.31,4.69s8.19-1.56,11.31-4.69c6.25-6.25,6.25-16.38,0-22.63l-28.69-28.69Z"/>
  <path d="M292.78,92.89c-20.22-11.2-43.99-10.58-63.59,1.67-.5.31-.98.65-1.44,1.02l-16.6,13.13c-6.93,5.48-8.11,15.54-2.63,22.47,5.48,6.93,15.54,8.11,22.47,2.63l15.84-12.52c9.46-5.59,20.78-5.76,30.44-.4,9.89,5.48,15.8,15.51,15.8,26.82v216.6c0,11.31-5.91,21.34-15.8,26.82-9.66,5.36-20.98,5.19-30.44-.4l-97.76-77.3v-114.84l23.8-18.82c6.93-5.48,8.11-15.54,2.63-22.47-5.48-6.93-15.54-8.11-22.47-2.63l-20.24,16.01h-38.01c-28.87,0-52.36,23.49-52.36,52.37v65.94c0,28.87,23.49,52.36,52.36,52.36h38.01l94.97,75.09c.46.37.94.71,1.44,1.02,10.28,6.42,21.71,9.65,33.17,9.65,10.39,0,20.81-2.65,30.42-7.98,20.22-11.21,32.29-31.7,32.29-54.81v-216.6c0-23.12-12.07-43.61-32.29-54.81ZM117.06,309.33h-22.3c-11.23,0-20.36-9.14-20.36-20.36v-65.94c0-11.23,9.14-20.37,20.36-20.37h22.3v106.67Z"/>
</svg>