<?xml version="1.0" encoding="UTF-8"?>
<svg id="Line_Big" xmlns="http://www.w3.org/2000/svg" version="1.1" viewBox="0 0 512 512">
  <!-- Generator: Adobe Illustrator 29.1.0, SVG Export Plug-In . SVG Version: 2.1.0 Build 142)  -->
  <path d="M293.04,92.89c-20.21-11.21-43.99-10.58-63.59,1.67-.5.31-.98.65-1.44,1.02l-16.6,13.13c-6.93,5.48-8.11,15.54-2.63,22.47s15.54,8.11,22.47,2.63l15.84-12.52c9.46-5.59,20.78-5.76,30.44-.4,9.89,5.48,15.8,15.51,15.8,26.82v216.6c0,11.31-5.91,21.34-15.8,26.82-9.66,5.36-20.98,5.19-30.44-.4l-97.76-77.3v-114.84l23.8-18.82c6.93-5.48,8.11-15.54,2.63-22.47-5.48-6.93-15.54-8.11-22.47-2.63l-20.24,16.01h-38.01c-28.87,0-52.37,23.49-52.37,52.37v65.94c0,28.87,23.49,52.36,52.37,52.36h38.01l94.97,75.09c.46.37.94.71,1.44,1.02,10.28,6.42,21.71,9.65,33.17,9.65,10.39,0,20.81-2.65,30.42-7.98,20.22-11.21,32.29-31.7,32.29-54.81v-216.6c0-23.12-12.07-43.61-32.29-54.81ZM117.33,309.33h-22.3c-11.23,0-20.37-9.14-20.37-20.36v-65.94c0-11.23,9.14-20.37,20.37-20.37h22.3v106.67Z"/>
  <path d="M364.52,282.23c-7.37,4.87-9.4,14.79-4.53,22.17,3.08,4.66,8.17,7.18,13.37,7.18,3.03,0,6.09-.86,8.8-2.65,17.86-11.79,28.52-31.58,28.52-52.94s-10.66-41.14-28.52-52.94c-7.37-4.87-17.3-2.84-22.17,4.53-4.87,7.37-2.84,17.3,4.53,22.17,8.86,5.85,14.15,15.66,14.15,26.23s-5.29,20.38-14.15,26.23Z"/>
  <path d="M443.94,175.61c-16.23-23.1-38.69-40.56-64.95-50.5-8.26-3.13-17.5,1.04-20.63,9.3s1.04,17.5,9.3,20.63c41.67,15.77,69.66,56.34,69.66,100.96s-28,85.19-69.66,100.96c-8.26,3.13-12.43,12.36-9.3,20.63,2.42,6.4,8.51,10.34,14.97,10.34,1.88,0,3.8-.33,5.66-1.04,26.26-9.94,48.72-27.4,64.95-50.5,16.61-23.64,25.39-51.43,25.39-80.39s-8.78-56.75-25.39-80.39Z"/>
</svg>