<?xml version="1.0" encoding="utf-8"?>
<!-- Generator: Adobe Illustrator 26.2.1, SVG Export Plug-In . SVG Version: 6.00 Build 0)  -->
<svg version="1.1" id="Star" xmlns="http://www.w3.org/2000/svg" xmlns:xlink="http://www.w3.org/1999/xlink" x="0px" y="0px"
	 viewBox="0 0 512 512" style="enable-background:new 0 0 512 512;" xml:space="preserve">
<g>
	<g>
		<path d="M359.7,452.1c-5,0-10.1-1-14.9-3.2l-85.5-37.8c-2.1-0.9-4.6-0.9-6.7,0l-85.5,37.8c-12.1,5.3-25.6,3.9-36.3-3.9
			c-10.7-7.7-16.2-20.2-14.9-33.3l1.1-10.7c0.9-8.8,8.8-15.2,17.6-14.3c8.8,0.9,15.2,8.8,14.3,17.6l-1.1,10.7
			c-0.2,2.2,0.9,3.4,1.8,4.1c1,0.7,2.5,1.4,4.5,0.5l85.5-37.8c10.4-4.6,22.3-4.6,32.6,0l85.5,37.8c2,0.9,3.5,0.2,4.5-0.5
			c1-0.7,2.1-2,1.8-4.1l-9.6-93c-1.2-11.3,2.5-22.6,10.1-31l62.4-69.6c1.4-1.6,1.3-3.3,0.9-4.4c-0.4-1.1-1.3-2.6-3.4-3l-91.4-19.6
			c-11.1-2.4-20.7-9.4-26.4-19.2l-46.9-80.9c-1.1-1.9-2.7-2.3-3.9-2.3c-1.2,0-2.8,0.4-3.9,2.3l-46.9,80.9
			c-5.7,9.8-15.3,16.8-26.4,19.2l-91.4,19.6c-2.1,0.5-3,1.9-3.4,3c-0.4,1.1-0.5,2.8,0.9,4.4l62.4,69.6c7.6,8.4,11.2,19.8,10.1,31
			l-1.1,10.6c-0.9,8.8-8.8,15.2-17.6,14.3c-8.8-0.9-15.2-8.8-14.3-17.6l1.1-10.6c0.2-2.3-0.5-4.7-2.1-6.4l-62.4-69.6
			c-8.8-9.8-11.6-23.2-7.5-35.7c4.1-12.5,14.2-21.7,27.1-24.4L172,163c2.3-0.5,4.3-1.9,5.4-4l46.9-80.9
			c6.6-11.4,18.4-18.2,31.6-18.2s25,6.8,31.6,18.2l46.9,80.9c1.2,2,3.2,3.5,5.4,4l91.4,19.6c12.9,2.8,23,11.9,27.1,24.4
			c4.1,12.5,1.3,25.9-7.5,35.7l-62.4,69.6c-1.6,1.7-2.3,4.1-2.1,6.4l9.6,93c1.3,13.1-4.2,25.6-14.9,33.3
			C374.7,449.7,367.3,452.1,359.7,452.1z"/>
	</g>
</g>
</svg>
