<?xml version="1.0" encoding="utf-8"?>
<!-- Generator: Adobe Illustrator 26.2.1, SVG Export Plug-In . SVG Version: 6.00 Build 0)  -->
<svg version="1.1" id="Stop" xmlns="http://www.w3.org/2000/svg" xmlns:xlink="http://www.w3.org/1999/xlink" x="0px" y="0px"
	 viewBox="0 0 512 512" style="enable-background:new 0 0 512 512;" xml:space="preserve">
<g>
	<g>
		<path d="M389.3,448H122.7C90.3,448,64,421.7,64,389.3V122.7C64,90.3,90.3,64,122.7,64H256c8.8,0,16,7.2,16,16s-7.2,16-16,16H122.7
			C108,96,96,108,96,122.7v266.7c0,14.7,12,26.7,26.7,26.7h266.7c14.7,0,26.7-12,26.7-26.7V122.7C416,108,404,96,389.3,96h-38.5
			c-8.8,0-16-7.2-16-16s7.2-16,16-16h38.5c32.3,0,58.7,26.3,58.7,58.7v266.7C448,421.7,421.7,448,389.3,448z"/>
	</g>
</g>
</svg>
