<?xml version="1.0" encoding="utf-8"?>
<!-- Generator: Adobe Illustrator 26.2.1, SVG Export Plug-In . SVG Version: 6.00 Build 0)  -->
<svg version="1.1" xmlns="http://www.w3.org/2000/svg" xmlns:xlink="http://www.w3.org/1999/xlink" x="0px" y="0px"
	 viewBox="0 0 512 512" style="enable-background:new 0 0 512 512;" xml:space="preserve">
<g id="Storage">
</g>
<g id="Line_2">
</g>
<g id="Line_1">
	<path d="M369.2,54.8c-30.4-7.4-70.5-11.5-113-11.5c-42.5,0-82.6,4.1-113,11.5C104.5,64.2,85.7,78,85.7,97v318.1
		c0,19,18.8,32.8,57.4,42.2c30.4,7.4,70.5,11.5,113,11.5c42.5,0,82.6-4.1,113-11.5c38.6-9.5,57.4-23.3,57.4-42.2V97
		C426.6,78,407.8,64.2,369.2,54.8z M394.6,198c-2.9,2.7-13.3,8.8-37.9,14.3c-8.6,1.9-14.1,10.5-12.1,19.1
		c1.7,7.5,8.3,12.5,15.6,12.5c1.2,0,2.3-0.1,3.5-0.4c12.1-2.7,22.4-5.8,30.9-9.3v74.1c-3,2.9-14.4,9.4-41.6,15.1
		c-26.8,5.6-61.2,8.7-96.8,8.7s-70-3.1-96.8-8.7c-27.3-5.7-38.6-12.2-41.6-15.1v-74.1c7.2,2.9,15.7,5.6,25.4,8
		c30.4,7.4,70.5,11.5,113,11.5c8.8,0,16-7.2,16-16s-7.2-16-16-16c-35.6,0-70-3.1-96.8-8.7c-27.3-5.7-38.6-12.2-41.6-15.1v-66.8
		c7.2,2.9,15.7,5.6,25.4,8c30.4,7.4,70.5,11.5,113,11.5c42.5,0,82.6-4.1,113-11.5c9.7-2.4,18.2-5,25.4-8V198z M159.3,83.9
		c26.8-5.6,61.2-8.7,96.8-8.7c35.6,0,70,3.1,96.8,8.7c22,4.6,33.7,9.8,38.9,13.1c-5.2,3.3-16.9,8.5-38.9,13.1
		c-26.8,5.6-61.2,8.7-96.8,8.7c-35.6,0-70-3.1-96.8-8.7c-22-4.6-33.7-9.8-38.9-13.1C125.6,93.7,137.3,88.5,159.3,83.9z M353,428.2
		c-26.8,5.6-61.2,8.7-96.8,8.7c-35.6,0-70-3.1-96.8-8.7c-27.2-5.7-38.6-12.2-41.6-15.1v-68.4c7.2,2.9,15.7,5.6,25.4,8
		c30.4,7.4,70.5,11.5,113,11.5c42.5,0,82.6-4.1,113-11.5c9.7-2.4,18.2-5,25.4-8v68.4C391.6,415.9,380.2,422.5,353,428.2z"/>
</g>
</svg>
