<?xml version="1.0" encoding="UTF-8"?>
<svg xmlns="http://www.w3.org/2000/svg" version="1.1" viewBox="0 0 512 512">
  <!-- Generator: Adobe Illustrator 29.1.0, SVG Export Plug-In . SVG Version: 2.1.0 Build 142)  -->
  <g id="Light">
    <g>
      <g>
        <path d="M82.67,272h-24.53c-8.84,0-16-7.16-16-16s7.16-16,16-16h24.53c8.84,0,16,7.16,16,16s-7.16,16-16,16Z"/>
        <path d="M453.87,272h-24.53c-8.84,0-16-7.16-16-16s7.16-16,16-16h24.53c8.84,0,16,7.16,16,16s-7.16,16-16,16Z"/>
      </g>
      <g>
        <path d="M256,469.87c-8.84,0-16-7.16-16-16v-24.53c0-8.84,7.16-16,16-16s16,7.16,16,16v24.53c0,8.84-7.16,16-16,16Z"/>
        <path d="M256,98.67c-8.84,0-16-7.16-16-16v-24.53c0-8.84,7.16-16,16-16s16,7.16,16,16v24.53c0,8.84-7.16,16-16,16Z"/>
      </g>
      <g>
        <path d="M395.91,411.91c-4.09,0-8.19-1.56-11.31-4.69l-17.35-17.35c-6.25-6.25-6.25-16.38,0-22.63,6.25-6.25,16.38-6.25,22.63,0l17.35,17.35c6.25,6.25,6.25,16.38,0,22.63-3.12,3.12-7.22,4.69-11.31,4.69Z"/>
        <path d="M133.44,149.43c-4.09,0-8.19-1.56-11.31-4.69l-17.35-17.35c-6.25-6.25-6.25-16.38,0-22.63,6.25-6.25,16.38-6.25,22.63,0l17.35,17.35c6.25,6.25,6.25,16.38,0,22.63-3.12,3.12-7.22,4.69-11.31,4.69Z"/>
      </g>
      <g>
        <path d="M116.09,411.91c-4.1,0-8.19-1.56-11.31-4.69-6.25-6.25-6.25-16.38,0-22.63l17.35-17.35c6.25-6.25,16.38-6.25,22.63,0,6.25,6.25,6.25,16.38,0,22.63l-17.35,17.35c-3.12,3.12-7.22,4.69-11.31,4.69Z"/>
        <path d="M378.57,149.43c-4.09,0-8.19-1.56-11.31-4.69-6.25-6.25-6.25-16.38,0-22.63l17.35-17.35c6.25-6.25,16.38-6.25,22.63,0,6.25,6.25,6.25,16.38,0,22.63l-17.35,17.35c-3.12,3.12-7.22,4.69-11.31,4.69Z"/>
      </g>
    </g>
  </g>
  <g id="Circle">
    <path d="M256,405.33c-82.34,0-149.33-66.99-149.33-149.33s66.99-149.33,149.33-149.33,149.33,66.99,149.33,149.33-66.99,149.33-149.33,149.33ZM256,138.67c-64.7,0-117.33,52.64-117.33,117.33s52.64,117.33,117.33,117.33,117.33-52.64,117.33-117.33-52.64-117.33-117.33-117.33Z"/>
  </g>
  <g id="Layer_2">
    <path d="M170.67,272c-8.84,0-16-7.16-16-16,0-55.88,45.46-101.33,101.33-101.33,8.84,0,16,7.16,16,16s-7.16,16-16,16c-38.23,0-69.33,31.1-69.33,69.33,0,8.84-7.16,16-16,16Z"/>
  </g>
</svg>