<?xml version="1.0" encoding="UTF-8"?>
<svg id="Compass" xmlns="http://www.w3.org/2000/svg" version="1.1" viewBox="0 0 512 512">
  <!-- Generator: Adobe Illustrator 29.1.0, SVG Export Plug-In . SVG Version: 2.1.0 Build 142)  -->
  <path d="M444.7,215.7c14.73-5.1,24.63-19.18,24.63-35.04v-36.66c0-32.35-26.32-58.67-58.67-58.67h-206.15c-8.84,0-16,7.16-16,16s7.16,16,16,16h110.15v277.33H101.33c-14.7,0-26.67-11.96-26.67-26.67v-36.66c0-2.19,1.27-4.17,3.09-4.79,30.05-10.4,50.24-38.75,50.24-70.55s-20.19-60.15-50.24-70.55c-1.82-.63-3.09-2.6-3.09-4.8v-36.66c0-14.7,11.96-26.67,26.67-26.67h21.98c8.84,0,16-7.16,16-16s-7.16-16-16-16h-21.98c-32.35,0-58.67,26.32-58.67,58.67v36.66c0,15.86,9.9,29.94,24.63,35.04,17.17,5.94,28.7,22.14,28.7,40.3s-11.53,34.37-28.7,40.3c-14.73,5.1-24.63,19.18-24.63,35.04v36.66c0,32.35,26.32,58.67,58.67,58.67h309.33c32.35,0,58.67-26.32,58.67-58.67v-36.66c0-15.86-9.9-29.94-24.63-35.04-17.17-5.94-28.7-22.14-28.7-40.3s11.53-34.37,28.7-40.3ZM434.24,326.55c1.82.63,3.09,2.6,3.09,4.79v36.66c0,14.7-11.96,26.67-26.67,26.67h-64V117.33h64c14.7,0,26.67,11.96,26.67,26.67v36.66c0,2.19-1.27,4.17-3.09,4.79-30.05,10.4-50.24,38.75-50.24,70.55s20.19,60.15,50.24,70.55Z"/>
  <path d="M186.67,245.33h68.5c8.84,0,16-7.16,16-16s-7.16-16-16-16h-68.5c-8.84,0-16,7.16-16,16s7.16,16,16,16Z"/>
  <path d="M186.67,298.67h68.5c8.84,0,16-7.16,16-16s-7.16-16-16-16h-68.5c-8.84,0-16,7.16-16,16s7.16,16,16,16Z"/>
  <path d="M186.67,352h68.5c8.84,0,16-7.16,16-16s-7.16-16-16-16h-68.5c-8.84,0-16,7.16-16,16s7.16,16,16,16Z"/>
  <path d="M186.67,192h68.5c8.84,0,16-7.16,16-16s-7.16-16-16-16h-68.5c-8.84,0-16,7.16-16,16s7.16,16,16,16Z"/>
</svg>