<?xml version="1.0" encoding="utf-8"?>
<!-- Generator: Adobe Illustrator 26.2.1, SVG Export Plug-In . SVG Version: 6.00 Build 0)  -->
<svg version="1.1" xmlns="http://www.w3.org/2000/svg" xmlns:xlink="http://www.w3.org/1999/xlink" x="0px" y="0px"
	 viewBox="0 0 512 512" style="enable-background:new 0 0 512 512;" xml:space="preserve">
<g id="Frame">
</g>
<g id="Key">
</g>
<g id="Minute_00000055693539656374263720000011255103333428685447_">
	<g>
		<path d="M392.6,148.9l15.7-15.7c6.2-6.2,6.2-16.4,0-22.6c-6.2-6.2-16.4-6.2-22.6,0l-17.1,17.1c-28.2-20.9-62.4-34.1-99.5-36.6
			V74.7h35c8.8,0,16-7.2,16-16s-7.2-16-16-16H202.7c-8.8,0-16,7.2-16,16s7.2,16,16,16H237v16.9c-95.7,9.6-170.6,90.5-170.6,188.7
			c0,28.6,6.2,56,18.4,81.6c3.8,8,13.4,11.4,21.3,7.5c8-3.8,11.4-13.4,7.5-21.3c-7.8-16.4-12.7-33.8-14.5-51.8h37.1
			c8.8,0,16-7.2,16-16s-7.2-16-16-16H99.2c7.4-73.2,65.1-131.7,137.8-140.5v39.7c0,8.8,7.2,16,16,16s16-7.2,16-16v-40.3
			c75.6,6.2,136.2,65.9,143.8,141.1h-43.1c-8.8,0-16,7.2-16,16s7.2,16,16,16h43.1c-7.6,75.2-68.2,134.9-143.8,141.1V397
			c0-8.8-7.2-16-16-16s-16,7.2-16,16v39.7c-15.7-1.9-30.8-6.1-45.3-12.5c-8.1-3.6-17.5,0-21.1,8.1c-3.6,8.1,0,17.5,8.1,21.1
			c24.4,10.9,50.4,16.5,77.4,16.5c104.6,0,189.6-85.1,189.6-189.6C445.6,229.3,425.4,183,392.6,148.9z"/>
		<path d="M256,296.2c4.1,0,8.2-1.6,11.3-4.7l53.9-53.9c6.2-6.2,6.2-16.4,0-22.6c-6.2-6.2-16.4-6.2-22.6,0l-53.9,53.9
			c-6.2,6.2-6.2,16.4,0,22.6C247.8,294.7,251.9,296.2,256,296.2z"/>
	</g>
</g>
</svg>
