<?xml version="1.0" encoding="UTF-8"?>
<svg id="A" xmlns="http://www.w3.org/2000/svg" version="1.1" viewBox="0 0 512 512">
  <!-- Generator: Adobe Illustrator 29.1.0, SVG Export Plug-In . SVG Version: 2.1.0 Build 142)  -->
  <path d="M304,138.67h46.23c2.94,0,5.33,2.39,5.33,5.33v35.94l-15.25-15.25c-6.25-6.25-16.38-6.25-22.63,0-6.25,6.25-6.25,16.38,0,22.63l25.75,25.75c7.05,7.05,16.43,10.94,26.4,10.94s19.35-3.88,26.4-10.93l25.75-25.75c6.25-6.25,6.25-16.38,0-22.63-6.25-6.25-16.38-6.25-22.63,0l-11.79,11.79v-32.48c0-20.59-16.75-37.33-37.33-37.33h-46.23c-8.84,0-16,7.16-16,16s7.16,16,16,16Z"/>
  <path d="M208,373.33h-46.23c-2.94,0-5.33-2.39-5.33-5.33v-35.94l15.25,15.25c3.12,3.12,7.22,4.69,11.31,4.69s8.19-1.56,11.31-4.69c6.25-6.25,6.25-16.38,0-22.63l-25.75-25.75c-14.56-14.56-38.24-14.56-52.8,0l-25.75,25.75c-6.25,6.25-6.25,16.38,0,22.63,6.25,6.25,16.38,6.25,22.63,0l11.79-11.79v32.48c0,20.59,16.75,37.33,37.33,37.33h46.23c8.84,0,16-7.16,16-16s-7.16-16-16-16Z"/>
  <path d="M392,245.33h-90.67c-30.88,0-56,25.12-56,56v90.67c0,30.88,25.12,56,56,56h90.67c30.88,0,56-25.12,56-56v-90.67c0-30.88-25.12-56-56-56ZM416,392c0,13.23-10.77,24-24,24h-90.67c-13.23,0-24-10.77-24-24v-90.67c0-13.23,10.77-24,24-24h90.67c13.23,0,24,10.77,24,24v90.67Z"/>
  <path d="M340.83,288h-36.83c-8.84,0-16,7.16-16,16s7.16,16,16,16h21.2c-.55,18.82-4.6,46.15-19.41,56.02-7.35,4.9-9.34,14.83-4.44,22.19,3.08,4.62,8.16,7.13,13.33,7.13,3.05,0,6.13-.87,8.86-2.69,17.26-11.5,28.04-32.3,32.06-61.82,2.75-20.24,1.23-37.55,1.16-38.28-.75-8.24-7.66-14.55-15.93-14.55Z"/>
  <path d="M389.93,288c-8.84,0-16,7.16-16,16v6.72c-6.52,2.02-11.26,8.1-11.26,15.29s4.74,13.27,11.26,15.29v48.04c0,8.84,7.16,16,16,16s16-7.16,16-16v-85.33c0-8.84-7.16-16-16-16Z"/>
  <path d="M210.67,266.67c30.88,0,56-25.12,56-56v-90.67c0-30.88-25.12-56-56-56h-90.67c-30.88,0-56,25.12-56,56v90.67c0,30.88,25.12,56,56,56h90.67ZM96,210.67v-90.67c0-13.23,10.77-24,24-24h90.67c13.23,0,24,10.77,24,24v90.67c0,13.23-10.77,24-24,24h-90.67c-13.23,0-24-10.77-24-24Z"/>
  <path d="M139.38,209.86l1.11-2.2h49.68l1.11,2.2c2.81,5.59,8.45,8.81,14.31,8.81,2.42,0,4.87-.55,7.18-1.71,7.89-3.97,11.07-13.59,7.1-21.48l-40.24-80c-2.72-5.4-8.25-8.81-14.29-8.81s-11.58,3.41-14.29,8.81l-40.24,80c-3.97,7.89-.79,17.51,7.1,21.48,7.89,3.97,17.51.79,21.48-7.1ZM174.08,175.66h-17.49l8.74-17.38,8.74,17.38Z"/>
</svg>