<?xml version="1.0" encoding="UTF-8"?>
<svg id="Leafs" xmlns="http://www.w3.org/2000/svg" version="1.1" viewBox="0 0 512 512">
  <!-- Generator: Adobe Illustrator 29.1.0, SVG Export Plug-In . SVG Version: 2.1.0 Build 142)  -->
  <path d="M426.67,170.67c0-23.88-7.73-46.47-22.37-65.32-5.42-6.98-15.47-8.25-22.45-2.83-6.98,5.42-8.25,15.47-2.83,22.45,10.23,13.19,15.64,28.99,15.64,45.7s-5.06,31.44-14.65,44.31c-4.8,6.44-4.08,15.44,1.69,21.04,8.36,8.11,12.96,19,12.96,30.65,0,23.53-19.14,42.67-42.67,42.67s-42.67-19.14-42.67-42.67c0-2.36.16-4.44.48-6.15,1.36-7.36-2.56-14.68-9.44-17.63-1.68-.72-3.16-1.14-4.13-1.42-4.35-1.24-9.03-.58-12.87,1.81-3.84,2.4-6.48,6.31-7.28,10.77-6.79,38.21-39.91,65.95-78.75,65.95-44.11,0-80-35.89-80-80,0-32.71,19.61-61.81,49.97-74.14,4.13-1.68,7.38-5,8.95-9.18,1.57-4.17,1.33-8.81-.66-12.8-3.27-6.54-4.92-13.67-4.92-21.22,0-26.47,21.53-48,48-48,17.54,0,33.7,9.61,42.18,25.08,2.07,3.77,5.57,6.55,9.71,7.71,4.14,1.16,8.58.61,12.3-1.54,11.43-6.58,23.92-9.92,37.13-9.92,8.84,0,16-7.16,16-16s-7.16-16-16-16c-13.64,0-27.13,2.63-39.71,7.68-15.07-18.18-37.57-29.01-61.63-29.01-44.11,0-80,35.89-80,80,0,7,.87,13.81,2.59,20.38-34.41,19.83-55.92,56.41-55.92,96.95,0,61.76,50.24,112,112,112,15.04,0,29.46-2.97,42.67-8.4v109.73c0,8.84,7.16,16,16,16s16-7.16,16-16v-59.61l61.91-54.62c5.8,1.45,11.85,2.23,18.09,2.23,41.17,0,74.67-33.5,74.67-74.67,0-15.83-4.86-30.85-13.88-43.42,9.11-15.94,13.88-33.89,13.88-52.58ZM272,351.05v-27.52c6.03-5.39,11.49-11.43,16.25-18.03,4.1,6.71,9.24,12.73,15.18,17.83l-31.42,27.72Z"/>
</svg>