<?xml version="1.0" encoding="utf-8"?>
<!-- Generator: Adobe Illustrator 26.2.1, SVG Export Plug-In . SVG Version: 6.00 Build 0)  -->
<svg version="1.1" xmlns="http://www.w3.org/2000/svg" xmlns:xlink="http://www.w3.org/1999/xlink" x="0px" y="0px"
	 viewBox="0 0 512 512" style="enable-background:new 0 0 512 512;" xml:space="preserve">
<g id="Arrow">
	<path d="M316.9,230.2l-49.5-49.5c-3-3-7.1-4.7-11.3-4.7c-4.2,0-8.3,1.7-11.3,4.7l-51.1,51.1c-6.2,6.2-6.2,16.4,0,22.6
		c3.1,3.1,7.2,4.7,11.3,4.7s8.2-1.6,11.3-4.7l23.8-23.8V432c0,8.8,7.2,16,16,16c8.8,0,16-7.2,16-16V230.6l22.2,22.2
		c6.2,6.2,16.4,6.2,22.6,0C323.1,246.6,323.1,236.5,316.9,230.2z"/>
</g>
<g id="Cloud">
	<g>
		<path d="M350.8,372.1H325c-8.8,0-16-7.2-16-16s7.2-16,16-16h25.7c37.4,0,67.8-30.4,67.8-67.8c0-27.2-16.2-51.8-41.4-62.5l-8.7-3.7
			l-0.9-9.4c-2.8-27.5-15.6-52.9-36.2-71.5C310.8,106.4,284,96,256,96s-54.8,10.4-75.4,29.2c-20.5,18.7-33.4,44.1-36.2,71.5
			l-0.9,9.4l-8.7,3.7c-25.1,10.7-41.4,35.3-41.4,62.5c0,37.4,30.4,67.8,67.8,67.8H187c8.8,0,16,7.2,16,16s-7.2,16-16,16h-25.7
			c-55,0-99.8-44.8-99.8-99.8c0-36.9,20.3-70.5,52.4-87.9c5.3-31.8,21.1-61,45.3-83c26.6-24.2,61-37.5,97-37.5s70.4,13.3,97,37.5
			c24.1,21.9,40,51.1,45.3,83c32.1,17.4,52.4,50.9,52.4,87.9C450.6,327.4,405.8,372.1,350.8,372.1z"/>
	</g>
</g>
</svg>
