<?xml version="1.0" encoding="UTF-8"?>
<svg id="Sun" xmlns="http://www.w3.org/2000/svg" version="1.1" viewBox="0 0 512 512">
  <!-- Generator: Adobe Illustrator 29.1.0, SVG Export Plug-In . SVG Version: 2.1.0 Build 142)  -->
  <path d="M432.23,148.79c8.84,0,16-7.16,16-16v-52.92c0-8.84-7.16-16-16-16h-52.92c-8.84,0-16,7.16-16,16v10.46h-214.78v-10.46c0-8.84-7.16-16-16-16h-52.92c-8.84,0-16,7.16-16,16v52.92c0,8.84,7.16,16,16,16h10.46v18.55c0,8.84,7.16,16,16,16s16-7.16,16-16v-18.55h10.46c8.84,0,16-7.16,16-16v-10.46h214.78v10.46c0,8.84,7.16,16,16,16h10.6v144.19c-9.43,2.96-36.75,6.68-102.94-12.13-48.17-13.69-96.94-6.92-141.05,19.58-9.04,5.43-17.01,11.17-23.84,16.66v-61.09c0-8.84-7.16-16-16-16s-16,7.16-16,16v107.2h-10.46c-8.84,0-16,7.16-16,16v52.92c0,8.84,7.16,16,16,16h52.92c8.84,0,16-7.16,16-16v-10.46h214.78v10.46c0,8.84,7.16,16,16,16h52.92c8.84,0,16-7.16,16-16v-52.92c0-8.84-7.16-16-16-16h-10.32v-214.4h10.32ZM95.63,95.87h20.92v20.92h-20.92v-20.92ZM116.54,416.11h-20.92v-20.92h20.92v20.92ZM416.23,416.11h-20.92v-20.92h20.92v20.92ZM379.32,363.19c-8.84,0-16,7.16-16,16v10.46h-214.78v-10.46c0-8.84-7.16-16-16-16h-10.46v-2.42c6.01-6.66,19.88-20.64,40.32-32.92,36.85-22.14,75.82-27.6,115.82-16.23,46.57,13.24,83.04,18.18,108.39,14.7,1.14-.16,2.24-.33,3.3-.52v37.39h-10.6ZM395.32,95.87h20.92v20.92h-20.92v-20.92Z"/>
  <path d="M353.39,200.74c0-27.24-22.17-49.41-49.41-49.41s-49.41,22.17-49.41,49.41,22.17,49.41,49.41,49.41,49.41-22.17,49.41-49.41ZM286.57,200.74c0-9.6,7.81-17.41,17.41-17.41s17.41,7.81,17.41,17.41-7.81,17.41-17.41,17.41-17.41-7.81-17.41-17.41Z"/>
</svg>