<?xml version="1.0" encoding="UTF-8"?>
<svg id="Layer_1" xmlns="http://www.w3.org/2000/svg" version="1.1" viewBox="0 0 512 512">
  <!-- Generator: Adobe Illustrator 29.1.0, SVG Export Plug-In . SVG Version: 2.1.0 Build 142)  -->
  <path d="M389.33,64H122.67c-32.35,0-58.67,26.32-58.67,58.67v86.22c0,8.84,7.16,16,16,16s16-7.16,16-16v-15.95h320v196.4c0,14.7-11.96,26.67-26.67,26.67H122.67c-14.7,0-26.67-11.96-26.67-26.67v-84.36c0-8.84-7.16-16-16-16s-16,7.16-16,16v84.36c0,32.35,26.32,58.67,58.67,58.67h266.67c32.35,0,58.67-26.32,58.67-58.67V122.67c0-32.35-26.32-58.67-58.67-58.67ZM294.66,96h53.14l-39.79,64.93h-53.14l39.79-64.93ZM217.34,160.93h-53.14l39.79-64.93h53.14l-39.79,64.93ZM96,122.67c0-14.7,11.96-26.67,26.67-26.67h43.8l-39.79,64.93h-30.67v-38.26ZM345.54,160.93l39.79-64.93h4.01c14.7,0,26.67,11.96,26.67,26.67v38.26h-70.46Z"/>
  <path d="M215.81,387.68c6.61,0,13.24-1.57,19.39-4.71l80.34-41.14c14.27-7.3,23.13-21.8,23.13-37.83s-8.86-30.52-23.13-37.83l-80.34-41.14c-13.28-6.8-28.81-6.21-41.54,1.57-12.73,7.78-20.33,21.34-20.33,36.26v82.28c0,14.92,7.6,28.47,20.33,36.26,6.83,4.18,14.48,6.28,22.14,6.28ZM205.33,262.86c0-5.31,3.51-8.03,5.02-8.95.97-.59,2.96-1.57,5.5-1.57,1.44,0,3.05.31,4.75,1.19l80.34,41.14c5.16,2.64,5.71,7.41,5.71,9.34s-.56,6.7-5.71,9.34l-80.34,41.14c-4.73,2.42-8.75.54-10.26-.39-1.51-.92-5.02-3.64-5.02-8.95v-82.28Z"/>
</svg>