<?xml version="1.0" encoding="UTF-8"?>
<svg id="_x34_" xmlns="http://www.w3.org/2000/svg" version="1.1" viewBox="0 0 512 512">
  <!-- Generator: Adobe Illustrator 29.1.0, SVG Export Plug-In . SVG Version: 2.1.0 Build 142)  -->
  <path d="M334.96,398.46c-18.45-14.62-39.97-23.62-62.96-26.47v-20.98h5.5c34.19,0,62-27.81,62-62v-141c0-34.19-27.81-62-62-62h-43c-34.19,0-62,27.81-62,62v141c0,34.19,27.81,62,62,62h5.5v20.98c-22.99,2.85-44.51,11.86-62.96,26.47-6.93,5.49-8.09,15.55-2.61,22.48,5.49,6.93,15.55,8.09,22.48,2.61,16.97-13.44,37.4-20.54,59.09-20.54s42.13,7.1,59.09,20.54c2.94,2.33,6.44,3.46,9.92,3.46,4.72,0,9.4-2.08,12.55-6.07,5.49-6.93,4.32-16.99-2.61-22.48ZM204.5,289v-5.5h18.61c8.84,0,16-7.16,16-16s-7.16-16-16-16h-18.61v-66h18.61c8.84,0,16-7.16,16-16s-7.16-16-16-16h-18.61v-5.5c0-16.54,13.46-30,30-30h43c16.54,0,30,13.46,30,30v5.5h-18.61c-8.84,0-16,7.16-16,16s7.16,16,16,16h18.61v66h-18.61c-8.84,0-16,7.16-16,16s7.16,16,16,16h18.61v5.5c0,16.54-13.46,30-30,30h-43c-16.54,0-30-13.46-30-30Z"/>
  <path d="M58.17,168.08c-8.84,0-16,7.16-16,16v67.83c0,8.84,7.16,16,16,16s16-7.16,16-16v-67.83c0-8.84-7.16-16-16-16Z"/>
  <path d="M124,138.08c-8.84,0-16,7.16-16,16v127.83c0,8.84,7.16,16,16,16s16-7.16,16-16v-127.83c0-8.84-7.16-16-16-16Z"/>
  <path d="M388.17,138.08c-8.84,0-16,7.16-16,16v127.83c0,8.84,7.16,16,16,16s16-7.16,16-16v-127.83c0-8.84-7.16-16-16-16Z"/>
  <path d="M454,168.08c-8.84,0-16,7.16-16,16v67.83c0,8.84,7.16,16,16,16s16-7.16,16-16v-67.83c0-8.84-7.16-16-16-16Z"/>
</svg>