<?xml version="1.0" encoding="utf-8"?>
<!-- Generator: Adobe Illustrator 26.2.1, SVG Export Plug-In . SVG Version: 6.00 Build 0)  -->
<svg version="1.1" xmlns="http://www.w3.org/2000/svg" xmlns:xlink="http://www.w3.org/1999/xlink" x="0px" y="0px"
	 viewBox="0 0 512 512" style="enable-background:new 0 0 512 512;" xml:space="preserve">
<g id="Back">
</g>
<g id="Front">
</g>
<g id="Circle">
	<g>
		<path d="M389.2,166.9H176l126-67.7c8.3-4.5,18.2-4.3,26.3,0.6c8.1,4.9,13,13.4,13,22.9V135c0,8.8,7.2,16,16,16s16-7.2,16-16v-12.3
			c0-20.8-10.7-39.7-28.6-50.4c-17.9-10.7-39.5-11.2-57.9-1.3L99.2,171.9c-0.6,0.3-1.2,0.7-1.7,1.1c-19.4,9.6-32.8,29.6-32.8,52.6
			v163.5c0,32.3,26.3,58.7,58.7,58.7H161c8.8,0,16-7.2,16-16s-7.2-16-16-16h-37.6c-14.7,0-26.7-12-26.7-26.7V225.6
			c0-14.7,12-26.7,26.7-26.7h265.8c14.7,0,26.7,12,26.7,26.7v163.5c0,14.7-12,26.7-26.7,26.7H256.3c-8.8,0-16,7.2-16,16
			s7.2,16,16,16h132.9c32.3,0,58.7-26.3,58.7-58.7V225.6C447.9,193.3,421.5,166.9,389.2,166.9z"/>
		<path d="M388.4,307.4c0-27.5-22.4-49.8-49.8-49.8s-49.8,22.4-49.8,49.8s22.4,49.8,49.8,49.8S388.4,334.8,388.4,307.4z
			 M320.7,307.4c0-9.8,8-17.8,17.8-17.8s17.8,8,17.8,17.8s-8,17.8-17.8,17.8S320.7,317.2,320.7,307.4z"/>
	</g>
</g>
</svg>
