<?xml version="1.0" encoding="UTF-8"?>
<svg id="Line_3" xmlns="http://www.w3.org/2000/svg" version="1.1" viewBox="0 0 512 512">
  <!-- Generator: Adobe Illustrator 29.1.0, SVG Export Plug-In . SVG Version: 2.1.0 Build 142)  -->
  <path d="M389.33,64h-31.64c-8.84,0-16,7.16-16,16s7.16,16,16,16h31.64c14.7,0,26.67,11.96,26.67,26.67v37.05H96v-37.05c0-14.7,11.96-26.67,26.67-26.67h138.67c8.84,0,16-7.16,16-16s-7.16-16-16-16H122.67c-32.35,0-58.67,26.32-58.67,58.67v266.67c0,32.35,26.32,58.67,58.67,58.67h266.67c32.35,0,58.67-26.32,58.67-58.67V122.67c0-32.35-26.32-58.67-58.67-58.67ZM389.33,416H122.67c-14.7,0-26.67-11.96-26.67-26.67v-197.62h320v197.62c0,14.7-11.96,26.67-26.67,26.67Z"/>
  <path d="M149.33,128c0,11.76-9.57,21.33-21.33,21.33s-21.33-9.57-21.33-21.33,9.57-21.33,21.33-21.33,21.33,9.57,21.33,21.33Z"/>
  <path d="M202.67,128c0,11.76-9.57,21.33-21.34,21.33s-21.33-9.57-21.33-21.33,9.57-21.33,21.33-21.33,21.34,9.57,21.34,21.33Z"/>
  <path d="M234.67,106.67c-11.77,0-21.34,9.57-21.34,21.33s9.57,21.33,21.34,21.33,21.33-9.57,21.33-21.33-9.57-21.33-21.33-21.33Z"/>
  <path d="M378.14,213.33h-105.61c-9.11,0-16.53,7.41-16.53,16.53v148.28c0,9.11,7.41,16.53,16.53,16.53h105.61c9.11,0,16.53-7.41,16.53-16.53v-148.28c0-9.11-7.41-16.53-16.53-16.53ZM362.67,322.59l-48.75-77.25h48.75v77.25ZM288,264.23l62.12,98.44h-62.12v-98.44Z"/>
  <path d="M133.33,245.33h37.33c8.84,0,16-7.16,16-16s-7.16-16-16-16h-37.33c-8.84,0-16,7.16-16,16s7.16,16,16,16Z"/>
  <path d="M213.33,266.67h-80c-8.84,0-16,7.16-16,16s7.16,16,16,16h80c8.84,0,16-7.16,16-16s-7.16-16-16-16Z"/>
  <path d="M213.33,320h-80c-8.84,0-16,7.16-16,16s7.16,16,16,16h80c8.84,0,16-7.16,16-16s-7.16-16-16-16Z"/>
</svg>