<?xml version="1.0" encoding="utf-8"?>
<!-- Generator: Adobe Illustrator 26.2.1, SVG Export Plug-In . SVG Version: 6.00 Build 0)  -->
<svg version="1.1" xmlns="http://www.w3.org/2000/svg" xmlns:xlink="http://www.w3.org/1999/xlink" x="0px" y="0px"
	 viewBox="0 0 512 512" style="enable-background:new 0 0 512 512;" xml:space="preserve">
<g id="Circle">
</g>
<g id="Line_1_00000049915785659748233130000008882846564964200852_">
</g>
<g id="Line_2">
</g>
<g id="Line_3">
	<g>
		<ellipse transform="matrix(0.9732 -0.2298 0.2298 0.9732 -86.7016 69.5935)" cx="255.5" cy="407.1" rx="20.8" ry="20.8"/>
		<path d="M255.5,293.2c-35.3,0-68.1,16-89.9,43.9c-5.4,7-4.2,17,2.8,22.5c7,5.4,17,4.2,22.5-2.8c15.7-20.1,39.2-31.6,64.7-31.6
			c25.4,0,49,11.5,64.7,31.6c3.2,4,7.9,6.2,12.6,6.2c3.4,0,6.9-1.1,9.8-3.4c7-5.4,8.2-15.5,2.8-22.5
			C323.6,309.2,290.9,293.2,255.5,293.2z"/>
		<path d="M255.5,192c-55.6,0-108.4,21.2-148.6,59.6c-6.4,6.1-6.6,16.2-0.5,22.6s16.2,6.6,22.6,0.5C163.2,242,208.2,224,255.5,224
			s92.3,18,126.5,50.7c3.1,3,7.1,4.4,11.1,4.4c4.2,0,8.4-1.7,11.6-4.9c6.1-6.4,5.9-16.5-0.5-22.6C363.9,213.1,311.1,192,255.5,192z"
			/>
		<path d="M466.1,164.1c-58.4-50.7-133.2-78.6-210.6-78.6c-76.9,0-151.3,27.6-209.6,77.7c-6.7,5.8-7.5,15.9-1.7,22.6
			c5.8,6.7,15.9,7.5,22.6,1.7c52.4-45.1,119.5-69.9,188.7-69.9c69.7,0,137.1,25.1,189.7,70.7c3,2.6,6.8,3.9,10.5,3.9
			c4.5,0,8.9-1.9,12.1-5.5C473.5,180,472.8,169.8,466.1,164.1z"/>
	</g>
</g>
</svg>
