<?xml version="1.0" encoding="utf-8"?>
<!-- Generator: Adobe Illustrator 26.2.1, SVG Export Plug-In . SVG Version: 6.00 Build 0)  -->
<svg version="1.1" xmlns="http://www.w3.org/2000/svg" xmlns:xlink="http://www.w3.org/1999/xlink" x="0px" y="0px"
	 viewBox="0 0 512 512" style="enable-background:new 0 0 512 512;" xml:space="preserve">
<g id="Frame">
	<path d="M443.3,421.4l-92.7-92.7c22.5-27.9,36.1-63.4,36.1-102c0-13.7-1.7-27.3-5.1-40.5c-2.2-8.6-10.9-13.7-19.5-11.5
		c-8.6,2.2-13.7,10.9-11.5,19.5c2.7,10.6,4.1,21.5,4.1,32.5c0,72-58.6,130.7-130.7,130.7S93.3,298.7,93.3,226.7
		C93.3,154.6,152,96,224,96c32,0,62.8,11.7,86.7,32.9c6.6,5.9,16.7,5.3,22.6-1.3c5.9-6.6,5.3-16.7-1.3-22.6
		C302.2,78.5,263.8,64,224,64c-89.7,0-162.7,73-162.7,162.7s73,162.7,162.7,162.7c39.6,0,75.9-14.2,104.2-37.8l92.5,92.5
		c3.1,3.1,7.2,4.7,11.3,4.7s8.2-1.6,11.3-4.7C449.6,437.7,449.6,427.6,443.3,421.4z"/>
</g>
<g id="Reflection">
	<g>
		<path d="M136,240c-8.8,0-16-7.2-16-16c0-55.9,45.5-101.3,101.3-101.3c8.8,0,16,7.2,16,16s-7.2,16-16,16
			c-38.2,0-69.3,31.1-69.3,69.3C152,232.8,144.8,240,136,240z"/>
	</g>
</g>
</svg>
