<svg width="512" height="512" viewBox="0 0 512 512" fill="none" xmlns="http://www.w3.org/2000/svg">
<path d="M443.3 421.4L350.6 328.7C373.1 300.8 386.7 265.3 386.7 226.7C386.7 213 385 199.4 381.6 186.2C379.4 177.6 370.7 172.5 362.1 174.7C353.5 176.9 348.4 185.6 350.6 194.2C353.3 204.8 354.7 215.7 354.7 226.7C354.7 298.7 296.1 357.4 224 357.4C151.9 357.4 93.3 298.7 93.3 226.7C93.3 154.6 152 96 224 96C256 96 286.8 107.7 310.7 128.9C317.3 134.8 327.4 134.2 333.3 127.6C339.2 121 338.6 110.9 332 105C302.2 78.5 263.8 64 224 64C134.3 64 61.3 137 61.3 226.7C61.3 316.4 134.3 389.4 224 389.4C263.6 389.4 299.9 375.2 328.2 351.6L420.7 444.1C423.8 447.2 427.9 448.8 432 448.8C436.1 448.8 440.2 447.2 443.3 444.1C449.6 437.7 449.6 427.6 443.3 421.4Z" fill="#A1A1AA"/>
<path d="M136 240C127.2 240 120 232.8 120 224C120 168.1 165.5 122.7 221.3 122.7C230.1 122.7 237.3 129.9 237.3 138.7C237.3 147.5 230.1 154.7 221.3 154.7C183.1 154.7 152 185.8 152 224C152 232.8 144.8 240 136 240Z" fill="#A1A1AA"/>
</svg>
